<?xml version="1.0" encoding="UTF-8"?>
<svg width="40px" height="41px" viewBox="0 0 40 41" version="1.1" xmlns="http://www.w3.org/2000/svg" xmlns:xlink="http://www.w3.org/1999/xlink">
    <title>noun-appointments-5627064</title>
    <g id="All-Apps" stroke="none" stroke-width="1" fill="none" fill-rule="evenodd">
        <g id="All-Apps---1" transform="translate(-284.000000, -303.000000)" fill="#FFFFFF" fill-rule="nonzero">
            <g id="Group-3" transform="translate(268.000000, 287.000000)">
                <g id="noun-appointments-5627064" transform="translate(16.000000, 16.000000)">
                    <path d="M19.3418557,24 L21.6581443,24 C22.950258,24 24,22.9488998 24,21.6560853 L24,19.3439147 C24,18.0523722 22.950235,17 21.6581443,17 L19.3418557,17 C18.049742,17 17,18.052441 17,19.3439147 L17,21.6560853 C17,22.9493468 18.051565,24 19.3418557,24 Z M18.6051331,19.3443731 C18.6051331,18.9370044 18.9356482,18.6048476 19.3418557,18.6048476 L21.6581443,18.6048476 C22.0643518,18.6048476 22.3948669,18.9370044 22.3948669,19.3443731 L22.3948669,21.6565437 C22.3948669,22.0639124 22.0643518,22.3960692 21.6581443,22.3960692 L19.3418557,22.3960692 C18.9356482,22.3960692 18.6051331,22.0639124 18.6051331,21.6565437 L18.6051331,19.3443731 Z" id="Shape"></path>
                    <path d="M32.6560853,17 L30.3457483,17 C29.0524868,17 28,18.052441 28,19.3439147 L28,21.6560853 C28,22.9493468 29.052441,24 30.3457483,24 L32.6560853,24 C33.9493468,24 35,22.9488998 35,21.6560853 L35,19.3439147 C35,18.0523722 33.9493468,17 32.6560853,17 L32.6560853,17 Z M33.3956108,21.6560853 C33.3956108,22.063454 33.063454,22.3956108 32.6560853,22.3956108 L30.3457483,22.3956108 C29.9365918,22.3956108 29.6044236,22.063454 29.6044236,21.6560853 L29.6044236,19.3439147 C29.6044236,18.936546 29.9365803,18.6043892 30.3457483,18.6043892 L32.6560853,18.6043892 C33.063454,18.6043892 33.3956108,18.936546 33.3956108,19.3439147 L33.3956108,21.6560853 Z" id="Shape"></path>
                    <path d="M10.6542517,28 L8.34391474,28 C7.05065322,28 6,29.0513756 6,30.3445289 L6,32.6554711 C6,33.9504471 7.05110016,35 8.34391474,35 L10.6542517,35 C11.9475132,35 13,33.9504241 13,32.6554711 L13,30.3445289 C12.9982094,29.052648 11.9457713,28 10.6542517,28 Z M11.3937772,32.6573052 C11.3937772,33.066569 11.0616204,33.3970245 10.6524524,33.3970245 L8.34211552,33.3970245 C7.93474673,33.3970245 7.60258996,33.066569 7.60258996,32.6573052 L7.60258996,30.346363 C7.60258996,29.9370992 7.93474673,29.6066436 8.34211552,29.6066436 L10.6524524,29.6066436 C11.061609,29.6066436 11.3937772,29.9370992 11.3937772,30.346363 L11.3937772,32.6573052 Z" id="Shape"></path>
                    <path d="M32.6560853,28 L30.3457483,28 C29.0524868,28 28,29.0513756 28,30.3445289 L28,32.6554711 C28,33.9504471 29.052441,35 30.3457483,35 L32.6560853,35 C33.9493468,35 35,33.9504241 35,32.6554711 L35,30.3445289 C35,29.052648 33.9493468,28 32.6560853,28 Z M33.3956108,32.6573052 C33.3956108,33.066569 33.063454,33.3970245 32.6560853,33.3970245 L30.3457483,33.3970245 C29.9365918,33.3970245 29.6044236,33.066569 29.6044236,32.6573052 L29.6044236,30.346363 C29.6044236,29.9370992 29.9365803,29.6066436 30.3457483,29.6066436 L32.6560853,29.6066436 C33.063454,29.6066436 33.3956108,29.9370992 33.3956108,30.346363 L33.3956108,32.6573052 Z" id="Shape"></path>
                    <path d="M11.6527485,18.2798248 L8.63267459,21.9677402 L6.30926184,19.4912762 C6.00789188,19.1702877 5.51977848,19.1735155 5.22141979,19.4977423 C4.92434695,19.8205871 4.9260614,20.3452617 5.22742994,20.6680947 L8.12782187,23.7584428 C8.27249528,23.9140893 8.46783296,24 8.66959983,24 C8.67904438,24 8.68805987,24 8.69750475,23.9981526 C8.90829447,23.9916864 9.11006135,23.8923864 9.24658012,23.7201075 L12.8068164,19.3749153 C13.0897231,19.0322185 13.0575221,18.5093884 12.7389868,18.2077907 C12.4221647,17.9057318 11.93448,17.9357521 11.6528592,18.2798417 L11.6527485,18.2798248 Z" id="Path"></path>
                    <path d="M22.6532924,28.279825 L19.6315052,31.9677404 L17.3098855,29.4912764 C17.00852,29.1716713 16.5204139,29.1716713 16.2220597,29.4977424 C15.9237054,29.8205872 15.9267057,30.3452618 16.2267818,30.6680948 L19.1271305,33.7584428 C19.2718017,33.9140893 19.4671365,34 19.6701862,34 C19.6779134,34 19.6869282,34 19.6963729,33.9981524 C19.9088739,33.9916864 20.1089234,33.8923863 20.2471545,33.7201074 L23.8073378,29.3749152 C24.0889543,29.0322185 24.0580397,28.5093884 23.7395091,28.2077907 C23.4239776,27.9057318 22.9345857,27.9357521 22.6533977,28.2798417 L22.6532924,28.279825 Z" id="Path"></path>
                    <path d="M33.2995012,2.64077628 L32.3665741,2.64077628 L32.3665741,2.34474155 C32.3665741,1.05178313 31.3137608,0 30.0220081,0 C28.7316254,0 27.6817166,1.05348309 27.6817166,2.34474155 L27.6817166,2.64120401 L22.3431734,2.64120401 L22.3431734,2.34474155 C22.3431734,1.05178313 21.2903601,0 20.0016763,0 C18.7082247,0 17.6571103,1.05348309 17.6571103,2.34474155 L17.6571103,2.64120401 L12.313854,2.64248929 L12.313854,2.34474364 C12.313854,1.05178521 11.2627615,0 9.9723569,0 C8.68197421,0 7.63206546,1.05348517 7.63206546,2.34474364 L7.63249357,2.64248929 L6.64262658,2.64248929 C2.9169247,2.89568497 0,5.61654592 0,8.83484875 L0,37.2933145 C0,39.5780638 1.42870452,41 3.72745557,41 L36.2725444,41 C38.5712955,41 40,39.5780638 40,37.2933145 L39.9995718,8.83484875 C39.9978593,5.61654592 37.0779341,2.89572884 33.2999505,2.64073449 L33.2995012,2.64077628 Z M29.2149517,2.34474155 C29.2149517,1.89790372 29.5754543,1.53546079 30.0207257,1.53546079 C30.4689893,1.53546079 30.8307743,1.89790372 30.8307743,2.34474155 L30.8307743,5.23314202 C30.8307743,5.67997985 30.4685618,6.04242278 30.0207257,6.04242278 C29.5758818,6.04242278 29.2149517,5.67997985 29.2149517,5.23314202 L29.2149517,2.34474155 Z M19.1885916,2.34474155 C19.1885916,1.89790372 19.5520865,1.53546079 19.9986402,1.53546079 C20.4434841,1.53546079 20.8056966,1.89790372 20.8056966,2.34474155 L20.8056966,5.23314202 C20.8056966,5.67997985 20.4434841,6.04242278 19.9986402,6.04242278 C19.5520865,6.04242278 19.1885916,5.67997985 19.1885916,5.23314202 L19.1885916,2.34474155 Z M9.16530051,2.34474155 C9.16530051,1.89790372 9.527513,1.53546079 9.97107452,1.53546079 C10.4176283,1.53546079 10.7781309,1.89790372 10.7781309,2.34474155 L10.7781309,5.23314202 C10.7781309,5.67997985 10.4176283,6.04242278 9.97107452,6.04242278 C9.527513,6.04242278 9.16530051,5.67997985 9.16530051,5.23314202 L9.16530051,2.34474155 Z M6.69315395,4.17620417 L7.63079404,4.17620417 L7.63079404,5.23268138 C7.63079404,6.52563981 8.68188653,7.57742294 9.97108548,7.57742294 C11.2632218,7.57742294 12.3125826,6.52393985 12.3125826,5.23268138 L12.3125826,4.17620417 L17.6511258,4.17620417 L17.6511258,5.23268138 C17.6511258,6.52563981 18.7039391,7.57742294 19.9956919,7.57742294 C21.2860745,7.57742294 22.337189,6.52393985 22.337189,5.23268138 L22.337189,4.17620417 L27.6757322,4.1744906 L27.6757322,5.23096782 C27.6757322,6.52392625 28.7268247,7.57570938 30.0160236,7.57570938 C31.3094753,7.57570938 32.3605897,6.52222628 32.3605897,5.23096782 L32.3605897,4.17491834 L33.2412898,4.17491834 C36.1659965,4.37284879 38.4569656,6.41985565 38.4569656,8.8347892 L38.4569656,10.8676151 L1.53424276,10.8680436 L1.53424276,8.8352177 C1.53424276,6.41984545 3.82181408,4.37276181 6.69292378,4.17622424 L6.69315395,4.17620417 Z M36.2701325,39.4663248 L3.7272357,39.4663248 C2.27244513,39.4663248 1.53425373,38.7337288 1.53425373,37.2950891 L1.53425373,12.4054475 L38.4635529,12.4054475 L38.4635529,37.2950891 C38.4635529,38.7336959 37.7271371,39.4663248 36.2710093,39.4663248 L36.2701325,39.4663248 Z" id="Shape"></path>
                </g>
            </g>
        </g>
    </g>
</svg>