<?xml version="1.0" encoding="UTF-8"?>
<svg width="42px" height="40px" viewBox="0 0 42 40" version="1.1" xmlns="http://www.w3.org/2000/svg" xmlns:xlink="http://www.w3.org/1999/xlink">
    <title>noun-blog-2021199</title>
    <g id="All-Apps" stroke="none" stroke-width="1" fill="none" fill-rule="evenodd">
        <g id="All-Apps---1" transform="translate(-282.000000, -598.000000)" fill="#FFFFFF" fill-rule="nonzero">
            <g id="Group-12" transform="translate(268.000000, 582.000000)">
                <g id="noun-blog-2021199" transform="translate(14.000000, 16.000000)">
                    <path d="M24,10 C25.1026794,10 26,9.10267937 26,8 C26,6.89732063 25.1026794,6 24,6 C22.8973206,6 22,6.89732063 22,8 C22,9.10267937 22.8973206,10 24,10 Z M24,7.42209524 C24.318946,7.42209524 24.5778794,7.68102857 24.5778794,7.9999746 C24.5778794,8.31892063 24.318946,8.57785397 24,8.57785397 C23.681054,8.57785397 23.4221206,8.31892063 23.4221206,7.9999746 C23.4221206,7.68152381 23.6815492,7.42209524 24,7.42209524 Z" id="Shape"></path>
                    <path d="M31,10 C32.1026794,10 33,9.10267937 33,8 C33,6.89732063 32.1026794,6 31,6 C29.8973206,6 29,6.89732063 29,8 C29,9.10267937 29.8973206,10 31,10 Z M31,7.42209524 C31.318946,7.42209524 31.5778794,7.68102857 31.5778794,7.9999746 C31.5778794,8.31892063 31.318946,8.57785397 31,8.57785397 C30.681054,8.57785397 30.4221206,8.31892063 30.4221206,7.9999746 C30.4221206,7.68152381 30.681054,7.42209524 31,7.42209524 Z" id="Shape"></path>
                    <path d="M37,10 C38.1026794,10 39,9.10267937 39,8 C39,6.89732063 38.1026794,6 37,6 C35.8973206,6 35,6.89732063 35,8 C35,9.10267937 35.8973206,10 37,10 Z M37,7.42209524 C37.318946,7.42209524 37.5778794,7.68102857 37.5778794,7.9999746 C37.5778794,8.31892063 37.318946,8.57785397 37,8.57785397 C36.681054,8.57785397 36.4221206,8.31892063 36.4221206,7.9999746 C36.4221206,7.68152381 36.681054,7.42209524 37,7.42209524 Z" id="Shape"></path>
                    <path d="M4.17165612,40 L31.9837087,40 C34.283285,40 36.1542461,38.1148209 36.1542461,35.797304 L36.1542461,17.5145929 C36.1542461,17.4409488 36.1348458,17.3727535 36.1127382,17.3068379 L36.7849745,16.6294932 C36.861222,16.5535763 36.965441,16.509486 37.0723696,16.509486 L38.8517403,16.509486 C40.5873371,16.509486 42,15.0865534 42,13.3377673 L41.9995489,3.17171871 C41.9995489,1.42293258 40.587348,0 38.8512892,0 L22.77851,0 C21.0429131,0 19.6311743,1.42293258 19.6311743,3.17171871 L19.6311743,3.57130825 L4.1705374,3.57130825 C1.87096113,3.57130825 0,5.45648735 0,7.77353877 L0,35.7969432 C0,38.1144601 1.87049913,40 4.1705374,40 L4.17165612,40 Z M20.9258768,3.17156742 C20.9258768,2.14145128 21.7578245,1.30314649 22.7797442,1.30314649 L38.8525234,1.30314649 C39.8753209,1.30314649 40.7068527,2.14141636 40.7068527,3.17156742 L40.7068527,13.3380815 C40.7068527,14.3681976 39.8749051,15.2065024 38.8525234,15.2065024 L37.0731526,15.2065024 C36.6197284,15.2065024 36.193377,15.3842439 35.8717366,15.7079212 L33.2554633,18.3440763 L33.2554633,16.7611264 C33.2554633,15.9037592 32.5633729,15.2064559 31.7125181,15.2064559 L22.7803217,15.2064559 C21.7584251,15.2064559 20.9264543,14.368186 20.9264543,13.3380349 L20.9258768,3.17156742 Z M1.29458706,7.77343403 C1.29458706,6.17512242 2.58493694,4.87450129 4.17165612,4.87450129 L19.632293,4.87450129 L19.632293,9.73635248 L4.50429197,9.73635248 C4.14696253,9.73635248 3.85731525,10.0282009 3.85731525,10.3882458 C3.85731525,10.7482907 4.14651209,11.040139 4.50429197,11.040139 L19.632293,11.040139 L19.632293,13.3385703 C19.632293,15.0873564 21.0440319,16.510289 22.7796287,16.510289 L31.7122871,16.510289 C31.8498921,16.510289 31.9617871,16.6230285 31.9617871,16.761685 L31.9617871,19.7556971 C31.9617871,20.0479994 32.1354854,20.3089382 32.4034767,20.4207642 C32.4923563,20.4571318 32.584844,20.4753156 32.6768848,20.4753156 C32.8627682,20.4753156 33.0436852,20.4021254 33.1794884,20.2643836 L34.8613784,18.5692469 L34.8613784,35.7987529 C34.8613784,37.39753 33.5710285,38.6981511 31.9843093,38.6981511 L4.17225672,38.697242 C2.58553754,38.697242 1.29518765,37.3966208 1.29518765,35.7978437 L1.29458706,7.77343403 Z" id="Shape"></path>
                    <path d="M4.65991235,8 L6.34008765,8 C6.70456152,8 7,7.77615324 7,7.5 C7,7.22384676 6.70502097,7 6.34008765,7 L4.65991235,7 C4.29543848,7 4,7.22384676 4,7.5 C4.00046016,7.77615324 4.29543848,8 4.65991235,8 Z" id="Path"></path>
                    <path d="M8.65991235,8 L10.3400876,8 C10.7045615,8 11,7.77615324 11,7.5 C11,7.22384676 10.705021,7 10.3400876,7 L8.65991235,7 C8.29543848,7 8,7.22384676 8,7.5 C8.00046016,7.77615324 8.29543848,8 8.65991235,8 L8.65991235,8 Z" id="Path"></path>
                    <path d="M5.95388025,22 L11.0456664,22 C12.1237916,22 13,21.1233269 13,20.0456664 L13,14.9538803 C13,13.8766391 12.1233269,13 11.0456664,13 L5.95388025,13 C4.87663913,13 4,13.8766731 4,14.9538803 L4,20.0456664 C4.00044273,21.1233495 4.87667313,22 5.95388025,22 L5.95388025,22 Z M5.26980681,14.9543336 C5.26980681,14.5771026 5.57663787,14.2698181 5.95432231,14.2698181 L11.0461084,14.2698181 C11.4237815,14.2698181 11.731066,14.5770913 11.731066,14.9543336 L11.731066,20.0461197 C11.731066,20.4237929 11.4237929,20.7306352 11.0461084,20.7306352 L5.95432231,20.7306352 C5.5766492,20.7306352 5.26980681,20.4233621 5.26980681,20.0461197 L5.26980681,14.9543336 Z" id="Shape"></path>
                    <path d="M14.5816943,22 L17.4183057,22 C17.7395792,22 18,21.7761532 18,21.5 C18,21.2238468 17.7399842,21 17.4183057,21 L14.5816943,21 C14.2604208,21 14,21.2238468 14,21.5 C14.0004056,21.7761532 14.2604208,22 14.5816943,22 Z" id="Path"></path>
                    <path d="M22.6786594,22 L31.3213406,22 C31.6961686,22 32,21.7761532 32,21.5 C32,21.2238468 31.6966411,21 31.3213406,21 L22.6786594,21 C22.3038314,21 22,21.2238468 22,21.5 C22.0004734,21.7761532 22.3038314,22 22.6786594,22 Z" id="Path"></path>
                    <path d="M4.65621815,26 L31.3437818,26 C31.7062154,26 32,25.7761528 32,25.5 C32,25.2238466 31.7066723,25 31.3437818,25 L4.65621815,25.0003487 C4.29378461,25.0003487 4,25.2241953 4,25.5003484 C4.00045758,25.7761444 4.29378461,26 4.65621815,26 L4.65621815,26 Z" id="Path"></path>
                    <path d="M4.65621815,30 L31.3437818,30 C31.7062154,30 32,29.7761528 32,29.5 C32,29.2238466 31.7066723,29 31.3437818,29 L4.65621815,29.0003487 C4.29378461,29.0003487 4,29.2241953 4,29.5003484 C4.00045758,29.7761444 4.29378461,30 4.65621815,30 L4.65621815,30 Z" id="Path"></path>
                    <path d="M4.65621815,34 L31.3437818,34 C31.7062154,34 32,33.7761528 32,33.5 C32,33.2238466 31.7066723,33 31.3437818,33 L4.65621815,33.0003487 C4.29378461,33.0003487 4,33.2241953 4,33.5003484 C4.00045758,33.7761444 4.29378461,34 4.65621815,34 L4.65621815,34 Z" id="Path"></path>
                </g>
            </g>
        </g>
    </g>
</svg>