<?xml version="1.0" encoding="UTF-8"?>
<svg width="33px" height="42px" viewBox="0 0 33 42" version="1.1" xmlns="http://www.w3.org/2000/svg" xmlns:xlink="http://www.w3.org/1999/xlink">
    <title>noun-diet-plan-5429937</title>
    <g id="All-Apps" stroke="none" stroke-width="1" fill="none" fill-rule="evenodd">
        <g id="All-Apps---2" transform="translate(-683.000000, -302.000000)" fill="#FFFFFF" fill-rule="nonzero">
            <g id="noun-diet-plan-5429937" transform="translate(683.000000, 302.000000)">
                <path d="M33,0.724137931 C33,0.324571034 32.6674984,0 32.2775832,0 L0.722416813,0 C0.332501626,0 0,0.324571034 0,0.724137931 L0,41.2758621 C0,41.675429 0.332501626,42 0.722416813,42 L32.2775832,42 C32.6674984,42 33,41.675429 33,41.2758621 L33,0.724137931 Z M31.5551664,1.44827586 L31.5551664,40.5517241 L1.44483363,40.5517241 L1.44483363,1.44827586 L31.5551664,1.44827586 Z M15.8931699,25.992 C15.0698046,25.5038566 13.8272229,25.1476138 12.2523543,25.7514869 C11.0097148,26.2234676 10.2295872,27.2343559 9.85384789,28.485749 C9.33364173,30.2062179 9.62260846,32.3931972 10.5472359,34.0270179 C12.1365529,36.8653903 13.8994151,37.1811972 14.7372534,37.1811972 C15.4741846,37.1811972 16.0811138,36.7974703 16.5001156,36.4224662 C16.9190513,36.7974621 17.52603,37.1811972 18.2629777,37.1811972 C19.1008161,37.1811972 20.8636783,36.8653572 22.4529952,34.0270179 C23.3630753,32.3931972 23.6665729,30.2062179 23.1463833,28.485749 C22.7706605,27.2343559 21.9905164,26.2234593 20.7478769,25.7514869 C19.3465534,25.2184055 18.2194181,25.4343559 17.4102287,25.8281032 C17.4392541,25.7340314 17.4682796,25.6383377 17.5114991,25.5429749 C17.7137098,25.0040756 18.0749182,24.4596646 18.7250768,24.1742301 C19.0862852,24.0164756 19.2597973,23.5891018 19.1007996,23.222837 C18.9418019,22.8562411 18.5228661,22.6868425 18.1471268,22.846219 C17.0925634,23.3052728 16.4855682,24.1567846 16.1534216,25.0257501 C16.037645,25.3545252 15.9512109,25.6849059 15.8931616,25.9920397 L15.8931699,25.992 Z M15.9221953,27.8818759 C16.0521643,28.0671145 16.2688894,28.177349 16.5001288,28.177349 C16.7313682,28.177349 16.9480933,28.0671145 17.0780622,27.8818759 C17.0780622,27.8818759 18.2339291,26.3437241 20.2276344,27.1040772 C21.0368073,27.4111862 21.5279847,28.0903945 21.7592406,28.9027531 C22.1781763,30.2743945 21.9182384,32.0152221 21.1958216,33.3170979 C20.0399547,35.3738152 18.8695569,35.7329048 18.2629744,35.7329048 C17.55475,35.7329048 17.1071075,34.963829 17.1071075,34.963829 C16.9768166,34.7495007 16.7458991,34.6205131 16.5001453,34.6205131 C16.2543915,34.6205131 16.0234823,34.7495007 15.8789989,34.963829 C15.8789989,34.963829 15.4455489,35.7329048 14.7373327,35.7329048 C14.1306925,35.7329048 12.9603525,35.373749 11.8044856,33.3170979 C11.0675544,32.0153048 10.8221638,30.2743945 11.2265521,28.9027531 C11.4723059,28.0903614 11.9634833,27.4111945 12.7581583,27.1040772 C14.7518636,26.3437324 15.9222614,27.8818759 15.9222614,27.8818759 L15.9221953,27.8818759 Z M5.85129217,19.7511724 L7.93210028,21.6268138 C8.20655261,21.8744441 8.62548832,21.8744441 8.89997368,21.6268138 L13.0754603,17.8758621 C13.364427,17.6078648 13.3934558,17.1501103 13.1189985,16.8533793 C12.8587386,16.5549931 12.3965817,16.5304303 12.107615,16.7984226 L8.42328922,20.1148916 L6.81944133,18.673733 C6.51596022,18.4073495 6.06799575,18.4319206 5.7935269,18.7286897 C5.53358894,19.0257766 5.56228747,19.4848303 5.85125584,19.7511724 L5.85129217,19.7511724 Z M16.6875444,19.9367338 L26.6568964,19.9367338 C27.0616397,19.9367338 27.3793132,19.6121628 27.3793132,19.2125959 C27.3793132,18.8127062 27.0616397,18.4884579 26.6568964,18.4884579 L16.6875444,18.4884579 C16.2976292,18.4884579 15.9651275,18.8127062 15.9651275,19.2125959 C15.9651275,19.6121628 16.2976292,19.9367338 16.6875444,19.9367338 Z M5.85129217,14.3476303 L7.93210028,16.2232717 C8.20655261,16.4709021 8.62548832,16.4709021 8.89997368,16.2232717 L13.0754603,12.47232 C13.364427,12.2056138 13.3934558,11.7465683 13.1189985,11.4498372 C12.8587386,11.1527503 12.3965817,11.1281793 12.107615,11.3948806 L8.42328922,14.7113495 L6.81944133,13.2701909 C6.51596022,13.0038074 6.06799575,13.0283785 5.7935269,13.3251476 C5.53358894,13.6235338 5.56228747,14.0812883 5.85125584,14.3476303 L5.85129217,14.3476303 Z M16.6875444,14.5331917 L26.6568964,14.5331917 C27.0616397,14.5331917 27.3793132,14.2086207 27.3793132,13.8090538 C27.3793132,13.4091641 27.0616397,13.0849159 26.6568964,13.0849159 L16.6875444,13.0849159 C16.2976292,13.0849159 15.9651275,13.4091641 15.9651275,13.8090538 C15.9651275,14.2086207 16.2976292,14.5331917 16.6875444,14.5331917 Z M5.85129217,8.94566069 L7.93210028,10.8213021 C8.20655261,11.0689324 8.62548832,11.0689324 8.89997368,10.8213021 L13.0754603,7.07001931 C13.364427,6.80234483 13.3934558,6.34459034 13.1189985,6.04621241 C12.8587386,5.74944828 12.3965817,5.72455448 12.107615,5.99254841 L8.42328922,9.30901738 L6.81944133,7.86818979 C6.51596022,7.60019255 6.06799575,7.62476359 5.7935269,7.92314648 C5.53358894,8.21991062 5.56228747,8.67767338 5.85125584,8.94562924 L5.85129217,8.94566069 Z M16.6875444,9.13089931 L26.6568964,9.13089931 C27.0616397,9.13089931 27.3793132,8.80665103 27.3793132,8.40676138 C27.3793132,8.00719448 27.0616397,7.68262345 26.6568964,7.68262345 L16.6875444,7.68262345 C16.2976292,7.68262345 15.9651275,8.00719448 15.9651275,8.40676138 C15.9651275,8.80665103 16.2976292,9.13089931 16.6875444,9.13089931 Z" id="Shape"></path>
            </g>
        </g>
    </g>
</svg>