<?xml version="1.0" encoding="UTF-8"?>
<svg width="36px" height="43px" viewBox="0 0 36 43" version="1.1" xmlns="http://www.w3.org/2000/svg" xmlns:xlink="http://www.w3.org/1999/xlink">
    <title>noun-forms-3794683</title>
    <g id="All-Apps" stroke="none" stroke-width="1" fill="none" fill-rule="evenodd">
        <g id="All-Apps---2" transform="translate(-286.000000, -596.000000)" fill="#FFFFFF" fill-rule="nonzero">
            <g id="noun-forms-3794683" transform="translate(286.000000, 596.000000)">
                <path d="M12.0451163,13 L15.9548838,13 C17.0829006,13 18.0000001,12.0824502 18.0000001,10.9548838 L18.0000001,7.04511617 C18.0000001,5.91745971 17.0824501,5 15.9548838,5 L12.0451163,5 C10.9170995,5 10.0000001,5.91754981 10.0000001,7.04511617 L10.0000001,10.9548838 C9.99964828,12.0825403 10.9171896,13 12.0451163,13 Z M11.0086382,7.04511617 C11.0086382,6.47391799 11.4731974,6.00899846 12.0447559,6.00899846 L15.9545234,6.00899846 C16.526082,6.00899846 16.9906411,6.4735576 16.9906411,7.04511617 L16.9906411,10.9548838 C16.9906411,11.526082 16.526082,11.9910015 15.9545234,11.9910015 L12.0447559,11.9910015 C11.4731974,11.9910015 11.0086382,11.526082 11.0086382,10.9548838 L11.0086382,7.04511617 Z" id="Shape"></path>
                <path d="M12.0451163,25 L15.9548838,25 C17.0829006,25 18.0000001,24.0824502 18.0000001,22.9548838 L18.0000001,19.0451162 C18.0000001,17.9174597 17.0824501,17 15.9548838,17 L12.0451163,17 C10.9170995,17 10.0000001,17.9175498 10.0000001,19.0451162 L10.0000001,22.9548838 C9.99964828,24.0825403 10.9171896,25 12.0451163,25 Z M11.0086382,19.0454766 C11.0086382,18.4742784 11.4731974,18.0093588 12.0447559,18.0093588 L15.9545234,18.0093588 C16.526082,18.0093588 16.9906411,18.473918 16.9906411,19.0454766 L16.9906411,22.9552442 C16.9906411,23.5264424 16.526082,23.9913619 15.9545234,23.9913619 L12.0447559,23.9913619 C11.4731974,23.9913619 11.0086382,23.5268028 11.0086382,22.9552442 L11.0086382,19.0454766 Z" id="Shape"></path>
                <path d="M12.0451163,38 L15.9548838,38 C17.0829006,38 18.0000001,37.0824502 18.0000001,35.9548838 L18.0000001,32.0451162 C18.0000001,30.9170993 17.0824501,30 15.9548838,30 L12.0451163,30 C10.9170995,30 10.0000001,30.9175498 10.0000001,32.0451162 L10.0000001,35.9548838 C9.99964828,37.0825403 10.9171896,38 12.0451163,38 Z M11.0086382,32.0451162 C11.0086382,31.473918 11.4731974,31.0089985 12.0447559,31.0089985 L15.9545234,31.0089985 C16.526082,31.0089985 16.9906411,31.473918 16.9906411,32.0451162 L16.9906411,35.9548838 C16.9906411,36.526082 16.526082,36.9910015 15.9545234,36.9910015 L12.0447559,36.9910015 C11.4731974,36.9910015 11.0086382,36.5264424 11.0086382,35.9548838 L11.0086382,32.0451162 Z" id="Shape"></path>
                <path d="M23.5280089,7 L31.4719911,7 C31.7636138,7 32,6.77615324 32,6.5 C32,6.22384676 31.7639814,6 31.4719911,6 L23.5280089,6 C23.2363862,6 23,6.22384676 23,6.5 C23,6.77615324 23.2360186,7 23.5280089,7 Z" id="Path"></path>
                <path d="M23.5280089,13 L31.4719911,13 C31.7636138,13 32,12.7761528 32,12.5 C32,12.2238466 31.7639814,12 31.4719911,12 L23.5280089,12.0003487 C23.2363862,12.0003487 23,12.2241953 23,12.5003484 C23,12.7761444 23.2360186,13 23.5280089,13 L23.5280089,13 Z" id="Path"></path>
                <path d="M23.5280089,19 L31.4719911,19 C31.7636138,19 32,18.7761528 32,18.5 C32,18.2238466 31.7639814,18 31.4719911,18 L23.5280089,18.0003487 C23.2363862,18.0003487 23,18.2241953 23,18.5003484 C23,18.7765015 23.2360186,19 23.5280089,19 L23.5280089,19 Z" id="Path"></path>
                <path d="M23.5280089,25 L31.4719911,25 C31.7636138,25 32,24.7761528 32,24.5 C32,24.2238466 31.7639814,24 31.4719911,24 L23.5280089,24.0003487 C23.2363862,24.0003487 23,24.2241954 23,24.5003484 C23,24.7761445 23.2360186,25 23.5280089,25 L23.5280089,25 Z" id="Path"></path>
                <path d="M23.5280089,31 L31.4719911,31 C31.7636138,31 32,30.7761528 32,30.5 C32,30.2238466 31.7639814,30 31.4719911,30 L23.5280089,30.0003487 C23.2363862,30.0003487 23,30.2241954 23,30.5003484 C23,30.7761445 23.2360186,31 23.5280089,31 L23.5280089,31 Z" id="Path"></path>
                <path d="M23.5280089,37 L31.4719911,37 C31.7636138,37 32,36.7761532 32,36.5 C32,36.2238468 31.7639814,36 31.4719911,36 L23.5280089,36 C23.2363862,36 23,36.2238468 23,36.5 C23,36.7761532 23.2360186,37 23.5280089,37 Z" id="Path"></path>
                <path d="M0.536221344,37.1087733 C0.240269187,37.1087733 0.000373647012,37.3494756 0.000373647012,37.6464231 C0.000373647012,37.9433705 0.239896114,38.1840728 0.536221344,38.1840728 L2.28574265,38.1840728 L2.285369,42.4623503 C2.285369,42.7592977 2.52489147,43 2.8212167,43 L35.4641523,43 C35.7601045,43 36,42.7592977 36,42.4623503 L36,0.537649731 C36,0.240702299 35.7604775,0 35.4641523,0 L2.8212167,0 C2.52526454,0 2.285369,0.240702299 2.285369,0.537649731 L2.285369,4.81631113 L0.535847697,4.81631113 C0.23989554,4.81631113 0,5.05701343 0,5.35396086 C0,5.6509083 0.239522466,5.8916106 0.535847697,5.8916106 L2.285369,5.8916106 L2.285369,11.2748266 L0.535847697,11.2748266 C0.23989554,11.2748266 0,11.5155289 0,11.8124763 C0,12.1094238 0.239522466,12.3501261 0.535847697,12.3501261 L2.285369,12.3501261 L2.285369,17.733726 L0.535847697,17.733726 C0.23989554,17.733726 0,17.9744283 0,18.2713757 C0,18.5683232 0.239522466,18.8090255 0.535847697,18.8090255 L2.285369,18.8090255 L2.285369,24.1922415 L0.535847697,24.1922415 C0.23989554,24.1922415 0,24.4329438 0,24.7298912 C0,25.0268386 0.239522466,25.2675409 0.535847697,25.2675409 L2.285369,25.2675409 L2.285369,30.6511409 L0.535847697,30.6511409 C0.23989554,30.6511409 0,30.8918432 0,31.1887906 C0,31.485738 0.239522466,31.7264403 0.535847697,31.7264403 L2.285369,31.7264403 L2.285369,37.1096564 L0.536221344,37.1087733 Z M3.35703627,31.7255573 L5.10694021,31.7255573 C5.40289237,31.7255573 5.64278791,31.484855 5.64278791,31.1879076 C5.64278791,30.8909602 5.40326544,30.6502579 5.10694021,30.6502579 L3.35703627,30.6502579 L3.35703627,25.2666579 L5.10694021,25.2666579 C5.40289237,25.2666579 5.64278791,25.0259556 5.64278791,24.7290082 C5.64278791,24.4320608 5.40326544,24.1913585 5.10694021,24.1913585 L3.35703627,24.1913585 L3.35703627,18.8081424 L5.10694021,18.8081424 C5.40289237,18.8081424 5.64278791,18.5674401 5.64278791,18.2704927 C5.64278791,17.9735453 5.40326544,17.732843 5.10694021,17.732843 L3.35703627,17.732843 L3.35703627,12.349627 L5.10694021,12.349627 C5.40289237,12.349627 5.64278791,12.1089247 5.64278791,11.8119772 C5.64278791,11.5150298 5.40326544,11.2743275 5.10694021,11.2743275 L3.35703627,11.2743275 L3.35703627,5.89111149 L5.10694021,5.89111149 C5.40289237,5.89111149 5.64278791,5.65040919 5.64278791,5.35346176 C5.64278791,5.05651433 5.40326544,4.81581203 5.10694021,4.81581203 L3.35703627,4.81581203 L3.35703627,1.0751267 L34.9285826,1.0751267 L34.9285826,41.9248349 L3.35703627,41.9248349 L3.35703627,38.1837657 L5.10694021,38.1837657 C5.40289237,38.1837657 5.64278791,37.9430634 5.64278791,37.6461159 C5.64278791,37.3491685 5.40326544,37.1084662 5.10694021,37.1084662 L3.35703627,37.1084662 L3.35703627,31.7255573 Z" id="Shape"></path>
            </g>
        </g>
    </g>
</svg>