<?xml version="1.0" encoding="UTF-8"?>
<svg width="42px" height="42px" viewBox="0 0 42 42" version="1.1" xmlns="http://www.w3.org/2000/svg" xmlns:xlink="http://www.w3.org/1999/xlink">
    <title>noun-goals-2022617</title>
    <g id="All-Apps" stroke="none" stroke-width="1" fill="none" fill-rule="evenodd">
        <g id="All-Apps---1" transform="translate(-1073.000000, -302.000000)" fill="#FFFFFF" fill-rule="nonzero">
            <g id="Group-5" transform="translate(1058.000000, 287.000000)">
                <g id="noun-goals-2022617" transform="translate(15.000000, 15.000000)">
                    <path d="M28.4118807,12.7149209 L28.4118807,5.55887603 C28.4118807,5.21785877 28.6884404,4.94129647 29.0294543,4.94129647 C29.3704683,4.94129647 29.6470279,5.21785877 29.6470279,5.55887603 L29.6470279,11.4794468 L30.8824901,10.2442727 L30.8824901,3.08822779 C30.8824901,2.74721054 31.1590498,2.47064824 31.5000637,2.47064824 C31.8410777,2.47064824 32.1176374,2.74721054 32.1176374,3.08822779 L32.1176374,9.00879857 L33.3530996,7.77362445 L33.3530996,0.617579559 C33.3530996,0.276562302 33.6296592,0 33.9706732,0 C34.3116871,0 34.5882468,0.276562302 34.5882468,0.617579559 L34.5882468,7.41182471 L41.3824264,7.41182471 C41.7234404,7.41182471 42,7.68838701 42,8.02940426 C42,8.37042152 41.7234404,8.64698382 41.3824264,8.64698382 L34.2264505,8.64698382 L32.9912883,9.88245794 L38.911802,9.88245794 C39.252816,9.88245794 39.5293756,10.1590202 39.5293756,10.5000375 C39.5293756,10.8410548 39.252816,11.1176171 38.911802,11.1176171 L31.7558261,11.1176171 L30.5206639,12.3530912 L36.4411776,12.3530912 C36.7821915,12.3530912 37.0587512,12.6296535 37.0587512,12.9706707 C37.0587512,13.311688 36.7821915,13.5882503 36.4411776,13.5882503 L29.2852017,13.5882503 L17.7308214,25.142742 C17.6192,25.254657 17.4648066,25.3237994 17.2943034,25.3237994 C16.9529969,25.3237994 16.6764373,25.0472371 16.6764373,24.7059274 C16.6764373,24.5354225 16.7455776,24.3810276 16.8574929,24.2694052 L28.4118807,12.7149209 Z M22.8487384,16.5311432 L21.9572226,17.4226676 C20.6116615,16.5595682 19.0114781,16.0588685 17.2943709,16.0588685 C12.5187203,16.0588685 8.64696044,19.9304408 8.64696044,24.7056124 C8.64696044,29.4813089 12.5184953,33.3531062 17.2943709,33.3531062 C22.0697214,33.3531062 25.9410313,29.4815339 25.9410313,24.7056124 C25.9410313,22.9884886 25.4403515,21.3883647 24.5772454,20.0427157 L25.4687612,19.1511913 C26.5462751,20.7340652 27.1761935,22.6463388 27.1761935,24.7056124 C27.1761935,30.1635835 22.7518394,34.5883553 17.2942959,34.5883553 C11.8363774,34.5883553 7.41164824,30.1639585 7.41164824,24.7056124 C7.41164824,19.2478663 11.8360024,14.8236194 17.2942959,14.8236194 C19.3535496,14.8236194 21.2657297,15.453499 22.8486634,16.5310682 L22.8487384,16.5311432 Z M18.2541359,21.1254899 L17.1397225,22.2402141 C15.8471859,22.3199016 14.8238215,23.3933383 14.8238215,24.7058374 C14.8238215,26.0704614 15.92976,27.1764106 17.2943709,27.1764106 C18.6068573,27.1764106 19.6802462,26.1530363 19.7599703,24.8604872 L20.8746838,23.746063 C20.956418,24.0522128 21.000075,24.3738951 21.000075,24.7058374 C21.000075,26.7525109 19.3410172,28.4118847 17.2943634,28.4118847 C15.2477096,28.4118847 13.5883518,26.7525109 13.5883518,24.7058374 C13.5883518,22.6591638 15.2477096,21.00009 17.2943634,21.00009 C17.6262949,21.00009 17.9479666,21.0437422 18.2541284,21.1254824 L18.2541359,21.1254899 Z M27.1760435,10.5114975 L27.1760435,12.0466714 C24.4511718,9.91652292 21.0208573,8.64677382 17.2941459,8.64677382 C8.42548774,8.64677382 1.23531221,15.8364937 1.23531221,24.7057624 C1.23531221,33.575031 8.42526274,40.7647509 17.2941459,40.7647509 C26.163029,40.7647509 33.3529796,33.574731 33.3529796,24.7057624 C33.3529796,20.97894 32.0832427,17.5485175 29.9531148,14.8237694 L31.4882739,14.8237694 C33.4423786,17.6248674 34.5881418,21.03174 34.5881418,24.7057624 C34.5881418,34.2570055 26.845222,42 17.2940709,42 C7.74291981,42 0,34.2570055 0,24.7057624 C0,15.1545192 7.74291981,7.41152471 17.2940709,7.41152471 C20.9681328,7.41152471 24.3750475,8.55729889 27.1759685,10.5114225 L27.1760435,10.5114975 Z" id="Shape"></path>
                </g>
            </g>
        </g>
    </g>
</svg>