<?xml version="1.0" encoding="UTF-8"?>
<svg width="42px" height="51px" viewBox="0 0 42 51" version="1.1" xmlns="http://www.w3.org/2000/svg" xmlns:xlink="http://www.w3.org/1999/xlink">
    <title>noun-health-4304018</title>
    <g id="All-Apps" stroke="none" stroke-width="1" fill="none" fill-rule="evenodd">
        <g id="All-Apps---1" transform="translate(-1073.000000, -593.000000)" fill="#FFFFFF" fill-rule="nonzero">
            <g id="Group-7" transform="translate(1058.000000, 582.000000)">
                <g id="noun-health-4304018" transform="translate(15.000000, 11.000000)">
                    <path d="M15.6666751,0 C11.9906705,0 9,2.99066667 9,6.66666667 L9,12.5 C9,14.5651429 9.86383919,16.5595238 11.3698125,17.9720952 C12.7753381,19.2898095 14.5781976,20 16.4929619,20 C16.6588859,20 16.8262957,19.9947916 16.9937054,19.9840029 C20.9226628,19.7317743 24,16.34486 24,12.2734314 L24,6.66666952 C24,2.99066952 21.0093295,0 17.3333249,0 L15.6666751,0 Z M22.3333503,12.2733333 C22.3333503,15.4682857 19.941252,18.1248571 16.8872481,18.3205714 C15.2451508,18.4266 13.6971488,17.8700476 12.5096235,16.7561905 C11.3213363,15.641619 10.6665735,14.1300952 10.6665735,12.4999048 L10.6665735,10.8246667 C10.761068,10.8216905 10.8589071,10.8146219 10.9552596,10.8097857 C11.0266883,10.8060655 11.0955169,10.8038333 11.1676885,10.7989971 C11.3823459,10.7841162 11.5988604,10.7636552 11.8146417,10.7320333 C11.8261741,10.7301732 11.837335,10.727197 11.8492398,10.725337 C12.0493924,10.6948312 12.2476784,10.6542808 12.4422501,10.6040608 C12.5080987,10.5869474 12.5706026,10.5638817 12.6353265,10.5441646 C12.7752124,10.5017541 12.9121078,10.4545065 13.044927,10.397955 C13.1167281,10.3674493 13.1851844,10.3328512 13.2543749,10.2978789 C13.3756513,10.2368674 13.4909848,10.1680408 13.6025849,10.0921455 C13.6673174,10.0482465 13.7309374,10.003976 13.791947,9.95486933 C13.9031853,9.86483981 14.0040044,9.76104076 14.1010998,9.65166933 C14.1476027,9.5992141 14.1978237,9.55270743 14.2406047,9.49579314 C14.3723002,9.32019314 14.4902336,9.12711695 14.5828719,8.90204076 C14.6959672,8.62711695 14.9452247,8.33321219 15.3045966,8.33321219 L17.695552,8.33321219 C18.0549239,8.33321219 18.3038099,8.62710743 18.4169053,8.90166933 C18.5095397,9.1263741 18.6274675,9.31982171 18.7591724,9.49542171 C18.8019553,9.55234171 18.8521782,9.59921219 18.8986773,9.6512979 C18.9957727,9.76066933 19.0965919,9.86484076 19.2078301,9.9544979 C19.2688416,10.0036046 19.3324588,10.047876 19.3971923,10.0917741 C19.5088019,10.1676674 19.6241259,10.2364884 19.7454022,10.2975074 C19.8145985,10.3324779 19.8834214,10.3674484 19.9552215,10.3975836 C20.0880312,10.4537589 20.2249362,10.5010027 20.3648221,10.5437931 C20.4295545,10.5635103 20.4920508,10.586576 20.5578985,10.6036893 C20.7539559,10.6542846 20.9533561,10.6955789 21.1549945,10.7257084 C21.1650393,10.7271965 21.1747117,10.7298006 21.1847564,10.7312888 C21.4008996,10.7629107 21.6177951,10.7833716 21.8324525,10.798625 C21.904625,10.8038332 21.9734527,10.8060654 22.0448813,10.8094135 C22.1412338,10.8142498 22.2390816,10.8213183 22.3335674,10.8242945 L22.3333503,12.2733333 Z M22.3333566,6.66657143 L22.3333566,9.14980952 C22.2533654,9.14683333 22.1744929,9.14311305 22.0982262,9.13864857 C22.0368423,9.13492838 21.973226,9.13232419 21.9140735,9.12823143 C21.7492638,9.11595429 21.5922731,9.1007019 21.4468158,9.08098476 C21.4345386,9.07912467 21.4241224,9.07652057 21.4118453,9.07466038 C21.2797785,9.05568705 21.156264,9.03262133 21.0405686,9.00583562 C20.9981581,8.99616324 20.9609552,8.98351371 20.920778,8.97272514 C20.8400484,8.95077562 20.7622921,8.9269661 20.6908634,8.90018038 C20.6506843,8.88492705 20.6134824,8.8681861 20.5759109,8.85144514 C20.512667,8.82279943 20.4538917,8.79154895 20.398825,8.75806705 C20.3664592,8.7383499 20.3344649,8.71826038 20.3050744,8.69668324 C20.2518752,8.65762038 20.2057409,8.61409371 20.1625885,8.56833086 C20.1417551,8.54675371 20.1183179,8.52666419 20.099716,8.50359848 C20.0427959,8.43179752 19.9936873,8.35478895 19.957973,8.26736038 C19.5517248,7.28002705 18.6845428,6.66650324 17.6953034,6.66650324 L15.304348,6.66650324 C14.3151087,6.66650324 13.4479647,7.2799699 13.0416785,8.2676461 C13.0059641,8.35469943 12.9568574,8.43208419 12.8999354,8.50351276 C12.8813345,8.5269499 12.8578963,8.546668 12.837063,8.56861657 C12.7939086,8.61400324 12.7474048,8.6575299 12.6945771,8.69659752 C12.6651875,8.71817467 12.6328208,8.73826419 12.600455,8.75798133 C12.5457674,8.79146324 12.4869882,8.82271371 12.4237405,8.85098705 C12.3861662,8.867728 12.3485919,8.88484133 12.3084166,8.90009371 C12.2373603,8.92687943 12.1599783,8.95031657 12.0799972,8.9722661 C12.0394467,8.98342705 12.0015,8.99570324 11.9587209,9.005748 C11.8448827,9.03216133 11.7232254,9.05485467 11.5930252,9.07345657 C11.577028,9.07568867 11.5632633,9.07903686 11.5472661,9.08126905 C11.4032945,9.10098619 11.248161,9.11586714 11.0855798,9.12814429 C11.0267997,9.13260857 10.9628082,9.13521276 10.9014272,9.13856143 C10.8251623,9.14302571 10.7462936,9.1463739 10.6663031,9.14972238 L10.6666751,6.66648429 C10.6666751,3.90943667 12.9096303,1.66648429 15.6666814,1.66648429 L17.3333502,1.66648429 C20.0904013,1.66648429 22.3333566,3.90943667 22.3333566,6.66648429 L22.3333566,6.66657143 Z" id="Shape"></path>
                    <path d="M41.1425633,34.1250723 L32.3936327,34.1250723 C31.42896,28.3039272 26.3557224,24 20.2711837,24 L12.2997551,24 C5.51764898,24 0,29.4316674 0,36.1076579 L0,45.0937078 C0,45.559654 0.383804082,45.9374638 0.857142857,45.9374638 L19.7142857,45.9374638 L19.7142857,50.156244 C19.7142857,50.6221902 20.0980898,51 20.5714286,51 L41.1428571,51 C41.6161959,51 42,50.6221902 42,50.156244 L42,34.9686355 C42,34.5026893 41.6161959,34.1248795 41.1428571,34.1248795 L41.1425633,34.1250723 Z M8.57113469,44.2501446 L8.57113469,40.8751205 C8.57113469,40.4091744 8.18733061,40.0313645 7.71399184,40.0313645 C7.24065306,40.0313645 6.85684898,40.4091744 6.85684898,40.8751205 L6.85684898,44.2501446 L1.71399184,44.2501446 L1.71399184,36.1078508 C1.71399184,30.3620169 6.46275918,25.6877049 12.2994612,25.6877049 L20.2708898,25.6877049 C25.4129633,25.6877049 29.7255184,29.2544304 30.6653388,34.1252652 L20.5716245,34.1252652 C20.0982857,34.1252652 19.7144816,34.503075 19.7144816,34.9690212 L19.7144816,44.2503375 L8.57113469,44.2501446 Z M40.2854204,49.3126808 L21.4282776,49.3126808 L21.4282776,35.8125844 L40.2854204,35.8125844 L40.2854204,49.3126808 Z" id="Shape"></path>
                    <path d="M34.8,40.8 L35.2,40.8 L35.2,41.2 C35.2,41.6417829 35.5582171,42 36,42 C36.4417829,42 36.8,41.6417829 36.8,41.2 L36.8,40.8 L37.2,40.8 C37.6417829,40.8 38,40.4417829 38,40 C38,39.5582171 37.6417829,39.2 37.2,39.2 L36.8,39.2 L36.8,38.8 C36.8,38.3582171 36.4417829,38 36,38 C35.5582171,38 35.2,38.3582171 35.2,38.8 L35.2,39.2 L34.8,39.2 C34.3582171,39.2 34,39.5582171 34,40 C34,40.4417829 34.3582171,40.8 34.8,40.8 Z" id="Path"></path>
                    <path d="M24,43 C24,43.5522286 24.3663584,44 24.8181818,44 L32.1818182,44 C32.6336416,44 33,43.5522286 33,43 C33,42.4477714 32.6336416,42 32.1818182,42 L24.8181818,42 C24.3663584,42 24,42.4477714 24,43 Z" id="Path"></path>
                    <path d="M36.1333333,46 L24.8666667,46 C24.3880686,46 24,46.4477714 24,47 C24,47.5522286 24.3880686,48 24.8666667,48 L36.1333333,48 C36.6119314,48 37,47.5522286 37,47 C37,46.4477714 36.6119314,46 36.1333333,46 Z" id="Path"></path>
                </g>
            </g>
        </g>
    </g>
</svg>