<?xml version="1.0" encoding="UTF-8"?>
<svg width="43px" height="41px" viewBox="0 0 43 41" version="1.1" xmlns="http://www.w3.org/2000/svg" xmlns:xlink="http://www.w3.org/1999/xlink">
    <title>noun-tariff-4935084</title>
    <g id="All-Apps" stroke="none" stroke-width="1" fill="none" fill-rule="evenodd">
        <g id="All-Apps---1" transform="translate(-282.000000, -302.000000)" fill="#FFFFFF" fill-rule="nonzero">
            <g id="noun-tariff-4935084" transform="translate(282.000000, 302.000000)">
                <path d="M42.1578466,9.82237976 C41.692812,9.82237976 41.3157414,10.2048512 41.3157414,10.6765464 L41.3157414,36.7291179 C41.3157414,37.4086343 41.0495783,38.0607393 40.5758917,38.5411226 C40.1022051,39.021506 39.4593083,39.291569 38.7894737,39.291569 L15.2105263,39.291569 C14.5406051,39.291569 13.8977083,39.0215938 13.4241083,38.5411226 C12.9505083,38.0606514 12.6842586,37.4085464 12.6842586,36.7291179 L12.6842586,4.27078452 C12.6842586,3.5912681 12.9504217,2.9391631 13.4241083,2.45877976 C13.8977949,1.97839643 14.5406917,1.70833333 15.2105263,1.70833333 L32.4741654,1.70833333 C32.9392,1.70833333 33.3162707,1.3258619 33.3162707,0.854166667 C33.3162707,0.382471429 32.9392,0 32.4741654,0 L15.2105263,0 C14.0939429,0 13.0229774,0.449965238 12.2330346,1.25069524 C11.4435633,2.05185476 11,3.13825714 11,4.27083333 L11,36.7291667 C11,37.8617429 11.4436114,38.9480476 12.2330346,39.7493048 C13.0228812,40.5500836 14.0939429,41 15.2105263,41 L38.7894737,41 C39.9060571,41 40.9770226,40.5500348 41.7669654,39.7493048 C42.5564367,38.9481452 43,37.8617429 43,36.7291667 L43,10.6765952 C43,10.4500898 42.9112777,10.2327312 42.7533835,10.0725774 C42.5954892,9.91242357 42.3812018,9.82242857 42.1578947,9.82242857 L42.1578466,9.82237976 Z" id="Path"></path>
                <path d="M4.5,12.6875 L8.1,12.6875 C8.59700571,12.6875 9,12.3096929 9,11.84375 C9,11.3778071 8.59700571,11 8.1,11 L4.5,11 C3.30665143,11 2.16205714,11.4444779 1.31780571,12.2354429 C0.474058286,13.0268321 0,14.0999857 0,15.21875 L0,33.78125 C0,34.9000143 0.474109714,35.9730714 1.31780571,36.7645571 C2.16195429,37.5555704 3.30665143,38 4.5,38 L8.1,38 C8.59700571,38 9,37.6221929 9,37.15625 C9,36.6903071 8.59700571,36.3125 8.1,36.3125 L4.5,36.3125 C3.78402171,36.3125 3.09692571,36.0458171 2.59076571,35.5712054 C2.08460571,35.0965936 1.80005143,34.4524411 1.80005143,33.7812982 L1.80005143,15.2187982 C1.80005143,14.5475686 2.08451314,13.9034161 2.59076571,13.4288911 C3.09701829,12.9543661 3.78411429,12.6875964 4.5,12.6875964 L4.5,12.6875 Z" id="Path"></path>
                <path d="M36.8631346,5.07745714 L36.3196953,7.33421497 C36.267977,7.54312783 36.3439631,7.76359295 36.5118479,7.89116445 C36.6797306,8.01832375 36.905309,8.02700115 37.0815533,7.91222062 L38.9708958,6.67730312 L40.8733764,7.91179784 L40.8733764,7.91221068 C41.0500179,8.03358857 41.2803627,8.02864214 41.4518304,7.90023777 C41.623298,7.77141909 41.7000796,7.54599698 41.6443801,7.33419869 L41.1096894,5.07744087 L42.8295604,3.57913631 C42.9807404,3.43876538 43.0376315,3.21912467 42.9747722,3.01887864 C42.9123122,2.81905537 42.7416369,2.67578845 42.5399413,2.6543222 L40.3120632,2.49248501 L39.474218,0.333176175 L39.4746158,0.333176175 C39.3978332,0.132116302 39.210448,0 39.0019899,0 C38.7939189,0 38.6065428,0.132116302 38.5297613,0.333176175 L37.6875469,2.49248501 L35.4596688,2.6543222 C35.257963,2.67579057 35.0876971,2.81905537 35.0252351,3.01887864 C34.9623768,3.2191141 35.0192676,3.43876538 35.1700497,3.57913631 L36.8631346,5.07745714 Z" id="Path"></path>
                <path d="M26.53214,33 C26.751594,33 26.962186,32.9113101 27.117354,32.7539014 C27.272522,32.5964927 27.3597154,32.3828643 27.3597154,32.160244 L27.3597154,29.1758859 C27.8924658,29.0863129 28.4134316,28.9341534 28.9113956,28.7223939 C29.7589179,28.3854651 30.4956113,27.8127908 31.0372712,27.0703232 C31.5788933,26.3278747 31.903265,25.4455966 31.9734623,24.5248159 C32.3170527,20.9860897 29.2550427,19.8317797 26.7970965,18.9083125 C24.264905,17.955611 22.7338432,17.2292813 22.7914425,15.4580473 C22.801048,14.9292292 22.955851,14.4134979 23.2377468,13.9689864 C23.5200115,13.5241199 23.9182786,13.1676952 24.3885968,12.9395004 C25.9942822,12.0707505 28.2782011,12.2510209 30.0781539,13.3884926 L30.0781539,13.3888673 C30.4420695,13.5260394 30.8510526,13.3881178 31.0615972,13.0575609 C31.272558,12.7270028 31.2282189,12.2918747 30.9555635,12.0119562 C29.869028,11.3197348 28.6372175,10.8969835 27.3596302,10.7778203 L27.3596302,7.83951561 C27.3596302,7.37591111 26.9890656,7 26.5320548,7 C26.0750441,7 25.7044795,7.37591111 25.7044795,7.83951561 L25.7044795,10.8157184 C24.9729596,10.9105386 24.2643091,11.1365381 23.610761,11.4832053 C22.8847835,11.8497426 22.2703726,12.4089175 21.8333182,13.1015035 C21.3962544,13.7941087 21.1524176,14.5943062 21.1280349,15.416168 C21.0286501,18.5433876 23.78441,19.5799735 26.2095369,20.4952854 C28.8910703,21.5027042 30.5255081,22.2331307 30.3185669,24.3739435 L30.3181975,24.3739435 C30.2764489,24.9938322 30.0588401,25.5882189 29.6919736,26.0859797 C29.3247382,26.5833183 28.8237571,26.9625971 28.2492496,27.1781175 C26.2671356,28.0386258 23.569429,27.5978753 22.3901104,26.640674 C22.2197907,26.4806384 21.9910961,26.4004382 21.7594507,26.4199246 C21.5281741,26.4394129 21.315369,26.5563483 21.1734989,26.7426152 C21.03126,26.928508 20.9725163,27.1668728 21.0120508,27.3988574 C21.0515824,27.6308515 21.1849526,27.8354822 21.3803928,27.9629063 C22.4481069,28.8024219 24.0700601,29.2809938 25.7044978,29.3061313 L25.7044978,32.1604844 C25.7044978,32.3831047 25.7916893,32.5967351 25.9468592,32.7541419 C26.1020291,32.9115486 26.3126191,33 26.5320732,33 L26.53214,33 Z" id="Path"></path>
            </g>
        </g>
    </g>
</svg>