<?xml version="1.0" encoding="UTF-8"?>
<svg width="40px" height="42px" viewBox="0 0 40 42" version="1.1" xmlns="http://www.w3.org/2000/svg" xmlns:xlink="http://www.w3.org/1999/xlink">
    <title>noun-tasks-5048752</title>
    <g id="All-Apps" stroke="none" stroke-width="1" fill="none" fill-rule="evenodd">
        <g id="All-Apps---1" transform="translate(-679.000000, -302.000000)" fill="#FFFFFF" fill-rule="nonzero">
            <g id="Group-4" transform="translate(663.000000, 287.000000)">
                <g id="noun-tasks-5048752" transform="translate(16.000000, 15.000000)">
                    <path d="M17,3.00020632 C17,3.5523931 16.5523825,4 16.0002063,4 C15.4476069,4 15,3.55238251 15,3.00020632 C15,2.4476069 15.4476175,2 16.0002063,2 C16.5523931,2 17,2.44761749 17,3.00020632" id="Path"></path>
                    <polygon id="Path" points="5 19 26 19 26 20 5 20"></polygon>
                    <polygon id="Path" points="5 13 26 13 26 14 5 14"></polygon>
                    <path d="M30.9985862,21 C26.0361298,21 22,25.037655 22,30 C22,34.962345 26.0362308,39 30.9985862,39 C35.9637692,39 40,34.962345 40,30 C40,25.037655 35.9637692,21 30.9985862,21 Z M30.9985862,37.5862553 C26.8180492,37.5862553 23.4137765,34.1832707 23.4137765,30 C23.4137765,25.8167293 26.8180492,22.4137447 30.9985862,22.4137447 C35.1819508,22.4137447 38.5862235,25.8167293 38.5862235,30 C38.5862235,34.1836746 35.1819508,37.5862553 30.9985862,37.5862553 Z" id="Shape"></path>
                    <path d="M34.7354698,27.3034236 L30.7193487,33.1977862 L27.1760329,29.6690337 C26.9055542,29.3978298 26.4659829,29.4010022 26.1955141,29.6832861 C25.9304539,29.9643823 25.9347134,30.412561 26.2094437,30.6865319 L30.3381941,34.7984772 C30.4685945,34.9275418 30.6419465,35 30.8207171,35 C30.8427734,35 30.866377,34.9984163 30.8888197,34.9972286 C31.0900269,34.9774331 31.2730569,34.868164 31.3895297,34.6979191 L35.8745929,28.1181985 C36.0936009,27.7959221 36.0189208,27.3548787 35.7039451,27.1307843 C35.3858788,26.9015512 34.9544303,26.9827157 34.7354223,27.3034009 L34.7354698,27.3034236 Z" id="Path"></path>
                    <path d="M6,36 L24,36 C23.6561713,35.6861071 23.3417484,35.3529571 23.0741072,35 L6,35 L6,36 Z" id="Path"></path>
                    <path d="M6,29 L6,30 L22,30 C21.9831988,29.8339857 21.9648352,29.6690857 21.9648352,29.5 C21.9648352,29.3309143 21.9843711,29.1660143 22,29 L6,29 Z" id="Path"></path>
                    <path d="M6,24 L6,25 L23.0741072,25 C23.3417385,24.6470429 23.6561713,24.3138929 24,24 L6,24 Z" id="Path"></path>
                    <path d="M29.6331386,40.146924 C29.5703123,40.42856 29.3317255,40.6455403 29.0340462,40.6455403 L1.9668045,40.6455403 C1.62088414,40.6455403 1.3407818,40.3623946 1.3407818,40.0127158 L1.3407818,6.89228084 C1.3407818,6.54260206 1.62088414,6.25832413 1.9668045,6.25832413 L8.21238408,6.25832413 L7.45099166,9.14155555 C7.39601853,9.34493886 7.44014676,9.56306108 7.5661708,9.72938907 C7.6948199,9.89610417 7.89039754,9.99363448 8.09683157,9.99363448 L22.9032532,9.99363448 C23.1096777,9.99363448 23.3067584,9.89610417 23.433914,9.72938907 C23.55994,9.56267398 23.6040644,9.34607114 23.5490932,9.14155555 L22.7903143,6.25832413 L29.033309,6.25832413 C29.3792294,6.25832413 29.6593317,6.54297948 29.6593317,6.89228084 L29.6593317,20.2569725 C29.8818397,20.2422297 30.1043477,20.2229501 30.3294789,20.2229501 C30.5572236,20.2229501 30.777118,20.2418513 30.999626,20.2569725 L31,6.89228084 C31,5.79484708 30.1181917,4.90344827 29.0336926,4.90344827 L22.4313076,4.90344827 L22.0199426,3.3413955 C21.9410356,3.04464321 21.6740222,2.83861793 21.3711157,2.83861793 L18.7921982,2.83861793 C18.5390262,1.23166134 17.1598156,0 15.4993825,0 C13.8385665,0 12.4568189,1.23166134 12.2062796,2.83823082 L9.62736208,2.83823082 C9.32295254,2.83823082 9.05632015,3.04425611 8.98152216,3.3410084 L8.56754357,4.90306117 L1.96630735,4.90306117 C0.8822008,4.90306117 0,5.7944503 0,6.89189374 L0,40.0123287 C0,41.1082141 0.881808285,42 1.96630735,42 L29.033549,42 C30.0724685,42 30.9153221,41.1804279 30.9863577,40.1480079 C30.7690865,40.1627507 30.552179,40.1820303 30.329671,40.1820303 C30.0963162,40.1820303 29.8629614,40.1631291 29.6326031,40.1468737 L29.6331386,40.146924 Z M10.1443033,4.19290346 L12.8492085,4.19290346 C13.0328288,4.19290346 13.2029792,4.06285659 13.3275116,3.92752578 C13.4561607,3.79219497 13.5137455,3.55781447 13.5058952,3.37068943 C13.5058952,2.25854579 14.4011735,1.35311455 15.500253,1.35311455 C16.5993326,1.35311455 17.4946108,2.25811998 17.4971957,3.3392374 C17.4945779,3.35284694 17.481115,3.46399066 17.481115,3.47759729 C17.4702701,3.66321263 17.5360881,3.84466662 17.6647353,3.98037486 C17.7907613,4.11570567 17.9661483,4.19169376 18.1512621,4.19169376 L20.8587522,4.19169376 L22.0315096,8.63697795 L8.96842777,8.63697795 L10.1443033,4.19290346 Z" id="Shape"></path>
                </g>
            </g>
        </g>
    </g>
</svg>