<?xml version="1.0" encoding="UTF-8"?>
<svg width="42px" height="42px" viewBox="0 0 42 42" version="1.1" xmlns="http://www.w3.org/2000/svg" xmlns:xlink="http://www.w3.org/1999/xlink">
    <title>noun-video-play-5660202</title>
    <g id="All-Apps" stroke="none" stroke-width="1" fill="none" fill-rule="evenodd">
        <g id="All-Apps---1" transform="translate(-678.462780, -597.000000)" fill="#FFFFFF" fill-rule="nonzero">
            <g id="Group-9" transform="translate(663.000000, 582.000000)">
                <g id="noun-video-play-5660202" transform="translate(15.462780, 15.000000)">
                    <path d="M21,0 C26.7989147,0 32.0498522,2.35040872 35.8489564,6.15104358 C39.6495913,9.95167844 42,15.2018506 42,21 C42,26.7989147 39.6495913,32.0498522 35.8489564,35.8489564 C32.0483216,39.6495913 26.7981494,42 21,42 C15.2010853,42 9.95014778,39.6495913 6.15104358,35.8489564 C2.35040872,32.0483216 4.35040434e-15,26.7981494 4.35040434e-15,21 C4.35040434e-15,15.2010853 2.35040872,9.95014778 6.15104358,6.15104358 C9.95167844,2.35040872 15.2018506,0 21,0 L21,0 Z M19.8068486,12.7075597 L27.9637488,18.534562 C28.3712265,18.8251506 28.6890226,19.1901753 28.9048766,19.6107708 C29.1234169,20.0349939 29.2367166,20.5043715 29.2367166,21.0006123 C29.2367166,21.496853 29.1222154,21.9674552 28.9048766,22.3904538 C28.6887318,22.8095951 28.3724357,23.1749183 27.9637488,23.4666625 L19.8068486,29.2936649 C19.3362924,29.6293927 18.8077087,29.8183377 18.2650889,29.8580967 C17.7251707,29.8966625 17.174798,29.7860476 16.660572,29.5211749 C16.1487567,29.2574953 15.7385774,28.8745312 15.454563,28.4090721 C15.1690562,27.9423961 15.014796,27.4022023 15.014796,26.8275916 L15.014796,15.1746584 C15.014796,14.600063 15.1690562,14.059877 15.454563,13.593178 C15.7373759,13.1277035 16.1475475,12.7444257 16.660572,12.4810752 C17.1747827,12.2162017 17.7251477,12.1043868 18.2650889,12.1441534 C18.8076934,12.1839147 19.3362465,12.3731558 19.8068486,12.7085852 L19.8068486,12.7075597 Z M26.8257778,20.1342573 L18.6688776,14.307255 C18.4990659,14.1864781 18.3128226,14.11831 18.127467,14.1039677 C17.9397236,14.089917 17.7456968,14.1308737 17.5603413,14.2247446 C17.3737918,14.3213065 17.2272997,14.4549409 17.1310364,14.6142829 C17.0359669,14.771237 16.9845443,14.9613759 16.9845443,15.1736329 L16.9845443,26.8265661 C16.9845443,27.0388231 17.0359654,27.228962 17.1310364,27.3859161 C17.2287921,27.545258 17.3740903,27.679191 17.5603413,27.7754544 C17.7453984,27.8705238 17.939716,27.9105813 18.127467,27.8962313 C18.3125241,27.8821806 18.4990736,27.8140194 18.6688776,27.692944 L26.8257778,21.8659417 C26.9737623,21.7619025 27.0855695,21.6333499 27.1588193,21.4892533 C27.2308684,21.350537 27.2682388,21.1846132 27.2682388,20.9992653 C27.2682388,20.8142082 27.2308692,20.648292 27.1588193,20.5092773 C27.0855749,20.3651807 26.9737623,20.2381204 26.8257778,20.1325889 L26.8257778,20.1342573 Z M34.4581965,7.54302801 C31.0135937,4.09964977 26.2561418,1.96927377 20.9998469,1.96927377 C15.7447766,1.96927377 10.9862532,4.09964977 7.54149735,7.54302801 C4.09811911,10.9876308 1.96774311,15.7450827 1.96774311,21.0013776 C1.96774311,26.2576724 4.09811911,31.0149713 7.54149735,34.4597272 C10.9861001,37.9031054 15.7443174,40.0334814 20.9998469,40.0334814 C26.2561418,40.0334814 31.0134407,37.9031054 34.4581965,34.4597272 C37.9015748,31.0151244 40.0319508,26.2576724 40.0319508,21.0013776 C40.0319508,15.7450827 37.9015748,10.9877839 34.4581965,7.54302801 Z" id="Shape"></path>
                </g>
            </g>
        </g>
    </g>
</svg>