<?xml version="1.0" encoding="UTF-8"?>
<svg width="33px" height="42px" viewBox="0 0 33 42" version="1.1" xmlns="http://www.w3.org/2000/svg" xmlns:xlink="http://www.w3.org/1999/xlink">
    <title>noun-workout-plan-5429980</title>
    <g id="All-Apps" stroke="none" stroke-width="1" fill="none" fill-rule="evenodd">
        <g id="All-Apps---2" transform="translate(-1078.000000, -302.000000)" fill="#FFFFFF" fill-rule="nonzero">
            <g id="noun-workout-plan-5429980" transform="translate(1078.000000, 302.000000)">
                <path d="M33,0.724137931 C33,0.324571034 32.6818692,0 32.2772758,0 L0.722724201,0 C0.318130804,0 0,0.324571034 0,0.724137931 L0,41.2758621 C0,41.675429 0.318130804,42 0.722724201,42 L32.2772758,42 C32.6818692,42 33,41.675429 33,41.2758621 L33,0.724137931 Z M31.5545516,1.44827586 L31.5545516,40.5517241 L1.4454484,40.5517241 L1.4454484,1.44827586 L31.5545516,1.44827586 Z M13.2262659,33.5404138 L19.7888494,33.5404138 L19.7888494,35.7086069 C19.7888494,36.1081738 20.1066581,36.4327448 20.5115736,36.4327448 L24.6888369,36.4327448 C25.078918,36.4327448 25.4115611,36.1081738 25.4115611,35.7086069 L25.4115611,26.3428138 C25.4115611,25.9429241 25.078918,25.6186759 24.6888369,25.6186759 L20.5115736,25.6186759 C20.1066581,25.6186759 19.7888494,25.9429241 19.7888494,26.3428138 L19.7888494,28.5106759 L13.2262659,28.5106759 L13.2262659,26.3428138 C13.2262659,25.9429241 12.8939449,25.6186759 12.5035417,25.6186759 L8.32627838,25.6186759 C7.92168498,25.6186759 7.60355418,25.9429241 7.60355418,26.3428138 L7.60355418,35.7086069 C7.60355418,36.1081738 7.92168498,36.4327448 8.32627838,36.4327448 L12.5035417,36.4327448 C12.8939449,36.4327448 13.2262659,36.1081738 13.2262659,35.7086069 L13.2262659,33.5404138 Z M21.2342978,34.984469 L21.2342978,27.0667862 L23.9661127,27.0667862 L23.9661127,34.984469 L21.2342978,34.984469 L21.2342978,34.984469 Z M11.7810653,27.0667862 L11.7810653,34.984469 L9.04925037,34.984469 L9.04925037,27.0667862 L11.7810653,27.0667862 Z M13.2265137,29.9587862 L13.2265137,32.0920552 L19.7890972,32.0920552 L19.7890972,29.9587862 L13.2265137,29.9587862 Z M5.8547268,19.7513379 L7.93642029,21.6269793 C8.21098941,21.8746097 8.63010337,21.8746097 8.90470553,21.6269793 L13.0677621,17.8760276 C13.3710502,17.6080303 13.4000831,17.1502759 13.1255156,16.8535448 C12.8651449,16.5551586 12.4027914,16.5305959 12.1137017,16.7985881 L8.42780832,20.1150571 L6.823278,18.6738985 C6.51966776,18.407515 6.0573225,18.4320861 5.79692704,18.7288552 C5.53687848,19.0259421 5.55139078,19.4849959 5.85468055,19.7513379 L5.8547268,19.7513379 Z M16.6955898,19.9368993 L26.6691838,19.9368993 C27.0740993,19.9368993 27.391908,19.6123283 27.391908,19.2127614 C27.391908,18.8128717 27.0740993,18.4886234 26.6691838,18.4886234 L16.6955898,18.4886234 C16.2909964,18.4886234 15.9728656,18.8128717 15.9728656,19.2127614 C15.9728656,19.6123283 16.2909964,19.9368993 16.6955898,19.9368993 Z M5.8547268,14.3477959 L7.93642029,16.2234372 C8.21098941,16.4710676 8.63010337,16.4710676 8.90470553,16.2234372 L13.0677621,12.4724855 C13.3710502,12.2057793 13.4000831,11.7467338 13.1255156,11.4500028 C12.8651449,11.1529159 12.4027914,11.1283448 12.1137017,11.3950461 L8.42780832,14.711515 L6.823278,13.2703564 C6.51966776,13.003973 6.0573225,13.028544 5.79692704,13.3253131 C5.53687848,13.6236993 5.55139078,14.0814538 5.85468055,14.3477959 L5.8547268,14.3477959 Z M16.6955898,14.5333572 L26.6691838,14.5333572 C27.0740993,14.5333572 27.391908,14.2087862 27.391908,13.8092193 C27.391908,13.4093297 27.0740993,13.0850814 26.6691838,13.0850814 L16.6955898,13.0850814 C16.2909964,13.0850814 15.9728656,13.4093297 15.9728656,13.8092193 C15.9728656,14.2087862 16.2909964,14.5333572 16.6955898,14.5333572 Z M5.8547268,8.94582621 L7.93642029,10.8214676 C8.21098941,11.0690979 8.63010337,11.0690979 8.90470553,10.8214676 L13.0677621,7.07018483 C13.3710502,6.80251034 13.4000831,6.34475586 13.1255156,6.04637793 C12.8651449,5.74961379 12.4027914,5.72472 12.1137017,5.99271393 L8.42780832,9.3091829 L6.823278,7.86835531 C6.51966776,7.60035807 6.0573225,7.6249291 5.79692704,7.923312 C5.53687848,8.22007614 5.55139078,8.6778389 5.85468055,8.94579476 L5.8547268,8.94582621 Z M16.6955898,9.13106483 L26.6691838,9.13106483 C27.0740993,9.13106483 27.391908,8.80681655 27.391908,8.4069269 C27.391908,8.00736 27.0740993,7.68278897 26.6691838,7.68278897 L16.6955898,7.68278897 C16.2909964,7.68278897 15.9728656,8.00736 15.9728656,8.4069269 C15.9728656,8.80681655 16.2909964,9.13106483 16.6955898,9.13106483 Z" id="Shape"></path>
            </g>
        </g>
    </g>
</svg>