<svg width="48" height="48" viewBox="0 0 48 48" fill="none" xmlns="http://www.w3.org/2000/svg">
<path d="M21.192 21.0624V39.6261C21.192 40.8122 22.1536 41.7737 23.3396 41.7737H37.4306L43.8852 45.7788C44.4631 46.1373 45.2101 45.7217 45.2101 45.0416V21.0624C45.2101 19.8763 44.2487 18.9148 43.0626 18.9148H23.3396C22.1536 18.9148 21.192 19.8763 21.192 21.0624Z" fill="white"/>
<path d="M44.3424 46.5884C44.059 46.5884 43.7764 46.5106 43.5274 46.3567L37.2369 42.4528H23.3398C21.781 42.4528 20.5127 41.1845 20.5127 39.6262V21.0628C20.5127 19.5035 21.781 18.2352 23.3398 18.2352H43.0627C44.6215 18.2352 45.8893 19.5035 45.8893 21.0628V45.0415C45.8893 45.6023 45.5851 46.1205 45.0947 46.393C44.8607 46.5238 44.6011 46.5884 44.3424 46.5884ZM23.3398 19.5937C22.5301 19.5937 21.8712 20.2526 21.8712 21.0628V39.6262C21.8712 40.4354 22.5301 41.0943 23.3398 41.0943H37.4306C37.5571 41.0943 37.6813 41.1297 37.7888 41.196L44.2434 45.2016C44.3203 45.2503 44.3902 45.2299 44.434 45.206C44.4782 45.1813 44.5308 45.1335 44.5308 45.0415V21.0628C44.5308 20.2526 43.8724 19.5937 43.0627 19.5937H23.3398Z" fill="black"/>
<path d="M24.8961 25.0198V36.292C24.8961 36.8561 25.3534 37.3135 25.9175 37.3135H39.3678C39.932 37.3135 40.3893 36.8561 40.3893 36.292V25.0198C40.3893 24.4557 39.932 23.9983 39.3678 23.9983H25.9175C25.3534 23.9983 24.8961 24.4557 24.8961 25.0198Z" fill="#FFD364"/>
<path d="M39.3679 37.9926H25.9174C24.9795 37.9926 24.2167 37.2293 24.2167 36.2918V25.0197C24.2167 24.0822 24.9795 23.319 25.9174 23.319H39.3679C40.3059 23.319 41.0687 24.0822 41.0687 25.0197V36.2918C41.0687 37.2293 40.3059 37.9926 39.3679 37.9926ZM25.9174 24.6775C25.7286 24.6775 25.5752 24.8314 25.5752 25.0197V36.2918C25.5752 36.4802 25.7286 36.6341 25.9174 36.6341H39.3679C39.5567 36.6341 39.7102 36.4802 39.7102 36.2918V25.0197C39.7102 24.8314 39.5567 24.6775 39.3679 24.6775H25.9174Z" fill="black"/>
<path d="M32.5791 34.7307C32.2041 34.7307 31.8998 34.4265 31.8998 34.0515V29.3675C31.8998 28.9837 31.7521 28.6273 31.4841 28.3637C31.2082 28.0886 30.8474 27.9392 30.4635 27.9392C29.6715 27.9392 29.0272 28.5795 29.0272 29.3675V34.0515C29.0272 34.4265 28.7229 34.7307 28.3479 34.7307C27.9729 34.7307 27.6687 34.4265 27.6687 34.0515V29.3675C27.6687 27.8313 28.9224 26.5807 30.4635 26.5807C31.21 26.5807 31.9118 26.8708 32.4393 27.3988C32.966 27.9144 33.2583 28.6158 33.2583 29.3675V34.0515C33.2583 34.4265 32.9541 34.7307 32.5791 34.7307Z" fill="black"/>
<path d="M36.5767 34.491C36.2017 34.491 35.8975 34.1868 35.8975 33.8118V27.7004C35.8975 27.3254 36.2017 27.0211 36.5767 27.0211C36.9517 27.0211 37.256 27.3254 37.256 27.7004V33.8118C37.256 34.1868 36.9517 34.491 36.5767 34.491Z" fill="black"/>
<path d="M37.8432 28.3796H35.3102C34.9352 28.3796 34.631 28.0754 34.631 27.7004C34.631 27.3254 34.9352 27.0211 35.3102 27.0211H37.8432C38.2182 27.0211 38.5225 27.3254 38.5225 27.7004C38.5225 28.0754 38.2182 28.3796 37.8432 28.3796Z" fill="black"/>
<path d="M37.8432 34.4911H35.3102C34.9352 34.4911 34.631 34.1868 34.631 33.8118C34.631 33.4368 34.9352 33.1326 35.3102 33.1326H37.8432C38.2182 33.1326 38.5225 33.4368 38.5225 33.8118C38.5225 34.1868 38.2182 34.4911 37.8432 34.4911Z" fill="black"/>
<path d="M32.5791 31.7254H28.3479C27.9729 31.7254 27.6687 31.4212 27.6687 31.0462C27.6687 30.6712 27.9729 30.3669 28.3479 30.3669H32.5791C32.9541 30.3669 33.2583 30.6712 33.2583 31.0462C33.2583 31.4212 32.9541 31.7254 32.5791 31.7254Z" fill="black"/>
<path d="M28.3481 4.31319V23.5208C28.3481 24.7481 27.3249 25.7428 26.0628 25.7428H11.0683L4.19985 29.8869C3.58482 30.2579 2.78992 29.8278 2.78992 29.1241V4.31319C2.78992 3.08593 3.81304 2.09106 5.07517 2.09106H26.0628C27.3249 2.09106 28.3481 3.08593 28.3481 4.31319Z" fill="white"/>
<path d="M3.71331 30.7013C3.43825 30.7013 3.16319 30.6314 2.91555 30.4917C2.41143 30.2078 2.11072 29.6966 2.11072 29.1244V4.31333C2.11072 2.71339 3.44046 1.4115 5.07534 1.4115H26.063C27.6974 1.4115 29.0271 2.71339 29.0271 4.31333V23.5206C29.0271 25.1205 27.6974 26.4224 26.063 26.4224H11.2571L4.55043 30.4687C4.29394 30.6235 4.00385 30.7013 3.71331 30.7013ZM5.07534 2.76999C4.18958 2.76999 3.46921 3.4625 3.46921 4.31333V29.1244C3.46921 29.2234 3.53112 29.2791 3.5833 29.3092C3.62354 29.3322 3.731 29.3764 3.84863 29.3057L10.7176 25.1612C10.8233 25.0975 10.9444 25.0639 11.0683 25.0639H26.063C26.9483 25.0639 27.6686 24.3714 27.6686 23.5206V4.31333C27.6686 3.4625 26.9483 2.76999 26.063 2.76999H5.07534Z" fill="black"/>
<path d="M21.8143 18.2106C21.8143 21.5619 9.32385 21.5619 9.32385 18.2106C9.32385 14.8595 12.1225 12.1382 15.569 12.1382C19.0155 12.1382 21.8143 14.8595 21.8143 18.2106Z" fill="#986DE7"/>
<path d="M15.5688 21.4033C13.8569 21.4033 12.2508 21.1663 11.0467 20.7347C9.0611 20.0245 8.64453 18.9702 8.64453 18.2105C8.64453 14.4879 11.7511 11.4587 15.5692 11.4587C19.3873 11.4587 22.4934 14.4879 22.4934 18.2105C22.4934 20.5666 18.7633 21.4033 15.5688 21.4033ZM15.5692 12.8172C12.4998 12.8172 10.003 15.237 10.003 18.2105C10.003 19.2214 12.4998 20.0448 15.5688 20.0448C18.6382 20.0448 21.1349 19.2214 21.1349 18.2105C21.1349 15.237 18.6382 12.8172 15.5692 12.8172Z" fill="black"/>
<path d="M19.5491 9.54713C19.5491 11.6849 17.7677 14.4744 15.569 14.4744C13.3704 14.4744 11.5891 11.6849 11.5891 9.54713C11.5891 7.40923 13.3704 5.67725 15.569 5.67725C17.7677 5.67725 19.5491 7.40923 19.5491 9.54713Z" fill="white"/>
<path d="M15.5692 15.1539C12.9885 15.1539 10.91 12.0867 10.91 9.54745C10.91 7.0392 13 4.99792 15.5692 4.99792C18.1385 4.99792 20.2284 7.0392 20.2284 9.54745C20.2284 12.0867 18.15 15.1539 15.5692 15.1539ZM15.5692 6.35642C13.7491 6.35642 12.2685 7.78831 12.2685 9.54745C12.2685 11.4198 13.8225 13.7954 15.5692 13.7954C17.316 13.7954 18.8699 11.4198 18.8699 9.54745C18.8699 7.78831 17.3894 6.35642 15.5692 6.35642Z" fill="black"/>
</svg>
