<svg width="18" height="18" viewBox="0 0 18 18" fill="none" xmlns="http://www.w3.org/2000/svg">
<g clip-path="url(#clip0_3655_1973)">
<path d="M3.75 9.75C3.75 9.35218 3.90804 8.97064 4.18934 8.68934C4.47064 8.40804 4.85218 8.25 5.25 8.25H12.75C13.1478 8.25 13.5294 8.40804 13.8107 8.68934C14.092 8.97064 14.25 9.35218 14.25 9.75V14.25C14.25 14.6478 14.092 15.0294 13.8107 15.3107C13.5294 15.592 13.1478 15.75 12.75 15.75H5.25C4.85218 15.75 4.47064 15.592 4.18934 15.3107C3.90804 15.0294 3.75 14.6478 3.75 14.25V9.75Z"  stroke-width="1.5" stroke-linecap="round" stroke-linejoin="round"/>
<path d="M6 8.25V5.25C6 4.45435 6.31607 3.69129 6.87868 3.12868C7.44129 2.56607 8.20435 2.25 9 2.25C9.79565 2.25 10.5587 2.56607 11.1213 3.12868C11.6839 3.69129 12 4.45435 12 5.25V8.25"  stroke-width="1.5" stroke-linecap="round" stroke-linejoin="round"/>
<path d="M11.25 12H11.2575"  stroke-width="1.5" stroke-linecap="round" stroke-linejoin="round"/>
<path d="M9.00745 12H9.01495"  stroke-width="1.5" stroke-linecap="round" stroke-linejoin="round"/>
<path d="M6.76501 12H6.77251"  stroke-width="1.5" stroke-linecap="round" stroke-linejoin="round"/>
</g>
<defs>
<clipPath id="clip0_3655_1973">
<rect width="18" height="18" fill="white"/>
</clipPath>
</defs>
</svg>
