<svg width="18" height="18" viewBox="0 0 18 18" fill="none" xmlns="http://www.w3.org/2000/svg">
<g clip-path="url(#clip0_7034_892)">
<path d="M3.75 7.42275C3.75 6.13725 4.845 5.09475 6.195 5.09475C6.40125 4.17975 7.13625 3.4335 8.124 3.1365C9.11175 2.83875 10.2015 3.036 10.9822 3.654C11.7637 4.2705 12.1177 5.214 11.9115 6.129H12.4313C12.9125 6.12801 13.3744 6.31817 13.7155 6.65768C14.0565 6.9972 14.2488 7.45826 14.25 7.9395C14.2488 8.42074 14.0565 8.8818 13.7155 9.22132C13.3744 9.56083 12.9125 9.751 12.4313 9.75H6.195C4.845 9.75 3.75 8.7075 3.75 7.42275Z" stroke="white" stroke-width="1.5" stroke-linecap="round" stroke-linejoin="round"/>
<path d="M9 9.75V12" stroke="white" stroke-width="1.5" stroke-linecap="round" stroke-linejoin="round"/>
<path d="M7.5 13.5C7.5 13.8978 7.65804 14.2794 7.93934 14.5607C8.22064 14.842 8.60218 15 9 15C9.39782 15 9.77936 14.842 10.0607 14.5607C10.342 14.2794 10.5 13.8978 10.5 13.5C10.5 13.1022 10.342 12.7206 10.0607 12.4393C9.77936 12.158 9.39782 12 9 12C8.60218 12 8.22064 12.158 7.93934 12.4393C7.65804 12.7206 7.5 13.1022 7.5 13.5Z" stroke="white" stroke-width="1.5" stroke-linecap="round" stroke-linejoin="round"/>
<path d="M10.5 13.5H15.75" stroke="white" stroke-width="1.5" stroke-linecap="round" stroke-linejoin="round"/>
<path d="M2.25 13.5H7.5" stroke="white" stroke-width="1.5" stroke-linecap="round" stroke-linejoin="round"/>
</g>
<defs>
<clipPath id="clip0_7034_892">
<rect width="18" height="18" fill="white"/>
</clipPath>
</defs>
</svg>
