<svg width="18" height="18" viewBox="0 0 18 18" fill="none" xmlns="http://www.w3.org/2000/svg">
<g clip-path="url(#clip0_6_165)">
<path d="M11.25 9H11.2575" stroke="white" stroke-linecap="round" stroke-linejoin="round"/>
<path d="M9 9H9.0075" stroke="white" stroke-linecap="round" stroke-linejoin="round"/>
<path d="M6.75 9H6.7575" stroke="white" stroke-linecap="round" stroke-linejoin="round"/>
<path d="M4.5 14.25C4.10218 14.25 3.72064 14.092 3.43934 13.8107C3.15804 13.5294 3 13.1478 3 12.75V9.75L2.25 9L3 8.25V5.25C3 4.85218 3.15804 4.47064 3.43934 4.18934C3.72064 3.90804 4.10218 3.75 4.5 3.75" stroke="white" stroke-linecap="round" stroke-linejoin="round"/>
<path d="M13.5 14.25C13.8978 14.25 14.2794 14.092 14.5607 13.8107C14.842 13.5294 15 13.1478 15 12.75V9.75L15.75 9L15 8.25V5.25C15 4.85218 14.842 4.47064 14.5607 4.18934C14.2794 3.90804 13.8978 3.75 13.5 3.75" stroke="white" stroke-linecap="round" stroke-linejoin="round"/>
</g>
<defs>
<clipPath id="clip0_6_165">
<rect width="18" height="18" fill="white"/>
</clipPath>
</defs>
</svg>
