<svg width="48" height="48" viewBox="0 0 48 48" fill="none" xmlns="http://www.w3.org/2000/svg">
<path d="M17.8125 39.4688C17.8114 39.6176 17.7518 39.7601 17.6466 39.8653C17.5413 39.9706 17.3989 40.0302 17.25 40.0312H14.25C14.1008 40.0312 13.9577 39.972 13.8523 39.8665C13.7468 39.761 13.6875 39.6179 13.6875 39.4688C13.6875 39.3196 13.7468 39.1765 13.8523 39.071C13.9577 38.9655 14.1008 38.9062 14.25 38.9062H17.25C17.3989 38.9073 17.5413 38.9669 17.6466 39.0722C17.7518 39.1774 17.8114 39.3199 17.8125 39.4688Z" fill="#D2D4D6"/>
<path d="M17.8125 43.2188C17.8114 43.3676 17.7518 43.5101 17.6466 43.6153C17.5413 43.7206 17.3989 43.7802 17.25 43.7813H15.75C15.5014 43.7813 15.263 43.8801 15.0872 44.0559C14.9114 44.2317 14.8126 44.4701 14.8125 44.7188V46.2188C14.8125 46.3679 14.7532 46.511 14.6477 46.6165C14.5423 46.722 14.3992 46.7813 14.25 46.7813C14.1008 46.7813 13.9577 46.722 13.8523 46.6165C13.7468 46.511 13.6875 46.3679 13.6875 46.2188V44.7188C13.6873 44.4479 13.7406 44.1796 13.8442 43.9293C13.9478 43.679 14.0997 43.4516 14.2913 43.26C14.4828 43.0685 14.7102 42.9165 14.9605 42.8129C15.2108 42.7093 15.4791 42.6561 15.75 42.6563H17.25C17.3989 42.6573 17.5413 42.7169 17.6466 42.8222C17.7518 42.9274 17.8114 43.0699 17.8125 43.2188Z" fill="#D2D4D6"/>
<path d="M17.8125 35.7188C17.8114 35.8676 17.7518 36.0101 17.6466 36.1153C17.5413 36.2206 17.3989 36.2802 17.25 36.2812H15.75C15.4791 36.2814 15.2108 36.2282 14.9605 36.1246C14.7102 36.021 14.4828 35.869 14.2913 35.6775C14.0997 35.4859 13.9478 35.2585 13.8442 35.0082C13.7406 34.7579 13.6874 34.4896 13.6875 34.2188V28.2188C13.6875 28.0696 13.7468 27.9265 13.8523 27.821C13.9577 27.7155 14.1008 27.6562 14.25 27.6562C14.3992 27.6562 14.5423 27.7155 14.6477 27.821C14.7532 27.9265 14.8125 28.0696 14.8125 28.2188V34.2188C14.8126 34.4674 14.9114 34.7058 15.0872 34.8816C15.263 35.0574 15.5014 35.1562 15.75 35.1562H17.25C17.3989 35.1573 17.5413 35.2169 17.6466 35.3222C17.7518 35.4274 17.8114 35.5699 17.8125 35.7188Z" fill="#D2D4D6"/>
<path d="M24.5625 28.2188V32.7188C24.5625 32.8679 24.5032 33.011 24.3977 33.1165C24.2923 33.222 24.1492 33.2812 24 33.2812C23.8508 33.2812 23.7077 33.222 23.6023 33.1165C23.4968 33.011 23.4375 32.8679 23.4375 32.7188V28.2188C23.4375 28.0696 23.4968 27.9265 23.6023 27.821C23.7077 27.7155 23.8508 27.6562 24 27.6562C24.1492 27.6562 24.2923 27.7155 24.3977 27.821C24.5032 27.9265 24.5625 28.0696 24.5625 28.2188Z" fill="#D2D4D6"/>
<path d="M28.3125 31.2188V32.7188C28.3125 32.8679 28.2532 33.011 28.1477 33.1165C28.0423 33.222 27.8992 33.2812 27.75 33.2812C27.6008 33.2812 27.4577 33.222 27.3523 33.1165C27.2468 33.011 27.1875 32.8679 27.1875 32.7188V31.2188C27.1875 31.0696 27.2468 30.9265 27.3523 30.821C27.4577 30.7155 27.6008 30.6562 27.75 30.6562C27.8992 30.6562 28.0423 30.7155 28.1477 30.821C28.2532 30.9265 28.3125 31.0696 28.3125 31.2188Z" fill="#D2D4D6"/>
<path d="M20.8125 31.2188V32.7188C20.8125 32.8679 20.7532 33.011 20.6477 33.1165C20.5423 33.222 20.3992 33.2812 20.25 33.2812C20.1008 33.2812 19.9577 33.222 19.8523 33.1165C19.7468 33.011 19.6875 32.8679 19.6875 32.7188V31.2188C19.6875 31.0696 19.7468 30.9265 19.8523 30.821C19.9577 30.7155 20.1008 30.6562 20.25 30.6562C20.3992 30.6562 20.5423 30.7155 20.6477 30.821C20.7532 30.9265 20.8125 31.0696 20.8125 31.2188Z" fill="#D2D4D6"/>
<path d="M34.3125 39.4688C34.3114 39.6176 34.2518 39.7601 34.1466 39.8653C34.0413 39.9706 33.8989 40.0302 33.75 40.0312H30.75C30.6008 40.0312 30.4577 39.972 30.3523 39.8665C30.2468 39.761 30.1875 39.6179 30.1875 39.4688C30.1875 39.3196 30.2468 39.1765 30.3523 39.071C30.4577 38.9655 30.6008 38.9062 30.75 38.9062H33.75C33.8989 38.9073 34.0413 38.9669 34.1466 39.0722C34.2518 39.1774 34.3114 39.3199 34.3125 39.4688Z" fill="#D2D4D6"/>
<path d="M34.3125 44.7188V46.2188C34.3125 46.3679 34.2532 46.511 34.1477 46.6165C34.0423 46.722 33.8992 46.7813 33.75 46.7813C33.6008 46.7813 33.4577 46.722 33.3523 46.6165C33.2468 46.511 33.1875 46.3679 33.1875 46.2188V44.7188C33.1874 44.4701 33.0886 44.2317 32.9128 44.0559C32.737 43.8801 32.4986 43.7813 32.25 43.7813H30.75C30.6008 43.7813 30.4577 43.722 30.3523 43.6165C30.2468 43.511 30.1875 43.3679 30.1875 43.2188C30.1875 43.0696 30.2468 42.9265 30.3523 42.821C30.4577 42.7155 30.6008 42.6563 30.75 42.6563H32.25C32.5209 42.6561 32.7892 42.7093 33.0395 42.8129C33.2898 42.9165 33.5172 43.0684 33.7088 43.26C33.9003 43.4515 34.0522 43.679 34.1558 43.9293C34.2594 44.1796 34.3127 44.4479 34.3125 44.7188Z" fill="#D2D4D6"/>
<path d="M34.3125 28.2188V34.2188C34.3127 34.4896 34.2594 34.7579 34.1558 35.0082C34.0522 35.2585 33.9003 35.4859 33.7087 35.6775C33.5172 35.869 33.2898 36.021 33.0395 36.1246C32.7892 36.2282 32.5209 36.2814 32.25 36.2812H30.75C30.6008 36.2812 30.4577 36.222 30.3523 36.1165C30.2468 36.011 30.1875 35.8679 30.1875 35.7188C30.1875 35.5696 30.2468 35.4265 30.3523 35.321C30.4577 35.2155 30.6008 35.1562 30.75 35.1562H32.25C32.4986 35.1562 32.737 35.0574 32.9128 34.8816C33.0886 34.7058 33.1874 34.4674 33.1875 34.2188V28.2188C33.1875 28.0696 33.2468 27.9265 33.3523 27.821C33.4577 27.7155 33.6008 27.6562 33.75 27.6562C33.8992 27.6562 34.0423 27.7155 34.1477 27.821C34.2532 27.9265 34.3125 28.0696 34.3125 28.2188Z" fill="#D2D4D6"/>
<path d="M17.8125 43.2188C17.8114 43.3676 17.7518 43.5101 17.6466 43.6153C17.5413 43.7206 17.3989 43.7802 17.25 43.7812H16.125V42.6562H17.25C17.3989 42.6573 17.5413 42.7169 17.6466 42.8222C17.7518 42.9274 17.8114 43.0699 17.8125 43.2188Z" fill="#BBBCC2"/>
<path d="M17.8125 39.4688C17.8114 39.6176 17.7518 39.7601 17.6466 39.8653C17.5413 39.9706 17.3989 40.0302 17.25 40.0312H16.125V38.9062H17.25C17.3989 38.9073 17.5413 38.9669 17.6466 39.0722C17.7518 39.1774 17.8114 39.3199 17.8125 39.4688Z" fill="#BBBCC2"/>
<path d="M17.8125 35.7188C17.8114 35.8676 17.7518 36.0101 17.6466 36.1153C17.5413 36.2206 17.3989 36.2802 17.25 36.2812H16.125V35.1562H17.25C17.3989 35.1573 17.5413 35.2169 17.6466 35.3222C17.7518 35.4274 17.8114 35.5699 17.8125 35.7188Z" fill="#BBBCC2"/>
<path d="M20.8125 31.5938V32.7188C20.8125 32.8679 20.7532 33.011 20.6477 33.1165C20.5423 33.222 20.3992 33.2812 20.25 33.2812C20.1008 33.2812 19.9577 33.222 19.8523 33.1165C19.7468 33.011 19.6875 32.8679 19.6875 32.7188V31.5938H20.8125Z" fill="#BBBCC2"/>
<path d="M24.5625 31.5938V32.7188C24.5625 32.8679 24.5032 33.011 24.3977 33.1165C24.2923 33.222 24.1492 33.2812 24 33.2812C23.8508 33.2812 23.7077 33.222 23.6023 33.1165C23.4968 33.011 23.4375 32.8679 23.4375 32.7188V31.5938H24.5625Z" fill="#BBBCC2"/>
<path d="M28.3125 31.5938V32.7188C28.3125 32.8679 28.2532 33.011 28.1477 33.1165C28.0423 33.222 27.8992 33.2812 27.75 33.2812C27.6008 33.2812 27.4577 33.222 27.3523 33.1165C27.2468 33.011 27.1875 32.8679 27.1875 32.7188V31.5938H28.3125Z" fill="#BBBCC2"/>
<path d="M31.875 35.1562V36.2812H30.75C30.6008 36.2812 30.4577 36.222 30.3523 36.1165C30.2468 36.011 30.1875 35.8679 30.1875 35.7188C30.1875 35.5696 30.2468 35.4265 30.3523 35.321C30.4577 35.2155 30.6008 35.1562 30.75 35.1562H31.875Z" fill="#BBBCC2"/>
<path d="M31.875 38.9062V40.0312H30.75C30.6008 40.0312 30.4577 39.972 30.3523 39.8665C30.2468 39.761 30.1875 39.6179 30.1875 39.4688C30.1875 39.3196 30.2468 39.1765 30.3523 39.071C30.4577 38.9655 30.6008 38.9062 30.75 38.9062H31.875Z" fill="#BBBCC2"/>
<path d="M31.875 42.6562V43.7812H30.75C30.6008 43.7812 30.4577 43.722 30.3523 43.6165C30.2468 43.511 30.1875 43.3679 30.1875 43.2188C30.1875 43.0696 30.2468 42.9265 30.3523 42.821C30.4577 42.7155 30.6008 42.6562 30.75 42.6562H31.875Z" fill="#BBBCC2"/>
<path d="M29.25 32.7188H18.75C17.9216 32.7188 17.25 33.3903 17.25 34.2188V44.7188C17.25 45.5472 17.9216 46.2188 18.75 46.2188H29.25C30.0784 46.2188 30.75 45.5472 30.75 44.7188V34.2188C30.75 33.3903 30.0784 32.7188 29.25 32.7188Z" fill="#EA9126"/>
<path d="M29.25 32.7188V43.2188C29.2488 43.6162 29.0904 43.9971 28.8094 44.2781C28.5283 44.5592 28.1475 44.7176 27.75 44.7188H17.25V34.2188C17.2512 33.8213 17.4096 33.4404 17.6906 33.1594C17.9717 32.8783 18.3525 32.7199 18.75 32.7188H29.25Z" fill="#FBA834"/>
<path d="M27.75 43.0313C27.6008 43.0312 27.4578 42.9719 27.3523 42.8665C27.2468 42.761 27.1875 42.6179 27.1875 42.4688V36.698C27.1875 36.5488 27.2468 36.4057 27.3523 36.3003C27.4577 36.1948 27.6008 36.1355 27.75 36.1355C27.8992 36.1355 28.0423 36.1948 28.1477 36.3003C28.2532 36.4057 28.3125 36.5488 28.3125 36.698V42.4688C28.3125 42.6179 28.2532 42.761 28.1477 42.8665C28.0422 42.9719 27.8992 43.0312 27.75 43.0313Z" fill="#2F2D3B"/>
<path d="M24.75 43.0312C24.6008 43.0312 24.4578 42.9719 24.3523 42.8665C24.2468 42.761 24.1875 42.6179 24.1875 42.4687V39.3398C24.1869 39.0913 24.0882 38.8531 23.9128 38.677L22.5 37.2642L21.0872 38.677C20.9118 38.8531 20.8131 39.0913 20.8125 39.3398V42.4687C20.8125 42.6179 20.7532 42.761 20.6478 42.8665C20.5423 42.972 20.3992 43.0312 20.25 43.0312C20.1008 43.0312 19.9577 42.972 19.8523 42.8665C19.7468 42.761 19.6875 42.6179 19.6875 42.4687V39.3398C19.6868 39.0689 19.7398 38.8005 19.8436 38.5502C19.9473 38.2999 20.0996 38.0726 20.2918 37.8816L22.1023 36.071C22.1545 36.0188 22.2165 35.9774 22.2848 35.9491C22.353 35.9208 22.4261 35.9062 22.5 35.9062C22.5739 35.9062 22.647 35.9208 22.7153 35.9491C22.7835 35.9774 22.8455 36.0188 22.8977 36.071L24.7083 37.8816C24.9004 38.0726 25.0527 38.2999 25.1565 38.5502C25.2602 38.8005 25.3132 39.0689 25.3125 39.3398V42.4687C25.3125 42.6179 25.2532 42.761 25.1477 42.8665C25.0422 42.9719 24.8992 43.0312 24.75 43.0312Z" fill="#2F2D3B"/>
<path d="M24.75 40.7812H20.25C20.1008 40.7812 19.9577 40.722 19.8523 40.6165C19.7468 40.511 19.6875 40.3679 19.6875 40.2188C19.6875 40.0696 19.7468 39.9265 19.8523 39.821C19.9577 39.7155 20.1008 39.6562 20.25 39.6562H24.75C24.8992 39.6562 25.0423 39.7155 25.1477 39.821C25.2532 39.9265 25.3125 40.0696 25.3125 40.2188C25.3125 40.3679 25.2532 40.511 25.1477 40.6165C25.0423 40.722 24.8992 40.7812 24.75 40.7812Z" fill="#2F2D3B"/>
<path d="M14.8125 28.2188V29.3438H13.6875V28.2188C13.6875 28.0696 13.7468 27.9265 13.8523 27.821C13.9577 27.7155 14.1008 27.6562 14.25 27.6562C14.3992 27.6562 14.5423 27.7155 14.6477 27.821C14.7532 27.9265 14.8125 28.0696 14.8125 28.2188Z" fill="#BBBCC2"/>
<path d="M24.5625 28.2188V29.3438H23.4375V28.2188C23.4375 28.0696 23.4968 27.9265 23.6023 27.821C23.7077 27.7155 23.8508 27.6562 24 27.6562C24.1492 27.6562 24.2923 27.7155 24.3977 27.821C24.5032 27.9265 24.5625 28.0696 24.5625 28.2188Z" fill="#BBBCC2"/>
<path d="M34.3125 28.2188V29.3438H33.1875V28.2188C33.1875 28.0696 33.2468 27.9265 33.3523 27.821C33.4577 27.7155 33.6008 27.6562 33.75 27.6562C33.8992 27.6562 34.0423 27.7155 34.1477 27.821C34.2532 27.9265 34.3125 28.0696 34.3125 28.2188Z" fill="#BBBCC2"/>
<path d="M42 1.21875H6C5.17157 1.21875 4.5 1.89032 4.5 2.71875V26.7188C4.5 27.5472 5.17157 28.2188 6 28.2188H42C42.8284 28.2188 43.5 27.5472 43.5 26.7188V2.71875C43.5 1.89032 42.8284 1.21875 42 1.21875Z" fill="#0874BA"/>
<path d="M43.5 2.71875V26.7188H7.5C7.10253 26.7176 6.72168 26.5592 6.44063 26.2781C6.15958 25.9971 6.00117 25.6162 6 25.2188V1.21875H42C42.3975 1.21991 42.7783 1.37832 43.0594 1.65937C43.3404 1.94043 43.4988 2.32128 43.5 2.71875Z" fill="#2992CC"/>
<path d="M8.25 15.4688H23.25V18.4688H8.25V15.4688Z" fill="#FBA834"/>
<path d="M38.43 11.8987C38.0139 12.3186 37.5185 12.6515 36.9726 12.8781C36.4266 13.1047 35.8411 13.2205 35.25 13.2188C34.0568 13.2178 32.9128 12.7434 32.0691 11.8997C31.2254 11.056 30.7509 9.91193 30.75 8.71875H35.25L38.43 11.8987Z" fill="#FBA834"/>
<path d="M35.25 4.21875V8.71875H30.75C30.7509 7.52557 31.2254 6.38152 32.0691 5.53781C32.9128 4.6941 34.0568 4.21969 35.25 4.21875Z" fill="#D2D4D6"/>
<path d="M39.75 8.71875C39.7518 9.30984 39.636 9.89539 39.4094 10.4413C39.1828 10.9873 38.8499 11.4827 38.43 11.8987L35.25 8.71875V4.21875C36.4432 4.21969 37.5872 4.6941 38.4309 5.53781C39.2746 6.38152 39.7491 7.52557 39.75 8.71875Z" fill="#BBBCC2"/>
<path d="M9.75 13.0312C9.60083 13.0312 9.45778 12.9719 9.3523 12.8665C9.24682 12.761 9.18754 12.6179 9.1875 12.4688V9.46875C9.1875 9.31957 9.24676 9.17649 9.35225 9.071C9.45774 8.96551 9.60082 8.90625 9.75 8.90625C9.89918 8.90625 10.0423 8.96551 10.1477 9.071C10.2532 9.17649 10.3125 9.31957 10.3125 9.46875V12.4688C10.3125 12.6179 10.2532 12.761 10.1477 12.8665C10.0422 12.9719 9.89917 13.0312 9.75 13.0312Z" fill="#D2D4D6"/>
<path d="M12.75 13.0312C12.6008 13.0312 12.4578 12.9719 12.3523 12.8665C12.2468 12.761 12.1875 12.6179 12.1875 12.4688V7.96875C12.1875 7.81957 12.2468 7.67649 12.3523 7.571C12.4577 7.46551 12.6008 7.40625 12.75 7.40625C12.8992 7.40625 13.0423 7.46551 13.1477 7.571C13.2532 7.67649 13.3125 7.81957 13.3125 7.96875V12.4688C13.3125 12.6179 13.2532 12.761 13.1477 12.8665C13.0422 12.9719 12.8992 13.0312 12.75 13.0312Z" fill="#D2D4D6"/>
<path d="M15.75 13.0312C15.6008 13.0312 15.4578 12.9719 15.3523 12.8665C15.2468 12.761 15.1875 12.6179 15.1875 12.4688V5.71875C15.1875 5.56957 15.2468 5.42649 15.3523 5.321C15.4577 5.21551 15.6008 5.15625 15.75 5.15625C15.8992 5.15625 16.0423 5.21551 16.1477 5.321C16.2532 5.42649 16.3125 5.56957 16.3125 5.71875V12.4688C16.3125 12.6179 16.2532 12.761 16.1477 12.8665C16.0422 12.9719 15.8992 13.0312 15.75 13.0312Z" fill="#D2D4D6"/>
<path d="M18.75 13.0312C18.6008 13.0312 18.4578 12.9719 18.3523 12.8665C18.2468 12.761 18.1875 12.6179 18.1875 12.4688V6.46875C18.1875 6.31957 18.2468 6.17649 18.3523 6.071C18.4577 5.96551 18.6008 5.90625 18.75 5.90625C18.8992 5.90625 19.0423 5.96551 19.1477 6.071C19.2532 6.17649 19.3125 6.31957 19.3125 6.46875V12.4688C19.3125 12.6179 19.2532 12.761 19.1477 12.8665C19.0422 12.9719 18.8992 13.0312 18.75 13.0312Z" fill="#D2D4D6"/>
<path d="M21.75 13.0312C21.6008 13.0312 21.4578 12.9719 21.3523 12.8665C21.2468 12.761 21.1875 12.6179 21.1875 12.4688V4.96875C21.1875 4.81957 21.2468 4.67649 21.3523 4.571C21.4577 4.46551 21.6008 4.40625 21.75 4.40625C21.8992 4.40625 22.0423 4.46551 22.1477 4.571C22.2532 4.67649 22.3125 4.81957 22.3125 4.96875V12.4688C22.3125 12.6179 22.2532 12.761 22.1477 12.8665C22.0422 12.9719 21.8992 13.0312 21.75 13.0312Z" fill="#D2D4D6"/>
<path d="M14.25 22.0312H8.25C8.10082 22.0312 7.95774 21.972 7.85225 21.8665C7.74676 21.761 7.6875 21.6179 7.6875 21.4688C7.6875 21.3196 7.74676 21.1765 7.85225 21.071C7.95774 20.9655 8.10082 20.9062 8.25 20.9062H14.25C14.3992 20.9062 14.5423 20.9655 14.6477 21.071C14.7532 21.1765 14.8125 21.3196 14.8125 21.4688C14.8125 21.6179 14.7532 21.761 14.6477 21.8665C14.5423 21.972 14.3992 22.0312 14.25 22.0312Z" fill="#BBBCC2"/>
<path d="M23.25 25.0312H8.25C8.10082 25.0312 7.95774 24.972 7.85225 24.8665C7.74676 24.761 7.6875 24.6179 7.6875 24.4688C7.6875 24.3196 7.74676 24.1765 7.85225 24.071C7.95774 23.9655 8.10082 23.9062 8.25 23.9062H23.25C23.3992 23.9062 23.5423 23.9655 23.6477 24.071C23.7532 24.1765 23.8125 24.3196 23.8125 24.4688C23.8125 24.6179 23.7532 24.761 23.6477 24.8665C23.5423 24.972 23.3992 25.0312 23.25 25.0312Z" fill="#D2D4D6"/>
<path d="M30.75 17.5313C30.6751 17.5315 30.601 17.516 30.5325 17.4859C30.464 17.4605 30.4023 17.4196 30.3523 17.3665C30.273 17.2877 30.2191 17.187 30.1978 17.0773C30.1764 16.9676 30.1885 16.854 30.2325 16.7512C30.2602 16.6838 30.3009 16.6225 30.3524 16.571C30.4039 16.5194 30.4651 16.4786 30.5325 16.451C30.6179 16.415 30.7109 16.4008 30.8031 16.4095C30.8954 16.4182 30.9841 16.4495 31.0613 16.5008C31.1385 16.552 31.2018 16.6216 31.2456 16.7032C31.2895 16.7849 31.3124 16.8761 31.3125 16.9688C31.3127 17.0436 31.2974 17.1177 31.2674 17.1863C31.2416 17.2547 31.2005 17.3163 31.1473 17.3664C31.0974 17.4196 31.0359 17.4605 30.9675 17.4858C30.8989 17.5159 30.8248 17.5314 30.75 17.5313Z" fill="#0874BA"/>
<path d="M33 17.5312C32.9072 17.5317 32.8157 17.509 32.7338 17.4653C32.6519 17.4216 32.5822 17.3582 32.5308 17.2808C32.4795 17.2035 32.4482 17.1146 32.4398 17.0221C32.4314 16.9297 32.4461 16.8366 32.4825 16.7512C32.5178 16.666 32.5736 16.5907 32.645 16.5322C32.7164 16.4737 32.8011 16.4338 32.8916 16.4159C32.9822 16.3981 33.0757 16.4029 33.164 16.43C33.2522 16.4571 33.3324 16.5055 33.3973 16.5711C33.476 16.6497 33.5295 16.7499 33.5512 16.859C33.5729 16.968 33.5618 17.0811 33.5193 17.1838C33.4767 17.2866 33.4047 17.3744 33.3123 17.4363C33.2199 17.4981 33.1112 17.5311 33 17.5312Z" fill="#0874BA"/>
<path d="M35.25 17.5313C35.1008 17.5312 34.9578 17.4719 34.8523 17.3665C34.7991 17.3164 34.7581 17.2547 34.7325 17.1863C34.7026 17.1177 34.6872 17.0437 34.6875 16.9688C34.6874 16.8949 34.702 16.8218 34.7302 16.7535C34.7585 16.6853 34.8 16.6233 34.8523 16.5711C34.9599 16.4698 35.1021 16.4135 35.2498 16.4135C35.3976 16.4135 35.5398 16.4698 35.6473 16.5711C35.6997 16.6233 35.7412 16.6852 35.7696 16.7535C35.7979 16.8217 35.8125 16.8949 35.8125 16.9688C35.8125 17.0427 35.7979 17.1159 35.7696 17.1841C35.7412 17.2524 35.6997 17.3144 35.6473 17.3665C35.5974 17.4197 35.5359 17.4605 35.4675 17.4859C35.399 17.5159 35.3249 17.5314 35.25 17.5313Z" fill="#0874BA"/>
<path d="M37.5 17.5312C37.4251 17.5314 37.351 17.5159 37.2825 17.4858C37.214 17.4604 37.1523 17.4196 37.1023 17.3664C37.023 17.2877 36.9691 17.1869 36.9478 17.0772C36.9264 16.9675 36.9385 16.8539 36.9825 16.7512C37.0109 16.6842 37.0515 16.6231 37.1023 16.571C37.1815 16.4925 37.2822 16.4392 37.3917 16.4178C37.5012 16.3964 37.6146 16.408 37.7175 16.4509C37.7845 16.4793 37.8455 16.52 37.8973 16.571C37.9505 16.6212 37.9916 16.6828 38.0175 16.7512C38.0615 16.854 38.0736 16.9676 38.0522 17.0773C38.0308 17.187 37.9768 17.2878 37.8973 17.3664C37.8474 17.4196 37.7859 17.4604 37.7175 17.4858C37.6489 17.5159 37.5749 17.5313 37.5 17.5312Z" fill="#0874BA"/>
<path d="M39.75 17.5312C39.6751 17.5314 39.601 17.5159 39.5325 17.4858C39.464 17.4604 39.4023 17.4195 39.3523 17.3664C39.273 17.2877 39.2191 17.1869 39.1978 17.0772C39.1764 16.9675 39.1885 16.8539 39.2325 16.7512C39.2602 16.6837 39.3009 16.6225 39.3524 16.5709C39.4039 16.5194 39.4651 16.4786 39.5325 16.4509C39.6526 16.4002 39.7866 16.3929 39.9115 16.4302C40.0364 16.4675 40.1444 16.5471 40.2171 16.6553C40.2898 16.7635 40.3226 16.8936 40.3098 17.0234C40.2971 17.1531 40.2397 17.2744 40.1473 17.3664C40.0974 17.4195 40.0359 17.4604 39.9675 17.4858C39.8989 17.5158 39.8249 17.5313 39.75 17.5312Z" fill="#0874BA"/>
<path d="M23.25 13.0312H8.25C8.10082 13.0312 7.95774 12.972 7.85225 12.8665C7.74676 12.761 7.6875 12.6179 7.6875 12.4688C7.6875 12.3196 7.74676 12.1765 7.85225 12.071C7.95774 11.9655 8.10082 11.9062 8.25 11.9062H23.25C23.3992 11.9062 23.5423 11.9655 23.6477 12.071C23.7532 12.1765 23.8125 12.3196 23.8125 12.4688C23.8125 12.6179 23.7532 12.761 23.6477 12.8665C23.5423 12.972 23.3992 13.0312 23.25 13.0312Z" fill="#BBBCC2"/>
</svg>
