<svg width="18" height="18" viewBox="0 0 18 18" fill="none" xmlns="http://www.w3.org/2000/svg">
<g clip-path="url(#clip0_3410_1279)">
<path d="M6 6.75H12" stroke="black" stroke-width="1.5" stroke-linecap="round" stroke-linejoin="round"/>
<path d="M6 9.75H10.5" stroke="black" stroke-width="1.5" stroke-linecap="round" stroke-linejoin="round"/>
<path d="M10.5 13.5H9.75L6 15.75V13.5H4.5C3.90326 13.5 3.33097 13.2629 2.90901 12.841C2.48705 12.419 2.25 11.8467 2.25 11.25V5.25C2.25 4.65326 2.48705 4.08097 2.90901 3.65901C3.33097 3.23705 3.90326 3 4.5 3H13.5C14.0967 3 14.669 3.23705 15.091 3.65901C15.5129 4.08097 15.75 4.65326 15.75 5.25V8.625" stroke="black" stroke-width="1.5" stroke-linecap="round" stroke-linejoin="round"/>
<path d="M14.25 16.5V16.5075" stroke="black" stroke-width="1.5" stroke-linecap="round" stroke-linejoin="round"/>
<path d="M14.25 14.2499C14.5862 14.2489 14.9124 14.135 15.1762 13.9267C15.4401 13.7183 15.6264 13.4274 15.7054 13.1006C15.7844 12.7738 15.7515 12.4299 15.6119 12.124C15.4723 11.8182 15.2341 11.5679 14.9355 11.4134C14.6371 11.2606 14.2958 11.2132 13.9671 11.279C13.6384 11.3448 13.3416 11.5198 13.125 11.7757" stroke="black" stroke-width="1.5" stroke-linecap="round" stroke-linejoin="round"/>
</g>
<defs>
<clipPath id="clip0_3410_1279">
<rect width="18" height="18" fill="white"/>
</clipPath>
</defs>
</svg>
