<svg width="28" height="28" viewBox="0 0 28 28" fill="none" xmlns="http://www.w3.org/2000/svg">
<path d="M14 0.666626L14.856 0.673293L15.6773 0.695959L16.076 0.713293L16.848 0.758626L17.5853 0.819959C23.8346 1.42663 26.452 3.93063 27.14 10.028L27.18 10.4146L27.2413 11.152L27.296 12.1213L27.304 12.3213L27.3266 13.144L27.3333 14L27.3266 14.856L27.304 15.6773L27.2866 16.076L27.2413 16.848L27.18 17.5853C26.5733 23.8346 24.0693 26.452 17.972 27.14L17.5853 27.18L16.848 27.2413L15.8786 27.296L15.6786 27.304L14.856 27.3266L14 27.3333L13.144 27.3266L12.3226 27.304L11.924 27.2866L11.152 27.2413L10.4146 27.18C4.1653 26.5733 1.54797 24.0693 0.859969 17.972L0.819969 17.5853L0.758636 16.848L0.703969 15.8786L0.695969 15.6786L0.673302 14.856L0.667969 14.432V13.568L0.673302 13.144L0.695969 12.3226L0.713302 11.924L0.758636 11.152L0.819969 10.4146C1.42664 4.16529 3.93064 1.54796 10.028 0.859959L10.4146 0.819959L11.152 0.758626L12.1213 0.703959L12.3213 0.695959L13.144 0.673293C13.424 0.669293 13.7093 0.666626 14 0.666626ZM14 18C13.6734 18 13.3582 18.1199 13.1141 18.3369C12.8701 18.5539 12.7142 18.853 12.676 19.1773L12.6666 19.3333L12.676 19.5026C12.7145 19.8267 12.8706 20.1254 13.1146 20.3421C13.3586 20.5588 13.6736 20.6785 14 20.6785C14.3263 20.6785 14.6413 20.5588 14.8853 20.3421C15.1294 20.1254 15.2854 19.8267 15.324 19.5026L15.3333 19.3466L15.324 19.1773C15.2858 18.853 15.1298 18.5539 14.8858 18.3369C14.6418 18.1199 14.3265 18 14 18ZM15.824 9.10262C15.0258 8.69458 14.1131 8.56842 13.2342 8.74464C12.3553 8.92086 11.5618 9.3891 10.9826 10.0733C10.7618 10.332 10.6482 10.6652 10.665 11.0049C10.6818 11.3446 10.8278 11.6651 11.0731 11.9006C11.3184 12.1362 11.6445 12.2692 11.9846 12.2723C12.3247 12.2754 12.6531 12.1484 12.9026 11.9173L13.1306 11.6773C13.3273 11.4967 13.5746 11.3808 13.8392 11.345C14.1039 11.3093 14.3731 11.3554 14.6106 11.4773C14.8667 11.6069 15.0742 11.8157 15.2021 12.0727C15.3301 12.3296 15.3717 12.621 15.3207 12.9035C15.2698 13.186 15.1291 13.4445 14.9195 13.6406C14.7099 13.8367 14.4426 13.9599 14.1573 13.992L13.848 14.008C13.5088 14.0453 13.1969 14.2112 12.9764 14.4715C12.7559 14.7318 12.6436 15.0668 12.6625 15.4074C12.6815 15.748 12.8303 16.0685 13.0784 16.3027C13.3264 16.5369 13.6548 16.6672 13.996 16.6666C14.8955 16.6693 15.7696 16.3688 16.4773 15.8135C17.1849 15.2582 17.6848 14.4806 17.8961 13.6063C18.1074 12.7319 18.0178 11.8119 17.6418 10.9947C17.2659 10.1776 16.6254 9.51099 15.824 9.10262Z" fill="#0B51C5"/>
</svg>
