<svg width="18" height="18" viewBox="0 0 18 18" fill="none" xmlns="http://www.w3.org/2000/svg">
<path d="M5.0625 15.4688C5.37317 15.4688 5.625 15.2169 5.625 14.9062C5.625 14.5956 5.37317 14.3438 5.0625 14.3438H4.78125C3.84927 14.3438 3.09375 13.5882 3.09375 12.6562V10.7666C3.09375 10.2883 2.89072 9.83236 2.53513 9.51235L1.96585 9L2.53513 8.48765C2.89072 8.16764 3.09375 7.71173 3.09375 7.23333V5.34375C3.09375 4.41177 3.84927 3.65625 4.78125 3.65625H5.0625C5.37317 3.65625 5.625 3.40442 5.625 3.09375C5.625 2.78309 5.37317 2.53125 5.0625 2.53125H4.78125C3.22796 2.53125 1.96875 3.79046 1.96875 5.34375V7.23333C1.96875 7.3928 1.90107 7.54478 1.78254 7.65143L0.748707 8.58189C0.63018 8.68857 0.5625 8.84053 0.5625 9C0.5625 9.15947 0.63018 9.31143 0.748707 9.41811L1.78254 10.3486C1.90107 10.4552 1.96875 10.6072 1.96875 10.7666V12.6562C1.96875 14.2095 3.22796 15.4688 4.78125 15.4688H5.0625Z" fill="black"/>
<path d="M12.9375 15.4688C12.6268 15.4688 12.375 15.2169 12.375 14.9062C12.375 14.5956 12.6268 14.3438 12.9375 14.3438H13.2188C14.1507 14.3438 14.9062 13.5882 14.9062 12.6562V10.7666C14.9062 10.2883 15.1093 9.83236 15.4649 9.51235L16.0341 9L15.4649 8.48765C15.1093 8.16764 14.9062 7.71173 14.9062 7.23333V5.34375C14.9062 4.41177 14.1507 3.65625 13.2188 3.65625H12.9375C12.6268 3.65625 12.375 3.40442 12.375 3.09375C12.375 2.78309 12.6268 2.53125 12.9375 2.53125H13.2188C14.772 2.53125 16.0312 3.79046 16.0312 5.34375V7.23333C16.0312 7.3928 16.0989 7.54478 16.2175 7.65143L17.2513 8.58189C17.3698 8.68857 17.4375 8.84053 17.4375 9C17.4375 9.15947 17.3698 9.31143 17.2513 9.41811L16.2175 10.3486C16.0989 10.4552 16.0312 10.6072 16.0312 10.7666V12.6562C16.0312 14.2095 14.772 15.4688 13.2188 15.4688H12.9375Z" fill="black"/>
<path fill-rule="evenodd" clip-rule="evenodd" d="M5.34375 5.34375C5.03308 5.34375 4.78125 5.59558 4.78125 5.90625V12.0938C4.78125 12.4044 5.03308 12.6562 5.34375 12.6562H12.6562C12.9669 12.6562 13.2188 12.4044 13.2188 12.0938V5.90625C13.2188 5.59558 12.9669 5.34375 12.6562 5.34375H5.34375ZM8.30711 7.23364C8.10824 6.995 7.75356 6.96274 7.51489 7.16164L6.34596 8.13575C5.80621 8.58552 5.80621 9.41448 6.34596 9.86425L7.51489 10.8384C7.75356 11.0373 8.10824 11.005 8.30711 10.7664C8.50601 10.5277 8.47375 10.173 8.23511 9.97414L7.06615 9L8.23511 8.02586C8.47375 7.82699 8.50601 7.47231 8.30711 7.23364ZM10.4851 7.16164C10.2464 6.96274 9.89176 6.995 9.69289 7.23364C9.49399 7.47231 9.52625 7.82699 9.76489 8.02586L10.9338 9L9.76489 9.97414C9.52625 10.173 9.49399 10.5277 9.69289 10.7664C9.89176 11.005 10.2464 11.0373 10.4851 10.8384L11.654 9.86425C12.1938 9.41448 12.1938 8.58552 11.654 8.13575L10.4851 7.16164Z" fill="black"/>
</svg>
