<svg width="48" height="48" viewBox="0 0 48 48" fill="none" xmlns="http://www.w3.org/2000/svg">
<g clip-path="url(#clip0_6636_2676)">
<path d="M7.125 36.9398C7.53921 36.9398 7.875 36.604 7.875 36.1898C7.875 35.7755 7.53921 35.4398 7.125 35.4398C6.71079 35.4398 6.375 35.7755 6.375 36.1898C6.375 36.604 6.71079 36.9398 7.125 36.9398Z" fill="#2D4356"/>
<path d="M25.5 25.125C24.3869 25.1246 23.2988 25.4544 22.3731 26.0725C21.4475 26.6907 20.726 27.5694 20.2999 28.5977C19.8738 29.626 19.7622 30.7575 19.9792 31.8492C20.1963 32.9408 20.7322 33.9436 21.5193 34.7307C22.3063 35.5177 23.3091 36.0537 24.4008 36.2707C25.4925 36.4878 26.624 36.3762 27.6523 35.9501C28.6805 35.524 29.5593 34.8025 30.1774 33.8768C30.7956 32.9512 31.1253 31.8631 31.125 30.75C31.1232 29.2587 30.5299 27.829 29.4754 26.7745C28.4209 25.72 26.9913 25.1268 25.5 25.125ZM25.5 34.8788C24.6837 34.8791 23.8858 34.6374 23.2069 34.1843C22.528 33.7311 21.9988 33.0868 21.6861 32.3329C21.3734 31.5789 21.2913 30.7492 21.4502 29.9486C21.609 29.148 22.0017 28.4125 22.5786 27.8351C23.1555 27.2576 23.8907 26.8643 24.6911 26.7047C25.4916 26.5451 26.3214 26.6264 27.0756 26.9384C27.8299 27.2504 28.4746 27.7791 28.9284 28.4575C29.3822 29.136 29.6246 29.9338 29.625 30.75C29.6245 31.8442 29.1898 32.8935 28.4164 33.6676C27.6431 34.4417 26.5942 34.8772 25.5 34.8788Z" fill="#2D4356"/>
<path d="M29.625 30.75C29.625 31.5658 29.3831 32.3634 28.9298 33.0417C28.4766 33.7201 27.8323 34.2488 27.0786 34.561C26.3248 34.8732 25.4954 34.9549 24.6953 34.7957C23.8951 34.6366 23.1601 34.2437 22.5832 33.6668C22.0063 33.0899 21.6134 32.3549 21.4543 31.5547C21.2951 30.7546 21.3768 29.9252 21.689 29.1714C22.0012 28.4177 22.5299 27.7734 23.2083 27.3202C23.8866 26.8669 24.6842 26.625 25.5 26.625C26.5936 26.6265 27.6419 27.0616 28.4152 27.8348C29.1884 28.6081 29.6235 29.6564 29.625 30.75Z" fill="#FC785E"/>
<path d="M27.3428 28.9086C27.2732 28.839 27.1905 28.7837 27.0995 28.746C27.0085 28.7083 26.911 28.6889 26.8125 28.6889C26.714 28.6889 26.6165 28.7083 26.5255 28.746C26.4345 28.7837 26.3519 28.839 26.2822 28.9086L25.5 29.691L24.7178 28.9087C24.6482 28.8387 24.5655 28.7832 24.4745 28.7453C24.3834 28.7073 24.2857 28.6877 24.1871 28.6876C24.0884 28.6875 23.9907 28.7068 23.8995 28.7445C23.8084 28.7822 23.7255 28.8375 23.6558 28.9073C23.586 28.9771 23.5307 29.0599 23.493 29.1511C23.4554 29.2423 23.436 29.34 23.4362 29.4386C23.4363 29.5373 23.4559 29.6349 23.4938 29.726C23.5318 29.8171 23.5873 29.8998 23.6573 29.9693L24.4395 30.7516L23.6573 31.534C23.517 31.6747 23.4384 31.8653 23.4385 32.064C23.4387 32.2626 23.5177 32.4531 23.6582 32.5936C23.7986 32.7341 23.9891 32.8131 24.1878 32.8133C24.3864 32.8135 24.5771 32.7348 24.7178 32.5946L25.5 31.8123L26.2822 32.5946C26.424 32.7332 26.6143 32.8108 26.8125 32.8108C27.0107 32.8108 27.2011 32.7332 27.3428 32.5946C27.4125 32.525 27.4677 32.4423 27.5054 32.3513C27.5431 32.2603 27.5625 32.1628 27.5625 32.0643C27.5625 31.9658 27.5431 31.8683 27.5054 31.7773C27.4677 31.6863 27.4125 31.6036 27.3428 31.534L26.5606 30.7516L27.3428 29.9693C27.4125 29.8997 27.4677 29.817 27.5054 29.726C27.5431 29.635 27.5625 29.5375 27.5625 29.439C27.5625 29.3405 27.5431 29.2429 27.5054 29.152C27.4677 29.061 27.4125 28.9783 27.3428 28.9086Z" fill="#2D4356"/>
<path d="M15.4762 18.5438L16.5262 11.16C16.6301 10.4164 16.4398 9.66155 15.9958 9.05604C15.5518 8.45052 14.8891 8.04207 14.1487 7.91752C13.4082 7.79297 12.6484 7.96216 12.0308 8.3891C11.4131 8.81604 10.9863 9.46706 10.8412 10.2038L7.34621 27.0863C7.28779 27.3854 7.11746 27.6509 6.86996 27.8288L6.60371 28.0238C6.48893 27.8598 6.34292 27.72 6.17403 27.6126C6.00514 27.5051 5.81671 27.432 5.61952 27.3975C5.42234 27.363 5.22029 27.3678 5.02496 27.4116C4.82962 27.4553 4.64484 27.5372 4.48121 27.6525L0.31871 30.5738C0.237291 30.63 0.167819 30.7018 0.114301 30.7851C0.0607832 30.8683 0.0242791 30.9614 0.00689492 31.0588C-0.0104893 31.1562 -0.00840944 31.2561 0.0130144 31.3527C0.0344382 31.4494 0.074782 31.5408 0.131718 31.6217C0.188654 31.7027 0.261056 31.7715 0.344745 31.8244C0.428435 31.8772 0.521756 31.9129 0.619325 31.9295C0.716893 31.9461 0.816778 31.9432 0.913217 31.9209C1.00965 31.8987 1.10074 31.8576 1.18121 31.8L5.34371 28.8825C5.34371 28.8825 5.35871 28.8713 5.36996 28.875C5.38121 28.8788 5.38871 28.8975 5.38871 28.8975L10.4887 36.5025C10.4989 36.518 10.5026 36.5369 10.4991 36.5551C10.4956 36.5733 10.4852 36.5894 10.47 36.6L7.43246 38.7675C7.35207 38.8246 7.28379 38.897 7.23156 38.9806C7.17933 39.0643 7.14418 39.1574 7.12814 39.2547C7.1121 39.352 7.11549 39.4514 7.13812 39.5474C7.16074 39.6434 7.20215 39.7339 7.25996 39.8138C7.37651 39.9743 7.55141 40.0827 7.74706 40.1157C7.94272 40.1487 8.14349 40.1035 8.30621 39.99L11.3362 37.8225C11.5252 37.6883 11.6818 37.5136 11.7946 37.3112C11.9075 37.1088 11.9738 36.8838 11.9887 36.6525L14.2012 34.9575C15.2646 34.1528 16.127 33.1128 16.7211 31.9189C17.3151 30.725 17.6245 29.4097 17.625 28.0763V21.3638C17.6261 20.723 17.4163 20.0997 17.028 19.59C16.6396 19.0803 16.0943 18.7127 15.4762 18.5438ZM16.125 28.0763C16.1242 29.1782 15.8682 30.2649 15.377 31.2513C14.8858 32.2376 14.1727 33.0967 13.2937 33.7613L11.4187 35.1975L7.44371 29.265L7.74746 29.0475C8.30105 28.6473 8.68283 28.0525 8.81621 27.3825L12.3112 10.5038C12.3781 10.1479 12.5817 9.83249 12.8784 9.62504C13.1751 9.41759 13.5412 9.33465 13.8984 9.39401C14.2555 9.45336 14.5752 9.6503 14.7888 9.94257C15.0024 10.2348 15.0931 10.5992 15.0412 10.9575L13.9612 18.5438C13.3449 18.7147 12.8017 19.0831 12.4149 19.5925C12.0281 20.1019 11.8191 20.7242 11.82 21.3638V26.58C11.82 26.7789 11.899 26.9697 12.0396 27.1103C12.1803 27.251 12.371 27.33 12.57 27.33C12.7689 27.33 12.9596 27.251 13.1003 27.1103C13.2409 26.9697 13.32 26.7789 13.32 26.58V21.3638C13.317 21.1777 13.3512 20.993 13.4203 20.8203C13.4895 20.6475 13.5924 20.4903 13.7229 20.3577C13.8534 20.2251 14.009 20.1198 14.1806 20.048C14.3522 19.9761 14.5364 19.9391 14.7225 19.9391C14.9085 19.9391 15.0927 19.9761 15.2643 20.048C15.4359 20.1198 15.5915 20.2251 15.722 20.3577C15.8526 20.4903 15.9554 20.6475 16.0246 20.8203C16.0938 20.993 16.1279 21.1777 16.125 21.3638V28.0763Z" fill="#2D4356"/>
<path d="M16.125 21.3638V28.0763C16.1242 29.1782 15.8682 30.2649 15.377 31.2513C14.8858 32.2376 14.1727 33.0967 13.2937 33.7613L11.4187 35.1975L7.44373 29.265L7.74748 29.0475C8.30107 28.6473 8.68285 28.0525 8.81623 27.3825L12.3112 10.5038C12.3781 10.1479 12.5817 9.8325 12.8784 9.62504C13.1751 9.41759 13.5413 9.33465 13.8984 9.39401C14.2555 9.45337 14.5752 9.6503 14.7888 9.94258C15.0025 10.2349 15.0931 10.5992 15.0412 10.9575L13.9612 18.5438C13.3449 18.7147 12.8017 19.0831 12.4149 19.5925C12.0281 20.1019 11.8191 20.7242 11.82 21.3638V26.58C11.82 26.7789 11.899 26.9697 12.0396 27.1103C12.1803 27.251 12.3711 27.33 12.57 27.33C12.7689 27.33 12.9597 27.251 13.1003 27.1103C13.241 26.9697 13.32 26.7789 13.32 26.58V21.3638C13.3171 21.1777 13.3512 20.993 13.4204 20.8203C13.4895 20.6475 13.5924 20.4903 13.7229 20.3577C13.8534 20.2251 14.009 20.1198 14.1806 20.048C14.3522 19.9761 14.5364 19.9391 14.7225 19.9391C14.9085 19.9391 15.0927 19.9761 15.2643 20.048C15.4359 20.1198 15.5915 20.2251 15.7221 20.3577C15.8526 20.4903 15.9554 20.6475 16.0246 20.8203C16.0938 20.993 16.1279 21.1777 16.125 21.3638Z" fill="#E1EBF4"/>
<path opacity="0.3" d="M29.625 30.75C29.625 30.8775 29.6175 31.0013 29.6062 31.1288C29.5141 30.1033 29.0416 29.1495 28.2817 28.4549C27.5218 27.7603 26.5295 27.3751 25.5 27.3751C24.4705 27.3751 23.4782 27.7603 22.7183 28.4549C21.9584 29.1495 21.4859 30.1033 21.3937 31.1288C21.3825 31.0013 21.375 30.8775 21.375 30.75C21.375 29.656 21.8096 28.6068 22.5832 27.8332C23.3568 27.0596 24.406 26.625 25.5 26.625C26.594 26.625 27.6432 27.0596 28.4168 27.8332C29.1904 28.6068 29.625 29.656 29.625 30.75Z" fill="#F9DBD7"/>
<path opacity="0.5" d="M29.625 30.75C29.625 31.844 29.1904 32.8932 28.4168 33.6668C27.6432 34.4404 26.594 34.875 25.5 34.875C24.406 34.875 23.3568 34.4404 22.5832 33.6668C21.8096 32.8932 21.375 31.844 21.375 30.75C21.375 30.6262 21.3825 30.4987 21.3937 30.3787C21.4869 31.4034 21.9598 32.3563 22.7196 33.0501C23.4793 33.744 24.4711 34.1287 25.5 34.1287C26.5289 34.1287 27.5207 33.744 28.2804 33.0501C29.0402 32.3563 29.5131 31.4034 29.6062 30.3787C29.6175 30.4987 29.625 30.6262 29.625 30.75Z" fill="#A54B3F"/>
<path opacity="0.5" d="M15.0412 10.9575L15.0075 11.1863C14.9349 10.8784 14.7585 10.6048 14.508 10.4116C14.2575 10.2183 13.9482 10.1172 13.6319 10.1251C13.3157 10.133 13.0118 10.2495 12.7713 10.4551C12.5308 10.6606 12.3683 10.9426 12.3112 11.2538L8.81623 28.1325C8.68538 28.7878 8.31671 29.3715 7.78123 29.7713L7.44373 29.265L7.74748 29.0475C8.30106 28.6473 8.68284 28.0525 8.81623 27.3825L12.3112 10.5038C12.3781 10.1479 12.5817 9.8325 12.8784 9.62504C13.1751 9.41759 13.5413 9.33465 13.8984 9.39401C14.2555 9.45337 14.5752 9.6503 14.7888 9.94258C15.0025 10.2349 15.0931 10.5992 15.0412 10.9575Z" fill="white"/>
<path opacity="0.5" d="M16.125 21.3638V22.1138C16.1279 21.9277 16.0938 21.743 16.0246 21.5703C15.9554 21.3975 15.8526 21.2403 15.7221 21.1077C15.5916 20.9751 15.436 20.8698 15.2644 20.798C15.0927 20.7261 14.9085 20.6891 14.7225 20.6891C14.5364 20.6891 14.3522 20.7261 14.1806 20.798C14.009 20.8698 13.8534 20.9751 13.7229 21.1077C13.5924 21.2403 13.4895 21.3975 13.4204 21.5703C13.3512 21.743 13.3171 21.9277 13.32 22.1138V21.3638C13.3171 21.1777 13.3512 20.993 13.4204 20.8203C13.4895 20.6475 13.5924 20.4903 13.7229 20.3577C13.8534 20.2251 14.009 20.1198 14.1806 20.048C14.3522 19.9761 14.5364 19.9391 14.7225 19.9391C14.9085 19.9391 15.0927 19.9761 15.2644 20.048C15.436 20.1198 15.5916 20.2251 15.7221 20.3577C15.8526 20.4903 15.9554 20.6475 16.0246 20.8203C16.0938 20.993 16.1279 21.1777 16.125 21.3638Z" fill="white"/>
<path opacity="0.5" d="M16.1249 27.3262V28.0762C16.1242 29.1781 15.8682 30.2649 15.377 31.2512C14.8857 32.2376 14.1727 33.0967 13.2937 33.7612L11.4187 35.1975L11.0962 34.7137L13.2937 33.0112C14.1727 32.3467 14.8857 31.4876 15.377 30.5012C15.8682 29.5149 16.1242 28.4281 16.1249 27.3262Z" fill="#9FA5AA"/>
<path d="M44.8687 20.625H24.1312C24.5612 18.1874 25.8362 15.9792 27.7324 14.3881C29.6286 12.7971 32.0247 11.925 34.5 11.925C36.9752 11.925 39.3714 12.7971 41.2676 14.3881C43.1637 15.9792 44.4388 18.1874 44.8687 20.625Z" fill="#FFDB80"/>
<path d="M28.8752 16.6472C28.7004 16.6472 28.5312 16.5862 28.3966 16.4747C28.2621 16.3632 28.1707 16.2082 28.1382 16.0365C28.1057 15.8648 28.1342 15.6872 28.2188 15.5342C28.3033 15.3813 28.4386 15.2627 28.6013 15.1989L29.3513 14.9048C29.4429 14.8689 29.5408 14.8513 29.6393 14.8532C29.7377 14.8551 29.8349 14.8763 29.9251 14.9157C30.0154 14.9551 30.097 15.0119 30.1653 15.0829C30.2336 15.1538 30.2872 15.2376 30.3232 15.3292C30.3591 15.4209 30.3767 15.5188 30.3748 15.6173C30.3729 15.7157 30.3517 15.8129 30.3123 15.9031C30.2729 15.9934 30.2161 16.075 30.1451 16.1433C30.0742 16.2116 29.9904 16.2652 29.8988 16.3012L29.1488 16.5952C29.0616 16.6296 28.9688 16.6472 28.8752 16.6472Z" fill="#2D4356"/>
<path d="M40.1249 16.6472C40.0312 16.6472 39.9384 16.6296 39.8513 16.5952L39.1013 16.3012C38.9161 16.2286 38.7674 16.0854 38.6878 15.9031C38.6082 15.7208 38.6043 15.5144 38.6769 15.3292C38.7495 15.1441 38.8927 14.9953 39.0749 14.9157C39.2572 14.8361 39.4636 14.8322 39.6488 14.9048L40.3988 15.1989C40.5615 15.2627 40.6968 15.3813 40.7813 15.5342C40.8659 15.6872 40.8943 15.8648 40.8619 16.0365C40.8294 16.2082 40.738 16.3632 40.6034 16.4747C40.4689 16.5862 40.2996 16.6472 40.1249 16.6472Z" fill="#2D4356"/>
<path d="M31.8749 18.7516C31.676 18.7521 31.4851 18.6735 31.3441 18.5331C31.2032 18.3928 31.1237 18.2022 31.1233 18.0033C31.1229 17.8044 31.2015 17.6134 31.3418 17.4725C31.4821 17.3315 31.6727 17.2521 31.8716 17.2516L32.6216 17.2484H32.6249C32.8239 17.2479 33.0148 17.3265 33.1558 17.4669C33.2967 17.6072 33.3762 17.7978 33.3766 17.9967C33.377 18.1956 33.2984 18.3866 33.1581 18.5275C33.0177 18.6685 32.8271 18.7479 32.6282 18.7484L31.8782 18.7516H31.8749Z" fill="#2D4356"/>
<path d="M36.3749 18.7516C36.176 18.7521 35.9851 18.6735 35.8441 18.5331C35.7032 18.3928 35.6237 18.2022 35.6233 18.0033C35.6229 17.8044 35.7015 17.6134 35.8418 17.4725C35.9821 17.3315 36.1727 17.2521 36.3716 17.2516L37.1216 17.2484H37.1249C37.3239 17.2479 37.5148 17.3265 37.6558 17.4669C37.7967 17.6072 37.8762 17.7978 37.8766 17.9967C37.877 18.1956 37.7984 18.3866 37.6581 18.5275C37.5177 18.6685 37.3271 18.7479 37.1282 18.7484L36.3782 18.7516H36.3749Z" fill="#2D4356"/>
<path d="M34.1249 15.3767C33.926 15.3771 33.7351 15.2985 33.5941 15.1582C33.4532 15.0178 33.3737 14.8272 33.3733 14.6283C33.3729 14.4294 33.4515 14.2385 33.5918 14.0975C33.7321 13.9565 33.9227 13.8771 34.1216 13.8767L34.8716 13.8734C35.0706 13.8725 35.2617 13.9507 35.4029 14.0907C35.5442 14.2307 35.6241 14.4211 35.6249 14.6201C35.6258 14.819 35.5476 15.0101 35.4076 15.1514C35.2676 15.2926 35.0771 15.3725 34.8782 15.3734L34.1282 15.3767H34.1249Z" fill="#2D4356"/>
<path d="M30.6819 25.875C31.9291 27.1918 32.6245 28.9363 32.625 30.75H42C42.7953 30.7489 43.5577 30.4325 44.1201 29.8702C44.6825 29.3078 44.9989 28.5453 45 27.75V25.875H30.6819Z" fill="#FFDB80"/>
<path d="M45.375 22.125H23.625C23.3928 22.1239 23.166 22.1949 22.976 22.3284C22.786 22.4618 22.6422 22.6511 22.5645 22.8699C22.4868 23.0887 22.4791 23.3262 22.5424 23.5496C22.6057 23.773 22.7369 23.9712 22.9178 24.1167C23.8396 23.7527 24.8279 23.5876 25.818 23.6321C26.808 23.6766 27.7775 23.9298 28.6629 24.375H45.375C45.6734 24.375 45.9595 24.2565 46.1705 24.0455C46.3815 23.8345 46.5 23.5484 46.5 23.25C46.5 22.9516 46.3815 22.6655 46.1705 22.4545C45.9595 22.2435 45.6734 22.125 45.375 22.125Z" fill="#D68751"/>
<path d="M46.4137 20.8388C46.0245 17.9551 44.6026 15.3104 42.4117 13.3954C40.2209 11.4804 37.4098 10.425 34.5 10.425C31.5902 10.425 28.7791 11.4804 26.5883 13.3954C24.3974 15.3104 22.9755 17.9551 22.5862 20.8388C22.1154 21.042 21.7143 21.3786 21.4325 21.8071C21.1506 22.2356 21.0003 22.7371 21 23.25C21.0013 23.822 21.1914 24.3775 21.5408 24.8303C21.9724 24.5429 22.4342 24.3036 22.9178 24.1167C22.7369 23.9711 22.6057 23.773 22.5424 23.5496C22.4791 23.3262 22.4868 23.0886 22.5645 22.8698C22.6422 22.651 22.786 22.4618 22.976 22.3284C23.166 22.1949 23.3928 22.1238 23.625 22.125H45.375C45.6734 22.125 45.9595 22.2435 46.1705 22.4545C46.3815 22.6655 46.5 22.9516 46.5 23.25C46.5 23.5484 46.3815 23.8345 46.1705 24.0455C45.9595 24.2565 45.6734 24.375 45.375 24.375H28.6629C29.4192 24.7518 30.1028 25.2597 30.6819 25.875H45V27.75C44.9989 28.5453 44.6825 29.3078 44.1202 29.8702C43.5578 30.4325 42.7953 30.7489 42 30.75H32.625C32.6243 31.2543 32.5701 31.7571 32.4632 32.25H42C43.1932 32.2491 44.3372 31.7746 45.1809 30.9309C46.0246 30.0872 46.4991 28.9432 46.5 27.75V25.6163C46.956 25.4005 47.34 25.0577 47.606 24.629C47.872 24.2004 48.0087 23.7041 47.9996 23.1997C47.9905 22.6953 47.836 22.2042 47.5547 21.7854C47.2734 21.3666 46.8772 21.0379 46.4137 20.8388ZM24.1312 20.625C24.5612 18.1874 25.8362 15.9792 27.7324 14.3881C29.6286 12.7971 32.0247 11.925 34.5 11.925C36.9753 11.925 39.3714 12.7971 41.2676 14.3881C43.1638 15.9792 44.4388 18.1874 44.8688 20.625H24.1312Z" fill="#2D4356"/>
<path opacity="0.5" d="M44.8687 20.625H44.7187C44.1421 18.3522 42.8242 16.3364 40.9735 14.8966C39.1228 13.4567 36.8448 12.675 34.5 12.675C32.1551 12.675 29.8772 13.4567 28.0265 14.8966C26.1757 16.3364 24.8578 18.3522 24.2812 20.625H24.1312C24.5612 18.1874 25.8362 15.9792 27.7324 14.3881C29.6286 12.7971 32.0247 11.925 34.5 11.925C36.9752 11.925 39.3714 12.7971 41.2676 14.3881C43.1637 15.9792 44.4388 18.1874 44.8687 20.625Z" fill="#F9EDD2"/>
<path opacity="0.45" d="M42 30H32.5847C32.6113 30.2491 32.6247 30.4995 32.625 30.75H42C42.7953 30.7489 43.5578 30.4325 44.1202 29.8702C44.6826 29.3078 44.999 28.5453 45 27.75V27C44.999 27.7953 44.6826 28.5578 44.1202 29.1202C43.5578 29.6825 42.7953 29.9989 42 30Z" fill="#AD9359"/>
<path opacity="0.4" d="M22.5675 22.875C22.5221 22.9948 22.4992 23.1219 22.5 23.25C22.5008 23.4164 22.5388 23.5806 22.6111 23.7305C22.6833 23.8805 22.7881 24.0124 22.9178 24.1167C23.7403 23.793 24.6161 23.6262 25.5 23.625H23.625C23.3929 23.6243 23.1667 23.5519 22.9774 23.4176C22.7881 23.2833 22.6449 23.0938 22.5675 22.875Z" fill="#72492D"/>
<path opacity="0.4" d="M46.4325 22.875C46.3551 23.0938 46.2119 23.2833 46.0226 23.4176C45.8333 23.5519 45.6071 23.6243 45.375 23.625H25.5C26.5982 23.626 27.6811 23.8828 28.6629 24.375H45.375C45.6731 24.3741 45.9587 24.2553 46.1695 24.0445C46.3803 23.8337 46.4991 23.5481 46.5 23.25C46.5008 23.1219 46.4779 22.9948 46.4325 22.875Z" fill="#72492D"/>
</g>
<defs>
<clipPath id="clip0_6636_2676">
<rect width="48" height="48" fill="white"/>
</clipPath>
</defs>
</svg>
