<svg width="18" height="18" viewBox="0 0 18 18" fill="none" xmlns="http://www.w3.org/2000/svg">
<g clip-path="url(#clip0_1_1193)">
<path d="M16.8845 3.35152H10.6943C10.6857 3.35152 10.6782 3.34699 10.6746 3.33971L10.0362 2.04469C9.85599 1.67816 9.47559 1.44141 9.0669 1.44141H5.32467C4.72894 1.44141 4.2443 1.92618 4.2443 2.52205V3.58127H3.18467C2.58907 3.58127 2.10444 4.06591 2.10444 4.66164V5.72086H1.04521C0.449479 5.72086 -0.0351562 6.2055 -0.0351562 6.80123V15.5436C-0.0351562 16.1394 0.449479 16.624 1.04521 16.624H12.6052C13.2009 16.624 13.6856 16.1394 13.6856 15.5436V14.4843H14.7449C15.3407 14.4843 15.8253 13.9996 15.8253 13.404V12.3448H16.8845C17.4802 12.3448 17.9649 11.8602 17.9649 11.2644V4.43217C17.9649 3.83629 17.4802 3.35152 16.8845 3.35152ZM12.6052 15.5652H1.04521C1.0334 15.5652 1.02365 15.5556 1.02365 15.5436V6.80123C1.02365 6.78929 1.0334 6.77967 1.04521 6.77967H4.78771C4.79128 6.77967 4.79472 6.78091 4.79774 6.78256C4.79815 6.78283 4.7987 6.7827 4.79911 6.78297C4.80035 6.78379 4.80103 6.7853 4.80213 6.78627C4.80392 6.78805 4.80598 6.78956 4.80708 6.79176L5.4458 8.08719C5.62913 8.4588 6.00047 8.68979 6.41479 8.68979H12.6052C12.6081 8.68979 12.611 8.69034 12.6136 8.69144C12.6213 8.69473 12.6266 8.70242 12.6266 8.71135C12.6266 12.4451 12.6267 15.5096 12.6267 15.5436C12.6267 15.5556 12.6171 15.5652 12.6052 15.5652ZM14.7665 13.404C14.7665 13.4158 14.7569 13.4255 14.7451 13.4255H13.6856V8.71135C13.6856 8.11548 13.2008 7.63084 12.6051 7.63084H6.41479C6.40683 7.63084 6.39914 7.62603 6.39557 7.61876L5.75671 6.32333C5.57351 5.95213 5.20231 5.72086 4.78785 5.72086H3.16324V4.66164C3.16324 4.6497 3.17286 4.64008 3.18467 4.64008H6.92731C6.93555 4.64008 6.94296 4.64461 6.94667 4.6523L7.58553 5.94773C7.769 6.31935 8.1402 6.5502 8.55438 6.5502H14.7451C14.7569 6.5502 14.7665 6.55981 14.7665 6.57176V13.404ZM16.9061 11.2644C16.9061 11.2764 16.8965 11.286 16.8845 11.286H15.8253V6.57176C15.8253 5.97602 15.3408 5.49139 14.7451 5.49139H8.55438C8.54628 5.49139 8.53873 5.48658 8.53502 5.47916L7.8963 4.18415C7.71324 3.81226 7.3419 3.58127 6.92731 3.58127H5.30311V2.52205C5.30311 2.50997 5.31272 2.50022 5.32453 2.50022H9.06676C9.07486 2.50022 9.08242 2.50475 9.08612 2.5123L9.72498 3.80814C9.90831 4.17948 10.2797 4.41033 10.6943 4.41033H16.8845C16.8963 4.41033 16.9059 4.42008 16.9059 4.4323V11.2644H16.9061Z" fill="white"/>
<path d="M9.37273 13.2632C9.08035 13.2632 8.84332 13.5002 8.84332 13.7926V14.0987C8.84332 14.3911 9.08035 14.6281 9.37273 14.6281C9.6651 14.6281 9.90213 14.3911 9.90213 14.0987V13.7926C9.90213 13.5002 9.6651 13.2632 9.37273 13.2632Z" fill="white"/>
<path d="M10.9155 13.2632C10.6231 13.2632 10.3861 13.5002 10.3861 13.7926V14.0987C10.3861 14.3911 10.6231 14.6281 10.9155 14.6281C11.2079 14.6281 11.4449 14.3911 11.4449 14.0987V13.7926C11.4449 13.5002 11.2079 13.2632 10.9155 13.2632Z" fill="white"/>
</g>
<defs>
<clipPath id="clip0_1_1193">
<rect width="18" height="18" fill="white"/>
</clipPath>
</defs>
</svg>
