<svg width="24" height="24" viewBox="0 0 24 24" fill="none" xmlns="http://www.w3.org/2000/svg">
<g clip-path="url(#clip0_3131_470)">
<path d="M13 21C11.573 19.974 9.41 17.146 9 15C8.514 15.77 7.499 17 7 17C5.501 16.112 6.426 13.027 7 11C5.404 9.567 4.532 8.542 4.5 7C1.15 3.56 4.056 1.73 7 4H8C16.482 4.5 14.421 12.07 17 15.5C19.295 16.022 20.665 17.754 22 19C19.914 18.8 19.216 18.656 18.5 19C18.978 20.64 20.623 21.2 22 22" stroke-width="2" stroke-linecap="round" stroke-linejoin="round"/>
<path d="M9 7H9.01" stroke-width="2" stroke-linecap="round" stroke-linejoin="round"/>
</g>
<defs>
<clipPath id="clip0_3131_470">
<rect width="24" height="24" fill="white"/>
</clipPath>
</defs>
</svg>
