<svg width="18" height="18" viewBox="0 0 18 18" fill="none" xmlns="http://www.w3.org/2000/svg">
<g clip-path="url(#clip0_5958_863)">
<path d="M7.33875 4.5L13.5 10.6613L11.9595 12.2017C11.5579 12.6194 11.077 12.9528 10.545 13.1824C10.013 13.412 9.44058 13.5332 8.86118 13.5389C8.28178 13.5445 7.70706 13.4346 7.17066 13.2155C6.63425 12.9964 6.14694 12.6725 5.73722 12.2628C5.3275 11.8531 5.00361 11.3657 4.7845 10.8293C4.56539 10.2929 4.45546 9.71822 4.46115 9.13882C4.46683 8.55942 4.58801 7.98698 4.8176 7.45497C5.04719 6.92297 5.38058 6.4421 5.79825 6.0405L7.33875 4.5Z" stroke="black" stroke-width="1.5" stroke-linecap="round" stroke-linejoin="round"/>
<path d="M3 15L5.625 12.375" stroke="black" stroke-width="1.5" stroke-linecap="round" stroke-linejoin="round"/>
<path d="M11.25 3L8.625 5.625" stroke="black" stroke-width="1.5" stroke-linecap="round" stroke-linejoin="round"/>
<path d="M15 6.75L12.375 9.375" stroke="black" stroke-width="1.5" stroke-linecap="round" stroke-linejoin="round"/>
</g>
<defs>
<clipPath id="clip0_5958_863">
<rect width="18" height="18" fill="white"/>
</clipPath>
</defs>
</svg>
