<svg width="24" height="24" viewBox="0 0 24 24" fill="none" xmlns="http://www.w3.org/2000/svg">
<path d="M12.0058 14.3959C12.6728 14.3959 13.2379 14.1624 13.7011 13.6954C14.1643 13.2285 14.3959 12.6615 14.3959 11.9943C14.3959 11.3273 14.1624 10.7623 13.6954 10.299C13.2285 9.83583 12.6615 9.60425 11.9943 9.60425C11.3273 9.60425 10.7623 9.83775 10.299 10.3048C9.83583 10.7716 9.60425 11.3387 9.60425 12.0058C9.60425 12.6728 9.83775 13.2379 10.3048 13.7011C10.7716 14.1643 11.3387 14.3959 12.0058 14.3959ZM12.0065 21.5834C10.685 21.5834 9.44315 21.3319 8.28103 20.8287C7.11871 20.3256 6.10235 19.6388 5.23185 18.7683C4.36136 17.8978 3.67456 16.8809 3.17144 15.7175C2.66831 14.554 2.41675 13.3109 2.41675 11.9881C2.41675 10.6653 2.66831 9.42216 3.17144 8.25875C3.67456 7.09533 4.36136 6.08237 5.23185 5.21987C6.10235 4.35737 7.11929 3.67456 8.28271 3.17144C9.44612 2.66831 10.6892 2.41675 12.0121 2.41675C13.3349 2.41675 14.578 2.66831 15.7414 3.17144C16.9048 3.67456 17.9178 4.35737 18.7803 5.21987C19.6428 6.08237 20.3256 7.09663 20.8287 8.26258C21.3319 9.42854 21.5834 10.6722 21.5834 11.9936C21.5834 13.3152 21.3319 14.557 20.8287 15.7191C20.3256 16.8814 19.6428 17.8964 18.7803 18.764C17.9178 19.6314 16.9035 20.3183 15.7376 20.8244C14.5716 21.3304 13.3279 21.5834 12.0065 21.5834ZM12.0121 20.1459C14.2721 20.1459 16.1928 19.3513 17.774 17.7621C19.3553 16.1728 20.1459 14.2482 20.1459 11.9881C20.1459 9.72802 19.3568 7.80737 17.7786 6.22612C16.2004 4.64487 14.2742 3.85425 12.0001 3.85425C9.748 3.85425 7.82735 4.64335 6.2381 6.22157C4.64886 7.7998 3.85425 9.72596 3.85425 12.0001C3.85425 14.2522 4.64886 16.1728 6.2381 17.7621C7.82735 19.3513 9.75198 20.1459 12.0121 20.1459Z" fill="#C30E2E"/>
</svg>
