<svg width="24" height="24" viewBox="0 0 24 24" fill="none" xmlns="http://www.w3.org/2000/svg">
<g clip-path="url(#clip0_9600_2862)">
<path d="M9.99953 20.777C9.12914 20.5796 8.29321 20.2529 7.51953 19.808" stroke="#0B51C5" stroke-width="1.5" stroke-linecap="round" stroke-linejoin="round"/>
<path d="M14 3.22302C15.9882 3.67709 17.7632 4.79271 19.0347 6.38723C20.3061 7.98174 20.9984 9.96067 20.9984 12C20.9984 14.0394 20.3061 16.0183 19.0347 17.6128C17.7632 19.2073 15.9882 20.323 14 20.777" stroke="#0B51C5" stroke-width="1.5" stroke-linecap="round" stroke-linejoin="round"/>
<path d="M4.57856 17.093C4.03307 16.3004 3.61876 15.4252 3.35156 14.501" stroke="#0B51C5" stroke-width="1.5" stroke-linecap="round" stroke-linejoin="round"/>
<path d="M3.12402 10.5C3.28402 9.55002 3.59202 8.65002 4.02402 7.82502L4.19302 7.52002" stroke="#0B51C5" stroke-width="1.5" stroke-linecap="round" stroke-linejoin="round"/>
<path d="M6.90723 4.57902C7.84288 3.93492 8.89255 3.47474 10.0002 3.22302" stroke="#0B51C5" stroke-width="1.5" stroke-linecap="round" stroke-linejoin="round"/>
</g>
<defs>
<clipPath id="clip0_9600_2862">
<rect width="24" height="24" fill="white"/>
</clipPath>
</defs>
</svg>
