<svg width="18" height="18" viewBox="0 0 18 18" fill="none" xmlns="http://www.w3.org/2000/svg">
<g clip-path="url(#clip0_8468_6371)">
<path d="M6 9C6 9.19891 6.07902 9.38968 6.21967 9.53033C6.36032 9.67098 6.55109 9.75 6.75 9.75C6.94891 9.75 7.13968 9.67098 7.28033 9.53033C7.42098 9.38968 7.5 9.19891 7.5 9C7.5 8.80109 7.42098 8.61032 7.28033 8.46967C7.13968 8.32902 6.94891 8.25 6.75 8.25C6.55109 8.25 6.36032 8.32902 6.21967 8.46967C6.07902 8.61032 6 8.80109 6 9Z" stroke="black" stroke-width="1.5" stroke-linecap="round" stroke-linejoin="round"/>
<path d="M10.5 9C10.5 9.19891 10.579 9.38968 10.7197 9.53033C10.8603 9.67098 11.0511 9.75 11.25 9.75C11.4489 9.75 11.6397 9.67098 11.7803 9.53033C11.921 9.38968 12 9.19891 12 9C12 8.80109 11.921 8.61032 11.7803 8.46967C11.6397 8.32902 11.4489 8.25 11.25 8.25C11.0511 8.25 10.8603 8.32902 10.7197 8.46967C10.579 8.61032 10.5 8.80109 10.5 9Z" stroke="black" stroke-width="1.5" stroke-linecap="round" stroke-linejoin="round"/>
<path d="M11.6251 12.75C11.6251 13.5 12.7501 15 13.1251 15C14.2501 15 15.2498 13.7497 15.7501 12.75C16.2503 11.4997 16.1251 8.37525 14.6251 4.125C13.5323 3.36375 12.3751 3.12 11.2501 3L10.5211 4.44225C9.51527 4.26862 8.48715 4.26862 7.48133 4.44225L6.75008 3C5.62508 3.12 4.46783 3.36375 3.37508 4.125C1.87508 8.37525 1.74983 11.4997 2.25008 12.75C2.75033 13.7497 3.75008 15 4.87508 15C5.25008 15 6.37508 13.5 6.37508 12.75" stroke="black" stroke-width="1.5" stroke-linecap="round" stroke-linejoin="round"/>
<path d="M5.25 12.375C7.875 13.125 10.125 13.125 12.75 12.375" stroke="black" stroke-width="1.5" stroke-linecap="round" stroke-linejoin="round"/>
</g>
<defs>
<clipPath id="clip0_8468_6371">
<rect width="18" height="18" fill="white"/>
</clipPath>
</defs>
</svg>
