<svg width="17" height="16" viewBox="0 0 17 16" fill="none" xmlns="http://www.w3.org/2000/svg">
<path d="M12.5 15.75H4.25V6L9.5 0.75L10.4375 1.6875C10.525 1.775 10.5969 1.89375 10.6531 2.04375C10.7094 2.19375 10.7375 2.3375 10.7375 2.475V2.7375L9.9125 6H14.75C15.15 6 15.5 6.15 15.8 6.45C16.1 6.75 16.25 7.1 16.25 7.5V9C16.25 9.0875 16.2375 9.18125 16.2125 9.28125C16.1875 9.38125 16.1625 9.475 16.1375 9.5625L13.8875 14.85C13.775 15.1 13.5875 15.3125 13.325 15.4875C13.0625 15.6625 12.7875 15.75 12.5 15.75ZM5.75 14.25H12.5L14.75 9V7.5H8L9.0125 3.375L5.75 6.6375V14.25ZM4.25 6V7.5H2V14.25H4.25V15.75H0.5V6H4.25Z" fill="white"/>
</svg>
