<?xml version="1.0" encoding="UTF-8"?>
<svg width="48px" height="48px" viewBox="0 0 48 48" version="1.1" xmlns="http://www.w3.org/2000/svg" xmlns:xlink="http://www.w3.org/1999/xlink">
    <!-- Generator: Sketch 64 (93537) - https://sketch.com -->
    <title>jogging</title>
    <desc>Created with Sketch.</desc>
    <g id="jogging" stroke="none" stroke-width="1" fill="none" fill-rule="evenodd">
        <rect fill="#FFFFFF" opacity="0" x="0" y="0" width="48" height="48"></rect>
        <g id="directions_run-24px">
            <polygon id="Path" points="0 0 48 0 48 48 0 48"></polygon>
        </g>
        <g id="noun_Running_27587" transform="translate(8.000000, 4.000000)" fill="#000000" fill-rule="nonzero">
            <path d="M18.6603734,1.48809268 C19.8004886,-0.10440619 22.038733,-0.476717601 23.6480528,0.653498169 C25.2621338,1.7832855 25.390689,3.73181519 24.2484095,5.3247425 C23.1052644,6.91381387 21.1215332,7.56203846 19.5113477,6.4283952 C17.8985652,5.29518037 17.5146312,3.08273373 18.6603734,1.48809268 Z" id="Path"></path>
            <path d="M32.9988331,8.68432672 C32.976025,7.8007452 31.9492298,6.81418014 30.8923107,7.03009942 C30.4877895,7.11188047 29.9972,7.30702997 29.7179083,7.71939686 L28.1626536,9.97811161 L26.6284856,12.2346628 C26.6284856,12.2346628 24.4531085,10.1122498 23.7748901,9.55968687 C23.0962413,9.00755659 22.4218959,8.55970798 21.5637947,8.05257892 C20.7052631,7.54544986 18.4834091,7 17.5314934,7.12313078 L16.9143834,7.2131332 L10.8422627,8.09671472 C9.78104021,8.30311452 9.22503879,9.04649995 9.00771625,9.43377001 L6.36713987,14.1203868 C6.11969342,14.586409 5.9324948,15.0372865 6.02329689,15.5149917 C6.18940877,16.400304 7.06902711,17.0744568 7.99598303,16.9134909 C8.49431866,16.8273829 9.07398887,16.4959316 9.46043567,15.9152429 L11.7649152,12.1481221 L14.4356155,11.7578231 L11.2588334,19.0082109 C9.49185061,22.1323336 12.2107492,24.1097908 13.1785876,25.0820766 L13.5176968,25.3771807 L18.5290253,29.741433 L14.9666571,35.8507805 C14.7747247,36.1052104 14.7101735,36.4920478 14.7101735,36.8148449 C14.7101735,38.0363682 15.6715568,39 16.8214296,39 C17.7165403,39 18.4188579,38.4863804 18.8027226,37.7767459 L19.7266661,36.1497789 L22.7407791,30.8405011 C23.752082,28.8080905 22.2966665,27.0906885 22.2966665,27.0906885 L17.1803346,21.9467036 L18.546239,19.5763512 L21.7385134,14.0753856 L25.8775394,16.5210284 C25.8775394,16.5210284 27.5003578,17.6975505 28.7096178,15.9130793 L30.1542747,13.7945607 L32.475968,10.3463427 C32.4815624,10.338554 32.4850051,10.3320635 32.4888782,10.3242748 C32.9652664,9.5856491 33.0087309,9.12438667 32.9988331,8.68432672 Z" id="Path"></path>
            <path d="M12.4921011,26.3630932 L12.1364773,26.0658795 C11.6574924,25.6072593 10.775437,24.9217153 10.1658609,24 C10.1414597,23.9636893 5.59697685,31.2669021 5.59697685,31.2669021 L0.542781655,36.4514369 C0.287473628,36.6588356 0.132481321,37.0220004 0.0583742121,37.3378712 C-0.222690554,38.5328004 0.540522292,39.6891135 1.71765045,39.9438061 C2.63449999,40.1425271 3.47181995,39.796284 4.02897888,39.1875383 L5.34935066,37.8008304 L9.65750417,33.2771079 C10.7740814,31.9671983 12.9525593,29.0371486 14,27.6165974 L12.4921011,26.3630932 Z" id="Path"></path>
        </g>
    </g>
</svg>