<?xml version="1.0" encoding="UTF-8"?>
<svg width="90px" height="80px" viewBox="0 0 90 80" version="1.1" xmlns="http://www.w3.org/2000/svg" xmlns:xlink="http://www.w3.org/1999/xlink">
    <!-- Generator: Sketch 61.2 (89653) - https://sketch.com -->
    <title>noun_Hot soup_2747111</title>
    <desc>Created with Sketch.</desc>
    <g id="Today" stroke="none" stroke-width="1" fill="none" fill-rule="evenodd">
        <g id="Menu" transform="translate(-29.000000, -266.000000)" fill="#000000" fill-rule="nonzero">
            <g id="noun_Hot-soup_2747111" transform="translate(29.000000, 266.000000)">
                <path d="M25,23.1 C25.5,23.9 26,24.6 26.4,25.4 C27.5,28 26.6,31.5 24.3,33 C23.3,33.7 23,35.1 23.7,36.2 C24.1,36.8 24.9,37.2 25.6,37.2 C26,37.2 26.5,37.1 26.9,36.8 C31,34 32.6,28.2 30.6,23.5 C30.1,22.4 29.5,21.4 28.8,20.5 C28.1,19.5 27.4,18.5 27.2,17.5 C27,16.6 27.1,15.4 27.7,14.5 C28.2,13.6 29,13 29.8,12.8 C31,12.5 31.8,11.3 31.5,10 C31.2,8.8 30,8 28.7,8.3 C26.7,8.8 24.9,10.2 23.7,12.1 C22.5,14.1 22.1,16.5 22.7,18.7 C23.2,20.4 24.2,21.8 25,23.1 Z" id="Path"></path>
                <path d="M37.8,15.3 C38.3,16.1 38.8,16.8 39.2,17.6 C40.3,20.2 39.4,23.7 37.1,25.2 C36.1,25.9 35.8,27.3 36.5,28.4 C36.9,29 37.7,29.4 38.4,29.4 C38.8,29.4 39.3,29.3 39.7,29 C43.8,26.2 45.4,20.4 43.4,15.7 C42.9,14.6 42.3,13.6 41.6,12.7 C40.9,11.7 40.2,10.7 40,9.7 C39.8,8.8 39.9,7.6 40.5,6.7 C41,5.8 41.8,5.2 42.6,5 C43.8,4.7 44.6,3.5 44.3,2.2 C44,1 42.8,0.2 41.5,0.5 C39.5,1 37.7,2.4 36.5,4.3 C35.3,6.3 34.9,8.7 35.5,10.9 C36,12.6 37,14 37.8,15.3 Z" id="Path"></path>
                <path d="M22,74.2 L10.4,74.2 C9.9,74.2 9.5,74.6 9.5,75.1 L9.5,78.6 C9.5,79.1 9.9,79.5 10.4,79.5 L71.9,79.5 C72.4,79.5 72.8,79.1 72.8,78.6 L72.8,75.1 C72.8,74.6 72.4,74.2 71.9,74.2 L60.3,74.2 C71.6,68.3 77.9,57.9 82,45.3 C82.4,44.2 81.5,43 80.3,43 L2,43 C0.8,43 -9.85878046e-14,44.2 0.3,45.3 C4.3,57.9 10.7,68.3 22,74.2 Z" id="Path"></path>
                <path d="M57.6,40.5 L64.3,40.5 C64.4,40.5 64.6,40.5 64.7,40.4 L87.7,22.7 C89.1,21.6 89.8,20.1 89.8,18.5 C89.8,17.2 89.4,15.9 88.4,14.9 C86.3,12.6 82.7,12.5 80.5,14.8 L57.2,39.4 C56.8,39.9 57.1,40.5 57.6,40.5 Z" id="Path"></path>
            </g>
        </g>
    </g>
</svg>