<?xml version="1.0" encoding="UTF-8"?>
<svg width="48px" height="48px" viewBox="0 0 48 48" version="1.1" xmlns="http://www.w3.org/2000/svg" xmlns:xlink="http://www.w3.org/1999/xlink">
    <!-- Generator: Sketch 64 (93537) - https://sketch.com -->
    <title>situps</title>
    <desc>Created with Sketch.</desc>
    <g id="situps" stroke="none" stroke-width="1" fill="none" fill-rule="evenodd">
        <rect fill="#FFFFFF" opacity="0" x="0" y="0" width="48" height="48"></rect>
        <g id="directions_run-24px">
            <polygon id="Path" points="0 0 48 0 48 48 0 48"></polygon>
        </g>
        <g id="noun_Exercise-Partner_2401356" transform="translate(4.000000, 8.000000)" fill="#000000" fill-rule="nonzero">
            <g id="Group">
                <path d="M36.3355,28.79775 C35.45625,28.79775 36.18675,31.03775 36.3355,30.373 C36.48475,29.70825 36.25975,29.16175 36.8355,28.79775 L39.01375,27.56775 L31.1045,17.4845 C30.56775,16.8 29.7605,16.36725 28.89275,16.29875 C28.02575,16.22975 27.15975,16.52975 26.52225,17.1215 L18.77975,24.29475 C16.3565,21.60425 14.45425,18.181 12.96225,15.7095 L11.72625,18.161 C11.29125,19.02625 10.418,19.56375 9.448,19.56375 C9.05125,19.56375 8.65475,19.469 8.30075,19.29025 C7.693,18.984 7.241,18.45875 7.0275,17.812 C6.814,17.16475 6.8655,16.47375 7.1725,15.86525 L8.86775,12.5025 C8.27325,12.435 7.68825,12.52325 7.15975,12.80725 C5.222,13.84775 3.7105,16.7855 5.23925,20.34225 C7.37,25.21975 9.306,27.896 13.5175,31.57325 C16.80275,34.02775 19.123,32.479 20.79925,30.9175 C20.91125,30.813 21.01825,30.71175 21.12025,30.61275 C21.22175,30.53925 21.3215,30.461 21.41575,30.3735 L28.281,24.01225 L34.37475,31.78 C34.991,32.566 35.9085,32.9765 36.8355,32.9765 C37.5105,32.9765 38.19025,32.759 38.7625,32.31 C40.12,31.24475 40.35725,29.28025 39.29225,27.92275 L39.01375,27.56775 L36.8355,28.79775 C36.4255,29.0575 36.8175,28.79775 36.3355,28.79775 Z" id="Path"></path>
                <path d="M11.571,4.51675 C11.37675,3.55675 10.93525,2.63425 10.22875,1.856 C8.14075,-0.4435 4.58325,-0.6155 2.283,1.47275 C0.868,2.75775 0.262,4.59825 0.489,6.3605 C0.81975,6.11575 1.2145,5.94825 1.64975,5.88775 L11.571,4.51675 Z" id="Path"></path>
                <path d="M9.694,9.92575 L3.7195,10.751 C5.64875,11.6345 7.986,11.37275 9.694,9.92575 Z" id="Path"></path>
                <path d="M8.54875,18.7995 C8.83725,18.945 9.145,19.01375 9.44775,19.01375 C10.17925,19.01375 10.88375,18.6115 11.2355,17.9135 L11.235,17.9135 L16.4525,7.5645 C16.78825,6.89775 16.7275,6.10775 16.2935,5.50075 C15.8595,4.89375 15.132,4.58025 14.3925,4.683 L1.726,6.43225 C0.632,6.584 -0.13225,7.59325 0.019,8.68775 C0.17025,9.78175 1.18,10.54625 2.27425,10.395 L11.165,9.1665 L7.66325,16.113 C7.16575,17.09925 7.5625,18.3025 8.54875,18.7995 Z" id="Path"></path>
            </g>
        </g>
    </g>
</svg>