<?xml version="1.0" encoding="UTF-8"?>
<svg width="48px" height="48px" viewBox="0 0 48 48" version="1.1" xmlns="http://www.w3.org/2000/svg" xmlns:xlink="http://www.w3.org/1999/xlink">
    <!-- Generator: Sketch 64 (93537) - https://sketch.com -->
    <title>fasting</title>
    <desc>Created with Sketch.</desc>
    <g id="fasting" stroke="none" stroke-width="1" fill="none" fill-rule="evenodd">
        <rect fill="#FFFFFF" opacity="0" x="0" y="0" width="48" height="48"></rect>
        <g id="directions_run-24px">
            <polygon id="Path" points="0 0 48 0 48 48 0 48"></polygon>
        </g>
        <g id="noun_fasting_2939958" transform="translate(4.000000, 4.000000)">
            <g id="Group" transform="translate(5.000000, 4.000000)" fill="#000000">
                <g fill-rule="nonzero">
                    <path d="M15.6556181,0.469427451 C19.8490721,0.469427451 23.6456212,2.16922883 26.393844,4.91740409 C29.1420192,7.66560307 30.8418206,11.46217 30.8418206,15.65563 C30.8418206,19.849084 29.1420192,23.6456331 26.393844,26.3938558 C23.645645,29.1420311 19.849078,30.8418325 15.6556181,30.8418325 C11.4621641,30.8418325 7.66561494,29.1420311 4.91739222,26.3938558 C2.16921696,23.6456568 0.469415586,19.8490899 0.469415586,15.65563 C0.469415586,11.4621759 2.16921696,7.6656268 4.91739222,4.91740409 C7.66559121,2.16922883 11.4621581,0.469427451 15.6556181,0.469427451 Z M25.4990462,5.8121722 C22.9799389,3.29308273 19.4997367,1.73497547 15.6556181,1.73497547 C11.811452,1.73497547 8.33125574,3.29308273 5.81219,5.8121722 C3.29310053,8.33127947 1.73499327,11.8114816 1.73499327,15.6556003 C1.73499327,19.4997664 3.29310053,22.9799626 5.81219,25.4990284 C8.33129727,28.0181178 11.8114994,29.5762251 15.6556181,29.5762251 C19.4997842,29.5762251 22.9799804,28.0181178 25.4990462,25.4990284 C28.0181356,22.9799211 29.5762429,19.4997189 29.5762429,15.6556003 C29.5762429,11.8114342 28.0181356,8.33123794 25.4990462,5.8121722 Z" id="Shape"></path>
                    <polygon id="Path" points="28.842555 8.72360475 3.13022883 23.5686226 2.49828235 22.4721928 28.2106085 7.62717494"></polygon>
                </g>
                <g transform="translate(4.783951, 7.080247)">
                    <path d="M15.9813994,10.1451231 C16.760978,7.23573124 15.034411,4.24520602 12.1250191,3.46563926 C9.21562719,2.68608436 6.22510196,4.41265137 5.4455352,7.32204328 C4.66595658,10.2314352 6.39254731,13.2219604 9.30193922,14.0015272 C12.2113311,14.7811058 15.2018564,13.0545151 15.9813638,10.1451231 L15.9813994,10.1451231 Z M14.2138653,9.67130269 L14.2138887,9.67125598 C14.4727755,8.70502387 14.3152949,7.72492251 13.8514232,6.92147312 C13.3877383,6.11839746 12.6177305,5.49213986 11.6512908,5.23316222 L11.6511974,5.23313887 C10.6853865,4.97434513 9.70558763,5.1318026 8.90229841,5.59555748 L8.90136422,5.59555748 C8.09826483,6.05924235 7.4719835,6.82929165 7.21302959,7.79578477 C6.95425958,8.76161943 7.11171706,9.74139453 7.57547134,10.5447075 L7.57547134,10.5456417 C8.03915621,11.3487411 8.80920551,11.9750224 9.77569863,12.2339763 L9.77579205,12.2339996 C10.7420004,12.4928634 11.7221255,12.3353828 12.5255512,11.871511 C13.3286506,11.4078262 13.9549082,10.6378006 14.2138621,9.67135493 L14.2138621,9.67130822 L14.2138653,9.67130269 Z M13.4417374,7.15875633 C13.8446064,7.8565491 13.9811847,8.70843408 13.7559986,9.54892349 L13.7622577,9.55060504 L13.7622344,9.55069845 L13.7559753,9.54901691 C13.5308355,10.3892512 12.986416,11.058736 12.2882732,11.4618162 C11.5904804,11.8646852 10.7385717,12.0012635 9.8980823,11.7760775 L9.89798888,11.7760541 C9.05773082,11.5509144 8.38824602,11.0064711 7.98516584,10.308352 L7.98476881,10.3085856 C7.58210981,9.61072161 7.44569527,8.75876545 7.67092816,7.91811587 C7.89606792,7.07783408 8.4405112,6.40832555 9.13865397,6.00524537 L9.13842042,6.00484834 C9.83623693,5.60218934 10.6882168,5.4657748 11.5288249,5.69103083 L11.5289183,5.69105418 C12.3691764,5.91619394 13.0386612,6.46063722 13.4417413,7.15875626 L13.4417374,7.15875633 Z" id="Shape"></path>
                    <path d="M3.10097401,0.44691284 C1.8703186,0.44691284 0.872699753,2.02741971 0.872699753,3.97709295 C0.872699753,5.64632622 1.60405041,7.04483037 2.58675003,7.41262049 L2.58675003,17.0233917 L3.61519799,17.0233917 L3.61519799,7.41262049 C4.59789168,7.04483037 5.32922454,5.64632622 5.32922454,3.97709295 C5.32922454,2.02741971 4.3316057,0.44691284 3.10097401,0.44691284 L3.10097401,0.44691284 Z" id="Path"></path>
                    <path d="M20.2379175,0.443768827 C20.2379175,0.269051909 20.3795873,0.127382712 20.5543036,0.127382712 C20.7290206,0.127382712 20.8706898,0.269052502 20.8706898,0.443768827 L20.8706898,5.06235262 C20.8706898,5.46825767 20.7048479,5.83707286 20.4377165,6.10420713 C20.1705384,6.37133844 19.8017184,6.53718034 19.3958383,6.53718034 L18.005651,6.53718034 C17.5997459,6.53718034 17.2309307,6.37133844 16.9637965,6.10420713 C16.696642,5.83705269 16.5308001,5.46825648 16.5308001,5.06235262 L16.5308001,0.443768827 C16.5308001,0.269051909 16.6724699,0.127382712 16.8471862,0.127382712 C17.0219032,0.127382712 17.1635723,0.269052502 17.1635723,0.443768827 L17.1635723,5.06235262 C17.1635723,5.29358761 17.2584159,5.50406026 17.4111793,5.65682604 C17.563919,5.80956572 17.7744154,5.9044093 18.0056527,5.9044093 L19.3958401,5.9044093 C19.6270751,5.9044093 19.8375715,5.80958885 19.9903372,5.65682604 C20.1430769,5.50408636 20.2379205,5.29358999 20.2379205,5.06235262 L20.2379205,0.443768827 L20.2379175,0.443768827 Z" id="Path" fill-rule="nonzero"></path>
                    <path d="M18.384374,0.462929506 C18.384374,0.288212588 18.5260437,0.146543391 18.7007601,0.146543391 C18.875477,0.146543391 19.0171462,0.288213181 19.0171462,0.462929506 L19.0171462,6.2207788 C19.0171462,6.39549572 18.8754764,6.53716492 18.7007601,6.53716492 C18.5260431,6.53716492 18.384374,6.39549513 18.384374,6.2207788 L18.384374,0.462929506 L18.384374,0.462929506 Z" id="Path" fill-rule="nonzero"></path>
                    <polygon id="Path" points="18.1227684 6.22080253 18.1227684 17.0233323 19.2786972 17.0233323 19.2786972 6.22080253"></polygon>
                </g>
            </g>
            <rect id="Rectangle" x="0" y="0" width="40" height="40"></rect>
        </g>
    </g>
</svg>