<?xml version="1.0" encoding="UTF-8"?>
<svg width="48px" height="48px" viewBox="0 0 48 48" version="1.1" xmlns="http://www.w3.org/2000/svg" xmlns:xlink="http://www.w3.org/1999/xlink">
    <!-- Generator: Sketch 64 (93537) - https://sketch.com -->
    <title>hydration</title>
    <desc>Created with Sketch.</desc>
    <g id="hydration" stroke="none" stroke-width="1" fill="none" fill-rule="evenodd">
        <rect fill="#FFFFFF" opacity="0" x="0" y="0" width="48" height="48"></rect>
        <g id="noun_Drinking-Water_1926298" transform="translate(14.000000, 4.000000)" fill="#000000" fill-rule="nonzero">
            <g id="Group">
                <path d="M15.1861905,7.44701195 C15.1763492,8.05577689 14.9973016,8.41338645 14.6668254,8.78581673 C14.1760317,9.33513944 13.2187302,9.76605578 12.3704762,9.98565737 C11.9488889,10.0989641 11.5612698,10.1684462 11.2869841,10.2076494 C11.1496825,10.2277291 11.0401587,10.2398406 10.9688889,10.2473307 C10.9668254,10.24749 10.9655556,10.2476494 10.9638095,10.2478088 L4.87174603,10.2478088 C4.85365079,10.2478088 4.83571429,10.2497211 4.81777778,10.2506773 C4.53174603,10.2535458 4.05380952,10.3150598 3.50984127,10.5904382 C2.65619048,11.0156175 1.73539683,11.9453386 1.0915873,13.592988 C0.43968254,15.2471713 0.00206349206,17.6385657 0,21.2494024 C0,22.1827888 0.03,23.1979283 0.0946031746,24.3027888 C0.133809524,24.9800797 0.693333333,25.5031076 1.36079365,25.5031076 C1.38571429,25.5031076 1.41095238,25.5024701 1.43634921,25.5008765 C2.13634921,25.4596016 2.67095238,24.8564143 2.62984127,24.1534661 C2.56793651,23.0935458 2.53968254,22.1282869 2.53968254,21.2494024 C2.53412698,17.3904382 3.09460317,15.2227888 3.64507937,14.0913147 L3.64507937,37.9963347 C3.64507937,39.0847809 4.52396825,39.9665339 5.60746032,39.9665339 C6.69126984,39.9665339 7.57015873,39.0847809 7.57015873,37.9963347 L7.57015873,23.6105179 L8.30587302,23.6105179 L8.30587302,37.9963347 C8.30587302,39.0847809 9.1847619,39.9665339 10.268254,39.9665339 C11.3520635,39.9665339 12.2309524,39.0847809 12.2309524,37.9963347 L12.2309524,12.6331474 C12.7801587,12.5258964 13.4673016,12.3509163 14.181746,12.0647012 C14.98,11.739761 15.8284127,11.2720319 16.5273016,10.5212749 C17.2273016,9.77976096 17.7347619,8.69800797 17.7256788,7.44701195 C17.7242857,6.68525896 17.5549206,5.88207171 17.2115873,5.02645418 L14.9826984,6.32653386 C15.1307937,6.77689243 15.1869841,7.14932271 15.1861905,7.44701195 Z" id="Path"></path>
                <ellipse id="Oval" cx="7.93809524" cy="5.75426295" rx="3.57142857" ry="3.58565737"></ellipse>
                <polygon id="Path" points="11.7365079 4.59665339 12.0953968 5.21689243 11.5806349 5.51697211 11.8398413 5.96478088 12.3546032 5.66454183 12.7133333 6.28462151 13.177619 6.01386454 12.2007937 4.32589641"></polygon>
                <path d="M18.3319048,0.1587251 C18.2438095,0.00653386454 18.0495238,-0.0452589641 17.8979365,0.0430278884 L12.3620635,3.27187251 C12.2104762,3.36031873 12.1590476,3.55537849 12.2469841,3.70756972 L13.7353968,6.27984064 C13.8234921,6.43203187 14.017619,6.48366534 14.1692063,6.39537849 L19.7052381,3.16669323 C19.8568254,3.07808765 19.908254,2.88318725 19.8203175,2.73099602 L18.3319048,0.1587251 Z M18.0453968,0.362390438 L19.3690476,2.64876494 L19.3614286,2.64541833 L14.1314286,2.64541833 L18.0453968,0.362390438 Z" id="Shape"></path>
            </g>
        </g>
    </g>
</svg>