<?xml version="1.0" encoding="UTF-8"?>
<svg width="48px" height="48px" viewBox="0 0 48 48" version="1.1" xmlns="http://www.w3.org/2000/svg" xmlns:xlink="http://www.w3.org/1999/xlink">
    <!-- Generator: Sketch 64 (93537) - https://sketch.com -->
    <title>breakfast</title>
    <desc>Created with Sketch.</desc>
    <g id="breakfast" stroke="none" stroke-width="1" fill="none" fill-rule="evenodd">
        <rect fill="#FFFFFF" opacity="0" x="0" y="0" width="48" height="48"></rect>
        <g id="directions_run-24px">
            <polygon id="Path" points="0 0 48 0 48 48 0 48"></polygon>
        </g>
        <g id="noun_Breakfast_2665435" transform="translate(4.000000, 4.000000)" fill="#000000" fill-rule="nonzero">
            <path d="M29.2693263,0 C26.7456513,0 24.3800368,1.1726193 22.9417965,3.13652245 C22.7093862,3.45400417 22.79316,3.8891562 23.1289079,4.10895181 C23.4646545,4.32874448 23.9259518,4.25029142 24.15846,3.93290132 C25.3205107,2.34613767 27.2309811,1.39843883 29.2693263,1.39843883 C32.6944406,1.39843883 35.4808993,4.03245356 35.4808993,7.27038735 C35.4808993,10.5083245 32.6945394,13.1423355 29.2693263,13.1423355 C28.4304017,13.1423355 27.6171764,12.9873703 26.8518111,12.6814494 C26.475735,12.5309067 26.0420191,12.6970637 25.8828721,13.0526499 C25.7238234,13.4082567 25.8993629,13.8189939 26.2755431,13.9694407 C27.2242133,14.3487223 28.2314193,14.540775 29.2693263,14.540775 C33.5099961,14.540775 36.9602216,11.2791944 36.9602216,7.27038735 C36.9602216,3.2614881 33.5100945,0 29.2693263,0 Z M29.2693263,4.32569369 C28.8609072,4.32569369 28.5305431,4.63882767 28.5305431,5.02491306 L28.5305431,6.57116798 L26.7815344,6.57116798 C26.3731158,6.57116798 26.0418733,6.88430196 26.0418733,7.27038735 C26.0418733,7.65647693 26.3731158,7.96960673 26.7815344,7.96960673 L29.2693263,7.96960673 C29.677744,7.96960673 30.0089874,7.65647693 30.0089874,7.27038735 L30.0089874,5.02491306 C30.0089874,4.63882767 29.677744,4.32569369 29.2693263,4.32569369 L29.2693263,4.32569369 Z M0.739661192,5.35210115 C0.331242644,5.35210115 0,5.66523137 0,6.05132053 L0,37.7894058 C0,38.175495 0.331242689,38.4886256 0.739661192,38.4886256 L13.7891476,38.4886256 C14.1975658,38.4886256 14.5288087,38.1754958 14.5288087,37.7894058 C14.5288087,37.4033209 14.1975653,37.0901865 13.7891476,37.0901865 L1.47932243,37.0901865 L1.47932243,6.7505399 L23.6990263,6.7505399 L23.6990263,25.0074746 C23.6990263,25.3935604 24.0293926,25.7066944 24.4378091,25.7066944 C24.8462281,25.7066944 25.1774715,25.3935613 25.1774715,25.0074746 L25.1774715,6.05132053 C25.1774715,5.66523137 24.8462281,5.35210115 24.4378091,5.35210115 L0.739661192,5.35210115 Z M14.2345262,8.61983111 C13.8261076,8.61983111 13.4948638,8.93296467 13.4948638,9.31905049 C13.4948638,9.70514007 13.8261076,10.0174391 14.2345262,10.0174391 L20.9819579,10.0174391 C21.390377,10.0174391 21.721619,9.70514007 21.721619,9.31905049 C21.721619,8.93296467 21.390377,8.61983111 20.9819579,8.61983111 L14.2345262,8.61983111 Z M4.93517434,10.0174391 L4.93517434,13.9345631 L10.2032841,13.9345631 L10.2032841,10.0174391 L4.93517434,10.0174391 Z M14.2345262,11.3726962 C13.8261076,11.3726962 13.4948638,11.684999 13.4948638,12.0710848 C13.4948638,12.4571744 13.8261076,12.7703042 14.2345262,12.7703042 L20.9819579,12.7703042 C21.390377,12.7703042 21.721619,12.4571744 21.721619,12.0710848 C21.721619,11.684999 21.390377,11.3726962 20.9819579,11.3726962 L14.2345262,11.3726962 Z M14.2345262,14.1247309 C13.8261076,14.1247309 13.4948638,14.4378649 13.4948638,14.8239507 C13.4948638,15.2100403 13.8261076,15.5231697 14.2345262,15.5231697 L20.9819579,15.5231697 C21.390377,15.5231697 21.721619,15.2100403 21.721619,14.8239507 C21.721619,14.4378649 21.390377,14.1247309 20.9819579,14.1247309 L14.2345262,14.1247309 Z M4.19551319,16.8393965 C3.78709456,16.8393965 3.45585205,17.1525301 3.45585205,17.5386159 C3.45585205,17.9247051 3.78709456,18.2378353 4.19551319,18.2378353 L10.9429453,18.2378353 C11.3513639,18.2378353 11.6826064,17.9247051 11.6826064,17.5386159 C11.6826064,17.1525301 11.3513639,16.8393965 10.9429453,16.8393965 L4.19551319,16.8393965 Z M14.2345262,16.8775964 C13.8261076,16.8775964 13.4948638,17.1907266 13.4948638,17.5768158 C13.4948638,17.9629012 13.8261076,18.2760352 14.2345262,18.2760352 L20.9819579,18.2760352 C21.390377,18.2760352 21.721619,17.9629012 21.721619,17.5768158 C21.721619,17.1907266 21.390377,16.8775964 20.9819579,16.8775964 L14.2345262,16.8775964 Z M4.19551319,19.5922616 C3.78709456,19.5922616 3.45585205,19.9053922 3.45585205,20.2914818 C3.45585205,20.6775672 3.78709456,20.9907012 4.19551319,20.9907012 L10.9429453,20.9907012 C11.3513639,20.9907012 11.6826064,20.6775668 11.6826064,20.2914818 C11.6826064,19.9053922 11.3513639,19.5922616 10.9429453,19.5922616 L4.19551319,19.5922616 Z M14.9741874,21.1758865 L14.9741874,24.3082557 L20.2422968,24.3082557 L20.2422968,21.1758865 L14.9741874,21.1758865 Z M4.19551319,22.3451271 C3.78709456,22.3451271 3.45585205,22.6582573 3.45585205,23.0443465 C3.45585205,23.4304323 3.78709456,23.7435659 4.19551319,23.7435659 L10.9429453,23.7435659 C11.3513639,23.7435659 11.6826064,23.4304323 11.6826064,23.0443465 C11.6826064,22.6582573 11.3513639,22.3451271 10.9429453,22.3451271 L4.19551319,22.3451271 Z M4.19551319,25.0979922 C3.78709456,25.0979922 3.45585205,25.4111224 3.45585205,25.7972116 C3.45585205,26.1832974 3.78709456,26.4956002 4.19551319,26.4956002 L10.9429453,26.4956002 C11.3513639,26.4956002 11.6826064,26.1832982 11.6826064,25.7972116 C11.6826064,25.4111224 11.3513639,25.0979922 10.9429453,25.0979922 L4.19551319,25.0979922 Z M4.19551319,27.8508573 C3.78709456,27.8508573 3.45585205,28.1639909 3.45585205,28.5500775 C3.45585205,28.9361667 3.78709456,29.2484661 4.19551319,29.2484661 L10.9429453,29.2484661 C11.3513639,29.2484661 11.6826064,28.9361667 11.6826064,28.5500775 C11.6826064,28.1639909 11.3513639,27.8508573 10.9429453,27.8508573 L4.19551319,27.8508573 Z M15.7806108,28.3956172 L15.7806108,30.2856695 L34.11929,30.2856695 L34.11929,28.3956172 L15.7806108,28.3956172 Z M4.19551319,30.6028924 C3.78709456,30.6028924 3.45585205,30.916026 3.45585205,31.3021118 C3.45585205,31.6882014 3.78709456,32.0013312 4.19551319,32.0013312 L10.9429453,32.0013312 C11.3513639,32.0013312 11.6826064,31.6882014 11.6826064,31.3021118 C11.6826064,30.916026 11.3513639,30.6028924 10.9429453,30.6028924 L4.19551319,30.6028924 Z M35.5986128,30.6327845 L35.5986128,33.8016937 C35.5986128,34.7553563 35.4097788,35.6671738 35.0689019,36.5088853 L36.7546628,35.7216432 C38.1397535,35.0744688 39,33.7650787 39,32.3044363 C39,31.3826529 38.2067635,30.6327845 37.2316655,30.6327845 L35.5986128,30.6327845 Z M15.7806108,31.6841049 L15.7806108,32.3359904 L34.11929,32.3359904 L34.11929,31.6841049 L15.7806108,31.6841049 Z M4.19551319,33.3557542 C3.78709456,33.3557542 3.45585205,33.6688844 3.45585205,34.0549735 C3.45585205,34.4410589 3.78709456,34.7541933 4.19551319,34.7541933 L10.9429453,34.7541933 C11.3513639,34.7541933 11.6826064,34.4410594 11.6826064,34.0549735 C11.6826064,33.6688844 11.3513639,33.3557542 10.9429453,33.3557542 L4.19551319,33.3557542 Z M15.7797324,33.7344292 L15.7797324,33.8016933 C15.7797324,37.2194398 18.7218986,40 22.3374171,40 L27.5624829,40 C31.1780018,40 34.11929,37.2195311 34.11929,33.8016933 L34.11929,33.7344292 L15.7797324,33.7344292 Z" id="Shape"></path>
        </g>
    </g>
</svg>