<?xml version="1.0" encoding="UTF-8"?>
<svg width="48px" height="48px" viewBox="0 0 48 48" version="1.1" xmlns="http://www.w3.org/2000/svg" xmlns:xlink="http://www.w3.org/1999/xlink">
    <!-- Generator: Sketch 64 (93537) - https://sketch.com -->
    <title>meditation</title>
    <desc>Created with Sketch.</desc>
    <g id="meditation" stroke="none" stroke-width="1" fill="none" fill-rule="evenodd">
        <rect fill="#FFFFFF" opacity="0" x="0" y="0" width="48" height="48"></rect>
        <g id="directions_run-24px">
            <polygon id="Path" points="0 0 48 0 48 48 0 48"></polygon>
        </g>
        <g id="noun_mindfulness_415676" transform="translate(5.000000, 4.000000)" fill="#000000" fill-rule="nonzero">
            <g id="Group">
                <ellipse id="Oval" cx="19.5277778" cy="4.47368421" rx="4.48611111" ry="4.47368421"></ellipse>
                <path d="M3.21944444,30.9473684 C3.58888889,31.1052632 3.95833333,31.1052632 4.38055556,31.0526316 C4.69722222,31 4.96111111,30.8947368 5.27777778,30.7894737 C7.75833333,29.8947368 10.1861111,28.8947368 12.6138889,27.8947368 C12.9305556,25.5263158 13.1944444,23.2105263 13.5111111,20.8421053 C13.5638889,20.3157895 13.775,19.7368421 14.25,19.6315789 C14.6194444,19.5789474 14.9361111,19.8947368 15.0416667,20.2105263 C15.1472222,20.5263158 15.0944444,20.8947368 15.0416667,21.2631579 C14.7777778,23.4210526 14.4611111,25.5789474 14.1972222,27.7894737 C17.8916667,28.3157895 21.6916667,28.3157895 25.3861111,27.7894737 C25.1222222,25.6315789 24.8055556,23.4736842 24.5416667,21.2631579 C24.4888889,20.8947368 24.4361111,20.5263158 24.5416667,20.2105263 C24.6472222,19.8947368 24.9638889,19.5789474 25.3333333,19.6315789 C25.8611111,19.6842105 26.0194444,20.3157895 26.0722222,20.8421053 C26.3888889,23.1578947 26.7055556,25.5263158 27.0222222,27.8947368 C29.45,28.9473684 31.8777778,29.8947368 34.3055556,30.7894737 C35.0972222,31.1052632 36.1,31.3157895 36.7333333,30.7894737 C37.3666667,30.3157895 37.3666667,29.3157895 36.9972222,28.6315789 C36.6277778,27.9473684 35.9416667,27.4736842 35.2555556,27.0526316 C34.1472222,26.3157895 33.0388889,25.5789474 31.9305556,24.8421053 C31.7194444,24.7368421 31.5611111,24.5789474 31.4027778,24.3684211 C31.1916667,24.1052632 31.1916667,23.7368421 31.1388889,23.3684211 C30.9277778,21 30.3472222,18.6315789 29.5027778,16.4210526 C29.0805556,15.3684211 28.6055556,14.3157895 27.7611111,13.5789474 C26.6,12.5263158 25.0166667,12.2105263 23.4861111,12 C20.9527778,11.6315789 18.4194444,11.5263158 15.8861111,11.8947368 C14.7777778,12.0526316 13.6166667,12.2631579 12.5611111,12.7368421 C11.6638889,13.1578947 10.8722222,13.8947368 10.3444444,14.7368421 C9.71111111,15.7368421 9.28888889,16.8947368 8.97222222,18.0526316 C8.49722222,19.8421053 8.12777778,21.6315789 7.86388889,23.4736842 C7.81111111,23.7894737 7.81111111,24.0526316 7.6,24.3157895 C7.49444444,24.4736842 7.28333333,24.6315789 7.125,24.7368421 C6.12222222,25.3684211 5.01388889,25.7894737 4.06388889,26.4736842 C3.11388889,27.1578947 2.32222222,28.2105263 2.32222222,29.3684211 C2.375,30 2.69166667,30.6842105 3.21944444,30.9473684 Z" id="Path"></path>
                <path d="M36.9444444,32.3684211 C36.5222222,32.5789474 36.1,32.6842105 35.5722222,32.6842105 C35.3611111,32.6842105 35.0972222,32.6842105 34.8861111,32.5789474 C33.6194444,32.2631579 27.4444444,29.7368421 26.1777778,29.2105263 C24.2777778,29.5789474 22.1666667,29.7368421 20.2666667,29.7368421 C16.9944444,29.7368421 14.1972222,29.3684211 13.4583333,29.2631579 C12.0333333,29.8421053 6.06944444,32.3157895 4.80277778,32.6315789 C4.53888889,32.6842105 4.32777778,32.7368421 4.11666667,32.7368421 C3.37777778,32.7368421 2.74444444,32.4736842 2.26944444,32.1578947 C1.31944444,33 0.211111111,34.4736842 0.580555556,36.5789474 C1.31944444,40.5263158 6.59722222,40.2105263 9.28888889,39.5263158 C11.2416667,39.0526316 16.3083333,37.2105263 19.0527778,36.2105263 L15.9388889,34.3157895 C15.5694444,34.1052632 15.4638889,33.5789474 15.675,33.2105263 C15.8861111,32.8421053 16.4138889,32.7368421 16.7833333,32.9473684 C17.1527778,33.1578947 17.4694444,33.3684211 17.8388889,33.5789474 C18.4194444,33.9473684 18.9472222,34.2631579 19.5277778,34.6315789 C20.6361111,35.3157895 21.7972222,35.8947368 22.9583333,36.5789474 C23.4861111,36.8947368 24.0138889,37.2105263 24.5944444,37.5263158 C25.3861111,37.9473684 26.1777778,38.3157895 26.9694444,38.6315789 C29.5555556,39.5263158 32.6694444,40.3684211 35.3611111,39.2631579 C38.2111111,37.9473684 38.2638889,35 36.9444444,32.3684211 Z" id="Path"></path>
            </g>
        </g>
    </g>
</svg>