<?xml version="1.0" encoding="UTF-8"?>
<svg width="48px" height="48px" viewBox="0 0 48 48" version="1.1" xmlns="http://www.w3.org/2000/svg" xmlns:xlink="http://www.w3.org/1999/xlink">
    <!-- Generator: Sketch 64 (93537) - https://sketch.com -->
    <title>sleep</title>
    <desc>Created with Sketch.</desc>
    <g id="sleep" stroke="none" stroke-width="1" fill="none" fill-rule="evenodd">
        <rect fill="#FFFFFF" opacity="0" x="0" y="0" width="48" height="48"></rect>
        <g id="noun_sleep_2216308" transform="translate(9.000000, 4.000000)" fill="#000000" fill-rule="nonzero">
            <g id="Group">
                <path d="M15.5979397,1.99637802 C15.145057,0.903057347 14.0742377,0.190548356 12.8871176,0.192628405 L2.29715735,0.192628405 C1.32253721,0.192628405 0.532451471,0.979824616 0.532451471,1.95087473 C0.532451471,2.92192483 1.32253721,3.70911648 2.29715735,3.70911648 L11.4498529,3.70911648 L0.982244118,14.1392352 C0.143234804,14.9752684 -0.107677062,16.2325444 0.346513505,17.3247714 C0.800704072,18.4169985 1.87054711,19.1289319 3.05715441,19.1289319 L13.8401471,19.1289319 C14.8147672,19.1289319 15.6048529,18.3417402 15.6048529,17.3706901 C15.6048529,16.39964 14.8147672,15.6124484 13.8401471,15.6124484 L4.49442353,15.6124484 L14.9637485,5.18232967 C15.8036467,4.34653675 16.0541139,3.08827872 15.5979397,1.99637802 Z" id="Path"></path>
                <path d="M13.5437118,27.0332923 C13.1529483,26.0890929 12.2284798,25.4735692 11.2034074,25.4750829 L4.24109118,25.4750829 C3.26647106,25.4750829 2.47638537,26.2622774 2.47638537,27.2333275 C2.47638537,28.2043776 3.26647106,28.9915692 4.24109118,28.9915692 L8.91825441,28.9915692 L2.95203088,35.3986813 C2.22668468,36.1198538 2.00906837,37.2054898 2.40074168,38.148932 C2.79241498,39.0923743 3.71616383,39.7075736 4.74088235,39.7075736 L11.829,39.7075736 C12.8036201,39.7075736 13.5937059,38.920382 13.5937059,37.9493319 C13.5937059,36.9782818 12.8036201,36.1910901 11.829,36.1910901 L7.02601765,36.1910901 L12.9939706,29.783978 C13.7202673,29.0630717 13.937444,27.9764063 13.5437118,27.0332923 L13.5437118,27.0332923 Z" id="Path"></path>
                <path d="M27.9491559,25.4750857 L23.3512721,25.4750857 L29.1141397,19.9994813 C29.8389019,19.2778124 30.0559039,18.1921812 29.663936,17.2489264 C29.2719681,16.3056716 28.3482426,15.6905846 27.3235853,15.6905846 L20.3612691,15.6905846 C19.386649,15.6905846 18.5965632,16.4777763 18.5965632,17.4488264 C18.5965632,18.4198765 19.386649,19.2070681 20.3612691,19.2070681 L24.8350721,19.2070681 L19.0704794,24.6835165 C18.3456152,25.4050184 18.1285534,26.490624 18.5205714,27.4338083 C18.9125893,28.3769926 19.8364272,28.991871 20.8610382,28.9915518 L27.9491559,28.9915518 C28.923776,28.9915518 29.7138618,28.20436 29.7138618,27.2333099 C29.7138618,26.2622598 28.923776,25.4750681 27.9491559,25.4750681 L27.9491559,25.4750857 Z" id="Path"></path>
            </g>
        </g>
    </g>
</svg>