<?xml version="1.0" encoding="UTF-8"?>
<svg width="70px" height="80px" viewBox="0 0 70 80" version="1.1" xmlns="http://www.w3.org/2000/svg" xmlns:xlink="http://www.w3.org/1999/xlink">
    <!-- Generator: Sketch 61.2 (89653) - https://sketch.com -->
    <title>noun_steps_87667</title>
    <desc>Created with Sketch.</desc>
    <g id="Today" stroke="none" stroke-width="1" fill="none" fill-rule="evenodd">
        <g id="Today---More" transform="translate(-153.000000, -265.000000)" fill="#000000" fill-rule="nonzero">
            <g id="noun_steps_87667" transform="translate(153.000000, 265.000000)">
                <g id="Group">
                    <path d="M21.006,63.494 C14.968,65.114 9.153,62.995 11.024,69.968 C12.894,76.941 19.305,81.281 25.343,79.661 C31.381,78.041 34.759,71.076 32.888,64.103 C31.018,57.13 27.044,61.874 21.006,63.494 Z" id="Path"></path>
                    <path d="M19.833,59.187 C31.182,56.143 28.234,52.312 29.485,44.714 C30.658,37.59 20.571,15.745 9.012,18.846 C-2.547,21.947 -0.269,45.845 4.234,51.488 C9.224,57.742 8.483,62.232 19.833,59.187 Z" id="Path"></path>
                    <path d="M48.994,44.947 C42.956,43.327 38.982,38.583 37.112,45.556 C35.242,52.529 38.62,59.495 44.657,61.114 C50.695,62.734 57.105,58.394 58.976,51.421 C60.846,44.448 55.031,46.566 48.994,44.947 Z" id="Path"></path>
                    <path d="M60.989,0.299 C49.43,-2.801 39.343,19.044 40.516,26.167 C41.767,33.765 38.819,37.595 50.168,40.64 C61.517,43.684 60.777,39.195 65.768,32.941 C70.27,27.298 72.548,3.4 60.989,0.299 Z" id="Path"></path>
                </g>
            </g>
        </g>
    </g>
</svg>