<?xml version="1.0" encoding="UTF-8"?>
<svg width="48px" height="48px" viewBox="0 0 48 48" version="1.1" xmlns="http://www.w3.org/2000/svg" xmlns:xlink="http://www.w3.org/1999/xlink">
    <!-- Generator: Sketch 64 (93537) - https://sketch.com -->
    <title>barbell</title>
    <desc>Created with Sketch.</desc>
    <g id="barbell" stroke="none" stroke-width="1" fill="none" fill-rule="evenodd">
        <rect fill="#FFFFFF" opacity="0" x="0" y="0" width="48" height="48"></rect>
        <g id="directions_run-24px">
            <polygon id="Path" points="0 0 48 0 48 48 0 48"></polygon>
        </g>
        <g id="noun_Fitness_2838437" transform="translate(10.000000, 4.000000)" fill="#000000" fill-rule="nonzero">
            <path d="M17.0653846,16.1111111 C17.0653846,16.1111111 17.0653846,16.1111111 17.0653846,16.1111111 C16.8423077,16.3888889 16.6192308,16.6666667 16.3403846,17.0555556 C16.3403846,17.0555556 16.3403846,17.1111111 16.2846154,17.1111111 C15.95,17.6666667 15.7269231,18.2777778 15.6153846,18.8888889 C15.6153846,18.8888889 15.6153846,18.8888889 15.6153846,18.8888889 L11.2096154,16.8333333 L10.2057692,16.2777778 C9.64807692,16 9.48076923,15.2777778 9.75961538,14.7777778 C14.0538462,7.33333333 14.1096154,7 14.8903846,6.55555556 C17.2884615,5 20.0211538,7.72222222 18.6269231,10.1111111 L15.6153846,15.2777778 L17.0653846,16.1111111 Z" id="Path"></path>
            <path d="M14.8903846,40 L12.9384615,40 C12.2692308,40 11.7115385,39.4444444 11.7115385,38.7777778 L11.2096154,25.5 L1.56153846,17.2777778 C-0.111538462,15.8333333 0.111538462,13.1666667 2.00769231,12.0555556 L14.6115385,4.44444444 C15.5038462,3.88888889 16.5634615,3.77777778 17.6230769,4.05555556 C19.4634615,4.61111111 20.1326923,5.94444444 20.6903846,6.83333333 C21.3596154,7.88888889 21.5269231,9.16666667 21.1923077,10.3333333 C20.9134615,11.3333333 20.2442308,12.1666667 19.2961538,12.6666667 L17.0096154,13.8333333 L19.0730769,10.2777778 C19.3519231,9.83333333 19.4634615,9.27777778 19.4634615,8.72222222 C19.4634615,5.55555556 15.225,4.44444444 13.6634615,7.16666667 C13.6634615,7.16666667 8.86730769,15.5 8.81153846,15.5 C8.64423077,15.7777778 8.7,16 8.86730769,16.1111111 L15.8384615,21.9444444 C15.8942308,22.1666667 16.0057692,22.3333333 16.1173077,22.5555556 L16.1173077,38.7222222 C16.1730769,39.4444444 15.6153846,40 14.8903846,40 Z" id="Path"></path>
            <path d="M24.4269231,8.33333333 C22.1403846,8.33333333 20.2442308,6.44444444 20.2442308,4.16666667 C20.2442308,1.88888889 22.1403846,0 24.4269231,0 C26.7134615,0 28.6096154,1.88888889 28.6096154,4.16666667 C28.6096154,6.44444444 26.7134615,8.33333333 24.4269231,8.33333333 Z" id="Path"></path>
            <g id="Group" transform="translate(15.615385, 14.444444)">
                <ellipse id="Oval" cx="5.8" cy="5.55555556" rx="1.22692308" ry="1.22222222"></ellipse>
                <path d="M2.00769231,1.77777778 C-0.557692308,4.27777778 1.66533454e-16,8.55555556 3.23461538,10.2777778 C6.74807692,12.2222222 11.1538462,9.66666667 11.1538462,5.55555556 C11.1538462,0.833333333 5.40961538,-1.55555556 2.00769231,1.77777778 Z M5.8,7.22222222 C4.90769231,7.22222222 4.12692308,6.5 4.12692308,5.55555556 C4.12692308,4.61111111 4.85192308,3.88888889 5.8,3.88888889 C6.69230769,3.88888889 7.47307692,4.61111111 7.47307692,5.55555556 C7.47307692,6.5 6.69230769,7.22222222 5.8,7.22222222 Z" id="Shape"></path>
            </g>
        </g>
    </g>
</svg>