<?xml version="1.0" encoding="UTF-8"?>
<svg width="48px" height="48px" viewBox="0 0 48 48" version="1.1" xmlns="http://www.w3.org/2000/svg" xmlns:xlink="http://www.w3.org/1999/xlink">
    <!-- Generator: Sketch 64 (93537) - https://sketch.com -->
    <title>yoga</title>
    <desc>Created with Sketch.</desc>
    <g id="yoga" stroke="none" stroke-width="1" fill="none" fill-rule="evenodd">
        <rect fill="#FFFFFF" opacity="0" x="0" y="0" width="48" height="48"></rect>
        <g id="directions_run-24px">
            <polygon id="Path" points="0 0 48 0 48 48 0 48"></polygon>
        </g>
        <g id="noun_yoga_730518" transform="translate(11.000000, 4.000000)" fill="#000000" fill-rule="nonzero">
            <path d="M14.0235,34.3968421 L16.3975,34.3968421 C17.372,34.3968421 18.2815,34.9142105 18.8135,35.7731579 C19.6825,37.1773684 19.3055,39.0563158 17.9715,39.9721053 L24.111,39.9721053 C25.446,39.9721053 26.526,38.8342105 26.526,37.4305263 C26.526,36.3763158 25.909,35.4321053 24.9725,35.0557895 C23.75,34.5642105 22.5085,34.1247368 21.2535,33.7368421 C20.5825,34.5673684 19.4965,34.8836842 18.516,34.5336842 L10.751,31.7642105 C10.641,31.7252632 10.533,31.6831579 10.4255,31.6378947 C10.4045,32.2384211 10.3375,32.8357895 10.2255,33.4247368 C8.6085,33.8826316 7.013,34.4273684 5.4485,35.0563158 C4.203,35.5568421 3.5785,37.0257895 4.054,38.3373684 C4.4105,39.3215789 5.308,39.9721053 6.31,39.9721053 L16.397,39.9721053 C17.731,39.9721053 18.813,38.8342105 18.813,37.4305263 C18.813,36.0263158 17.731,34.8894737 16.397,34.8894737 L9.8435,34.8894737 C10.268,34.7189474 10.6945,34.5542105 11.1225,34.3968421 L14.0235,34.3968421" id="Path"></path>
            <path d="M9.8075,14.8742105 C9.8075,12.0389474 7.6245,9.74105263 4.931,9.74105263 C2.237,9.74105263 0.054,12.0389474 0.054,14.8742105 C0.054,17.7094737 2.237,20.0078947 4.931,20.0078947 C7.6245,20.0078947 9.8075,17.7089474 9.8075,14.8742105 L9.8075,14.8742105 Z" id="Path"></path>
            <path d="M11.665,11.6694737 C11.706,14.5221053 10.814,17.3031579 9.137,19.5447368 C8.7085,20.1868421 8.2815,20.83 7.856,21.4736842 C5.9075,24.3878947 6.573,28.4136842 9.341,30.4642105 C9.82,30.8194737 10.3465,31.1005263 10.9015,31.2984211 L18.667,34.0678947 C19.745,34.4521053 20.914,33.8442105 21.2785,32.71 C21.6445,31.5763158 21.0665,30.3452632 19.9885,29.9605263 L12.2225,27.1921053 L12.374,26.7247368 L19.9825,29.4384211 C19.6175,24.8789474 17.8595,20.5652632 14.9725,17.1421053 C15.536,15.3568421 15.8095,13.4842105 15.782,11.6031579 C15.7525,9.52894737 14.9605,7.54684211 13.575,6.07263158 C11.8005,4.18526316 9.957,2.37157895 8.048,0.635789474 C7.1865,-0.146315789 5.886,-0.0468421053 5.143,0.859473684 C4.4,1.76578947 4.4935,3.13473684 5.355,3.91736842 C7.183,5.57947368 8.9485,7.31578947 10.6475,9.12315789 C11.2865,9.80105263 11.6505,10.7136842 11.665,11.6694737 Z" id="Path"></path>
        </g>
    </g>
</svg>