<?xml version="1.0" encoding="UTF-8"?>
<svg width="48px" height="48px" viewBox="0 0 48 48" version="1.1" xmlns="http://www.w3.org/2000/svg" xmlns:xlink="http://www.w3.org/1999/xlink">
    <!-- Generator: Sketch 64 (93537) - https://sketch.com -->
    <title>blood_pressure</title>
    <desc>Created with Sketch.</desc>
    <g id="blood_pressure" stroke="none" stroke-width="1" fill="none" fill-rule="evenodd">
        <rect fill="#FFFFFF" opacity="0" x="0" y="0" width="48" height="48"></rect>
        <g id="noun_Blood-Pressure_859738" transform="translate(4.000000, 7.000000)" fill="#000000" fill-rule="nonzero">
            <g id="Group">
                <path d="M10.5555556,0.201211111 C5.94909167,0.201211111 0,4.29764444 0,12.4234333 C0,16.9581667 2.86614389,21.1996278 6.64930556,24.9407944 C10.4324672,28.6819611 15.2135322,31.9612944 19.4270833,34.4894056 C19.7795815,34.7015077 20.2204185,34.7015077 20.5729167,34.4894056 C24.7864678,31.9612944 29.5675328,28.6819611 33.3506944,24.9407944 C37.1338561,21.1996278 40,16.9581667 40,12.4234333 C40,4.29764444 34.0509083,0.201211111 29.4444444,0.201211111 C24.88859,0.201211111 21.9078783,2.49088889 20,5.01023889 C18.0921217,2.49088889 15.11141,0.201211111 10.5555556,0.201211111 Z M10.5555556,2.42343333 C15.0523444,2.42343333 17.4990978,4.86406111 19.0451389,7.44079444 C19.245499,7.77739372 19.6082817,7.98363732 20,7.98363732 C20.3917183,7.98363732 20.754501,7.77739372 20.9548611,7.44079444 C22.5009022,4.86406111 24.9476556,2.42343333 29.4444444,2.42343333 C32.7282972,2.42343333 37.7777778,5.37117778 37.7777778,12.4234333 C37.7777778,13.3329483 37.61886,14.2671306 37.3263889,15.2012111 L24.4444444,15.2012111 C24.0124729,15.2014132 23.6197629,15.451935 23.4375,15.8435722 L21.8576389,19.3331556 L18.8368056,9.85398889 C18.6725735,9.33678037 18.1587993,9.01383658 17.6215278,9.0901 C17.2140609,9.1502772 16.8733044,9.43090019 16.7361111,9.81926667 L14.7743056,15.2012111 L9.44444444,15.2012111 C9.04373787,15.1955441 8.67102071,15.4060726 8.46901364,15.7521809 C8.26700658,16.0982893 8.26700658,16.5263551 8.46901364,16.8724635 C8.67102071,17.2185719 9.04373787,17.4291003 9.44444444,17.4234333 L15.5555556,17.4234333 C16.0257515,17.4200414 16.4429158,17.1210736 16.5972222,16.6769056 L17.7083333,13.6387111 L20.6076389,22.7532944 C20.74906,23.1882686 21.1425597,23.4921573 21.5991569,23.5190159 C22.0557541,23.5458746 22.4821683,23.2902161 22.6736111,22.8748222 L25.15625,17.4234333 L36.3888889,17.4234333 C35.3332728,19.4316928 33.7343944,21.4363422 31.7881944,23.3609333 C28.3711372,26.7400444 23.9779644,29.7737389 20,32.1977389 C16.0220356,29.7737389 11.6288628,26.7400444 8.21180556,23.3609333 C4.63385611,19.8227111 2.22222222,15.9934 2.22222222,12.4234333 C2.22222222,5.37117778 7.27170278,2.42343333 10.5555556,2.42343333 Z" id="Shape"></path>
            </g>
        </g>
    </g>
</svg>