<?xml version="1.0" encoding="UTF-8"?>
<svg width="48px" height="48px" viewBox="0 0 48 48" version="1.1" xmlns="http://www.w3.org/2000/svg" xmlns:xlink="http://www.w3.org/1999/xlink">
    <!-- Generator: Sketch 64 (93537) - https://sketch.com -->
    <title>blood_glucose</title>
    <desc>Created with Sketch.</desc>
    <g id="blood_glucose" stroke="none" stroke-width="1" fill="none" fill-rule="evenodd">
        <rect fill="#FFFFFF" opacity="0" x="0" y="0" width="48" height="48"></rect>
        <g id="noun_glucometer_2450147" transform="translate(11.000000, 4.000000)" fill="#000000" fill-rule="nonzero">
            <g id="Group">
                <path d="M15.9453348,32.7333273 L15.9453348,39.3939273 C15.9453348,39.7272909 15.6691923,39.9999879 15.3316984,39.9999879 L11.6683077,39.9999879 C11.3308139,39.9999879 11.0546714,39.7272909 11.0546714,39.3939273 L11.0546714,32.7333273 L15.9453348,32.7333273 Z" id="Path"></path>
                <g>
                    <path d="M8.94540682,27.1054424 L11.217782,27.1054424 L11.217782,24.0443636 L5.28276477,24.0443636 C5.57639591,25.8048424 7.11228477,27.1054424 8.94540682,27.1054424 Z" id="Path"></path>
                    <path d="M5.91168068,18.6226667 L21.0880923,18.6226667 C21.447045,18.6226667 21.739185,18.3341394 21.739185,17.9796121 L21.739185,6.15995758 C21.739185,5.80543636 21.4470511,5.51690303 21.0880923,5.51690303 L5.91168068,5.51690303 C5.55272795,5.51690303 5.26058795,5.8054303 5.26058795,6.15995758 L5.26058795,17.9796182 C5.26058795,18.3341394 5.55272795,18.6226667 5.91168068,18.6226667 Z" id="Path"></path>
                    <path d="M20.6826259,-6.06060606e-06 L6.31737409,-6.06060606e-06 C3.09578318,-6.06060606e-06 0.469437955,2.58788485 0.469437955,5.7757697 L0.469437955,23.1575818 C0.469437955,27.769697 4.26784705,31.5212121 8.93761364,31.5212121 L18.0623864,31.5212121 C22.732153,31.5212121 26.530562,27.769697 26.530562,23.1575818 L26.530562,5.7757697 C26.530562,2.58788485 23.9042168,-6.06060606e-06 20.6826259,-6.06060606e-06 Z M4.03331523,6.15995758 C4.03331523,5.13693333 4.87586864,4.30478182 5.91168068,4.30478182 L21.0880923,4.30478182 C22.1239043,4.30478182 22.9664577,5.13693333 22.9664577,6.15995758 L22.9664577,17.9796182 C22.9664577,19.0026424 22.1239043,19.8347879 21.0880923,19.8347879 L5.91168068,19.8347879 C4.87586864,19.8347879 4.03331523,19.0026364 4.03331523,17.9796182 L4.03331523,6.15995758 Z M12.4450548,27.3173273 C12.4450548,27.8689394 11.9905159,28.3175636 11.4320086,28.3175636 L8.94540682,28.3175636 C6.40336909,28.3175636 4.29069886,26.4369394 4.03152341,23.9428606 C4.00186023,23.6587697 4.09564227,23.3743818 4.28920159,23.162497 C4.48096295,22.9526848 4.75482273,22.8322424 5.04066682,22.8322424 L11.4320148,22.8322424 C11.990522,22.8322424 12.4450548,23.2808667 12.4450548,23.8324788 L12.4450548,27.3173273 L12.4450548,27.3173273 Z M18.0543723,28.3175636 L15.5677643,28.3175636 C15.009257,28.3175636 14.5547243,27.8689394 14.5547243,27.3173273 L14.5547243,23.8324788 C14.5547243,23.2808667 15.009257,22.8322424 15.5677643,22.8322424 L21.9591123,22.8322424 C22.2449564,22.8322424 22.5188161,22.9526848 22.7105775,23.162497 C22.9041368,23.3743818 22.9979189,23.6587697 22.9682557,23.9431576 C22.7090802,26.4369455 20.5964039,28.3175636 18.0543723,28.3175636 Z" id="Shape"></path>
                    <path d="M15.781997,27.1054424 L18.0543723,27.1054424 C19.8877889,27.1054424 21.4236777,25.8048364 21.7170143,24.0443636 L15.781997,24.0443636 L15.781997,27.1054424 Z" id="Path"></path>
                </g>
            </g>
        </g>
    </g>
</svg>