<?xml version="1.0" encoding="UTF-8"?>
<svg width="76px" height="39px" viewBox="0 0 76 39" version="1.1" xmlns="http://www.w3.org/2000/svg" xmlns:xlink="http://www.w3.org/1999/xlink">
    <!-- Generator: Sketch 61.2 (89653) - https://sketch.com -->
    <title>noun_measuring tape_381779</title>
    <desc>Created with Sketch.</desc>
    <g id="Today" stroke="none" stroke-width="1" fill="none" fill-rule="evenodd">
        <g id="Menu" transform="translate(-65.000000, -271.000000)" fill="#000000" fill-rule="nonzero">
            <g id="noun_measuring-tape_381779" transform="translate(65.000000, 271.000000)">
                <path d="M55.727,38.93 C50.502,38.93 45.966,37.769 42.244,35.481 C28.982,27.186 15.335,25.663 1.674,30.947 L0.239,31.5 L0.239,14.754 L0.984,14.526 C3.29,13.818 5.59,13.242 7.82,12.814 C9.852,12.422 11.883,12.144 13.854,11.984 L14.993,11.892 L14.993,11.906 C16.374,11.826 17.752,11.801 19.104,11.831 C21.069,11.879 23.026,12.049 24.922,12.335 C26.751,12.612 28.578,13.003 30.353,13.497 C31.999,13.958 33.64,14.521 35.232,15.172 C35.875,15.435 36.517,15.714 37.155,16.008 C36.644,14.889 36.387,13.7 36.387,12.448 C36.387,8.972 38.358,6.001 42.245,3.617 C45.967,1.334 50.503,0.177 55.727,0.177 C60.948,0.177 65.481,1.335 69.203,3.617 C72.546,5.67 74.478,8.166 74.947,11.036 L74.962,11.12 L74.962,13.691 L75.062,26.651 C75.062,30.135 73.09,33.104 69.203,35.483 C65.481,37.769 60.947,38.93 55.727,38.93 Z M17.655,25.736 C19.217,25.736 20.774,25.822 22.324,25.994 C29.367,26.779 36.442,29.368 43.353,33.691 C46.731,35.767 50.897,36.822 55.726,36.822 C60.551,36.822 64.714,35.767 68.1,33.686 C71.367,31.687 72.954,29.388 72.954,26.658 L72.889,18.208 C72.241,18.983 71.447,19.715 70.51,20.401 C70.101,20.699 69.66,20.992 69.199,21.273 C68.781,21.53 68.347,21.776 67.905,22.007 L67.905,30.42 L65.799,30.42 L65.799,22.964 C64.851,23.336 63.86,23.65 62.836,23.903 L62.836,27.348 L60.729,27.348 L60.729,24.332 C59.727,24.493 58.689,24.603 57.624,24.662 L57.624,31.262 L55.517,31.262 L55.517,24.709 C54.094,24.701 52.714,24.605 51.397,24.426 L51.397,27.427 L49.291,27.427 L49.291,24.056 C48.185,23.815 47.114,23.505 46.092,23.131 L46.092,29.884 L43.986,29.884 L43.986,22.232 C43.389,21.937 42.806,21.615 42.245,21.27 C42.035,21.143 41.82,21.006 41.616,20.868 C41.401,20.723 41.189,20.576 40.988,20.43 C40.971,20.42 40.954,20.409 40.937,20.4 L40.937,24.043 L38.831,24.043 L38.831,19.197 C37.864,18.676 36.88,18.189 35.889,17.743 L35.889,24.506 L33.78,24.506 L33.78,16.859 C32.905,16.518 32.017,16.205 31.124,15.922 L31.124,19.208 L29.017,19.208 L29.017,15.317 C27.964,15.044 26.893,14.81 25.818,14.616 L25.818,22.051 L23.711,22.051 L23.711,14.29 C22.535,14.138 21.338,14.032 20.134,13.974 L20.134,18.665 L18.028,18.665 L18.028,13.923 C17.02,13.923 16.01,13.952 14.993,14.013 L14.993,21.664 L12.886,21.664 L12.886,14.186 C11.63,14.316 10.354,14.495 9.073,14.722 L9.073,18.743 L6.966,18.743 L6.966,15.134 C5.447,15.461 3.9,15.856 2.346,16.313 L2.346,28.449 C7.454,26.645 12.582,25.736 17.655,25.736 Z M50.532,22.158 L50.532,22.158 C52.152,22.455 53.9,22.605 55.726,22.605 C56,22.605 56.274,22.603 56.549,22.597 C58.311,22.556 59.997,22.367 61.563,22.034 C63.286,21.668 64.911,21.121 66.393,20.41 C66.977,20.127 67.551,19.812 68.1,19.475 C68.515,19.222 68.907,18.962 69.266,18.7 C71.345,17.175 72.52,15.505 72.853,13.6 L72.853,11.292 C72.462,9.086 70.865,7.108 68.1,5.41 C64.715,3.334 60.552,2.281 55.726,2.281 C50.896,2.281 46.73,3.334 43.345,5.41 C40.079,7.413 38.492,9.714 38.492,12.446 C38.492,14.829 39.7,16.874 42.185,18.699 C42.378,18.838 42.582,18.979 42.79,19.12 C42.966,19.24 43.15,19.357 43.339,19.471 C44.025,19.893 44.739,20.273 45.472,20.606 L45.473,20.606 C47.024,21.307 48.727,21.828 50.532,22.158 L50.532,22.158 Z M55.862,20.778 C52.734,20.778 49.924,20.272 47.512,19.277 C46.892,19.018 46.292,18.726 45.727,18.408 C45.569,18.319 45.414,18.227 45.268,18.137 C45.082,18.031 44.903,17.918 44.733,17.8 C42.401,16.24 41.212,14.326 41.212,12.119 C41.212,9.611 42.732,7.487 45.729,5.809 L45.73,5.808 C48.528,4.245 51.937,3.454 55.862,3.454 C59.783,3.454 63.189,4.246 65.987,5.808 C68.561,7.255 70.05,9.03 70.417,11.085 L70.434,11.176 L70.434,13.047 L70.417,13.139 C70.1,14.919 68.944,16.489 66.982,17.806 C66.664,18.015 66.332,18.215 65.988,18.408 C63.344,19.886 60.156,20.68 56.509,20.77 C56.29,20.775 56.075,20.778 55.862,20.778 Z M46.758,7.647 C44.445,8.942 43.32,10.406 43.32,12.119 C43.32,13.6 44.17,14.888 45.916,16.057 C46.056,16.152 46.191,16.237 46.332,16.318 L46.364,16.338 C46.489,16.415 46.623,16.494 46.76,16.571 C47.255,16.85 47.781,17.106 48.322,17.332 C50.473,18.22 53.012,18.671 55.863,18.671 C56.06,18.671 56.259,18.669 56.461,18.665 C59.759,18.583 62.62,17.879 64.961,16.57 C65.263,16.402 65.551,16.228 65.818,16.052 C67.243,15.095 68.089,14.019 68.328,12.856 L68.328,11.37 C68.048,9.999 66.914,8.746 64.959,7.647 C62.481,6.264 59.42,5.56199893 55.863,5.56199893 C52.302,5.561 49.238,6.263 46.758,7.647 Z M55.848,17.593 C53.91,17.593 52.162,17.278 50.656,16.656 C50.27,16.5 49.893,16.316 49.541,16.114 C49.437,16.058 49.339,16 49.245,15.943 C48.804,15.684 48.502,15.477 48.31,15.24 C47.178,14.256 46.605,13.151 46.605,11.954 C46.605,10.285 47.593,8.884 49.543,7.794 L49.544,7.793 C51.29,6.818 53.411,6.324 55.848,6.324 C58.276,6.324 60.395,6.818 62.145,7.792 C63.809,8.722 64.777,9.888 65.026,11.26 L65.043,11.353 L65.043,12.555 L65.026,12.648 C64.813,13.835 64.053,14.874 62.769,15.735 C62.574,15.866 62.365,15.993 62.148,16.115 C60.501,17.038 58.519,17.532 56.258,17.585 C56.118,17.59 55.982,17.593 55.848,17.593 Z M50.353,14.152 C50.42,14.193 50.492,14.234 50.565,14.275 L50.584,14.285 C50.855,14.441 51.147,14.583 51.453,14.707 C52.71,15.225 54.186,15.486 55.849,15.486 C55.961,15.486 56.074,15.485 56.19,15.48 L56.205,15.48 C58.12,15.436 59.774,15.032 61.119,14.278 C61.29,14.183 61.451,14.084 61.599,13.985 C62.353,13.479 62.804,12.932 62.937,12.357 L62.937,11.555 C62.776,10.864 62.166,10.217 61.12,9.634 C59.688,8.837 57.915,8.432 55.849,8.432 C53.777,8.432 52,8.836 50.572,9.634 C48.713,10.675 48.713,11.639 48.713,11.956 C48.713,12.549 49.064,13.128 49.783,13.728 L49.783,13.728 C49.951,13.869 50.144,14.011 50.353,14.152 Z M56.175,14.808 L55.991,14.808 C55.041,14.808 54.182,14.668 53.439,14.392 C53.24,14.316 53.056,14.236 52.882,14.153 C52.845,14.134 52.819,14.122 52.792,14.11 L52.71,14.074 L52.636,14.024 C52.622,14.015 52.609,14.007 52.596,13.999 C52.5,13.951 52.406,13.906 52.31,13.863 L52.326,13.83 C51.393,13.191 51.188,12.429 51.188,11.884 C51.188,11.238 51.48,10.323 52.871,9.628 C53.751,9.193 54.8,8.974 55.991,8.974 C57.189,8.974 58.236,9.194 59.103,9.628 C60.045,10.092 60.599,10.715 60.746,11.48 L60.765,11.578 L60.765,12.192 L60.746,12.291 C60.616,12.967 60.176,13.532 59.436,13.971 C59.329,14.037 59.21,14.099 59.084,14.157 C58.267,14.562 57.292,14.782 56.188,14.808 L56.175,14.808 Z M53.727,12.22 C53.756,12.235 53.785,12.248 53.813,12.262 C53.92,12.314 54.049,12.369 54.183,12.42 C54.68,12.605 55.292,12.701 55.992,12.701 L56.149,12.701 C56.945,12.68 57.623,12.532 58.163,12.262 L58.202,12.243 C58.254,12.22 58.298,12.197 58.333,12.175 L58.355,12.161 C58.535,12.055 58.623,11.968 58.659,11.921 L58.659,11.85 C58.617,11.799 58.492,11.674 58.169,11.515 C57.591,11.225 56.859,11.081 55.992,11.081 C55.127,11.081 54.392,11.227 53.808,11.515 C53.366,11.737 53.294,11.894 53.293,11.896 C53.304,11.911 53.383,12.018 53.617,12.157 C53.653,12.176 53.69,12.198 53.727,12.22 Z" id="Shape"></path>
            </g>
        </g>
    </g>
</svg>