<?xml version="1.0" encoding="UTF-8"?>
<svg width="48px" height="48px" viewBox="0 0 48 48" version="1.1" xmlns="http://www.w3.org/2000/svg" xmlns:xlink="http://www.w3.org/1999/xlink">
    <!-- Generator: Sketch 64 (93537) - https://sketch.com -->
    <title>weight</title>
    <desc>Created with Sketch.</desc>
    <g id="weight" stroke="none" stroke-width="1" fill="none" fill-rule="evenodd">
        <rect fill="#FFFFFF" opacity="0" x="0" y="0" width="48" height="48"></rect>
        <g id="noun_Weight_2462682" transform="translate(5.000000, 5.000000)" fill="#000000" fill-rule="nonzero">
            <path d="M32.1114607,0 L6.87977528,0 C3.08218213,0.00482847775 0.00482847775,3.08218213 0,6.87977528 L0,32.1114607 C0.00481496097,35.9104803 3.0807649,38.9903486 6.87977528,39 L32.1114607,39 C35.9138941,38.9951715 38.9951715,35.9138941 39,32.1114607 L39,6.87977528 C38.9903486,3.0807649 35.9104803,0.00481496097 32.1114607,0 Z M36.3707865,32.1114607 C36.3659652,34.4618215 34.4618215,36.3659652 32.1114607,36.3707865 L6.87977528,36.3707865 C4.53083787,36.3659533 2.62921348,34.4604031 2.62921348,32.1114607 L2.62921348,6.87977528 C2.62921348,4.53225482 4.53225482,2.62921348 6.87977528,2.62921348 L32.1114607,2.62921348 C34.4604031,2.62921348 36.3659533,4.53083787 36.3707865,6.87977528 L36.3707865,32.1114607 Z M19.4737079,6.60808989 C14.2040895,6.65110079 9.94549436,10.9175027 9.91213483,16.187191 C9.91213483,16.9132283 10.5007043,17.5017978 11.2267416,17.5017978 L27.7644944,17.5017978 C28.4905316,17.5017978 29.0791011,16.9132283 29.0791011,16.187191 C29.0454926,10.9005338 24.7604374,6.62720766 19.4737079,6.60808989 L19.4737079,6.60808989 Z M20.6831461,14.8725843 C20.6854747,14.8404916 20.6854747,14.8082724 20.6831461,14.7761798 L19.0179775,11.4808989 C18.8227172,11.0367389 18.3986855,10.7362383 17.914917,10.6991877 C17.4311485,10.662137 16.9663014,10.8945606 16.7056809,11.3038057 C16.4450603,11.7130509 16.4310417,12.2325766 16.6692135,12.6552809 L17.7822472,14.8813483 L12.672809,14.8813483 C13.2970738,11.6032948 16.1630341,9.23161494 19.5,9.23161494 C22.8369659,9.23161494 25.7029262,11.6032948 26.327191,14.8813483 L20.6831461,14.8725843 Z" id="Shape"></path>
        </g>
    </g>
</svg>